<mxfile host="65bd71144e">
    <diagram id="iTWixttI6eJrHm3gVXcG" name="Page-1">
        <mxGraphModel dx="1140" dy="631" grid="1" gridSize="10" guides="0" tooltips="1" connect="1" arrows="1" fold="1" page="1" pageScale="1" pageWidth="850" pageHeight="1100" math="0" shadow="0">
            <root>
                <mxCell id="0"/>
                <mxCell id="1" parent="0"/>
                <mxCell id="2" value="" style="whiteSpace=wrap;html=1;" vertex="1" parent="1">
                    <mxGeometry x="80" y="80" width="540" height="290" as="geometry"/>
                </mxCell>
                <mxCell id="3" value="Global Execution context" style="text;strokeColor=none;align=center;fillColor=none;html=1;verticalAlign=middle;whiteSpace=wrap;rounded=1;" vertex="1" parent="1">
                    <mxGeometry x="80" y="10" width="170" height="30" as="geometry"/>
                </mxCell>
                <mxCell id="4" style="edgeStyle=none;html=1;exitX=0.051;exitY=1.082;exitDx=0;exitDy=0;entryX=0.44;entryY=1.009;entryDx=0;entryDy=0;exitPerimeter=0;entryPerimeter=0;" edge="1" parent="1" source="13" target="2">
                    <mxGeometry relative="1" as="geometry"/>
                </mxCell>
                <mxCell id="9" value="" style="shape=table;startSize=0;container=1;collapsible=0;childLayout=tableLayout;rounded=1;fillColor=#60a917;fontColor=#ffffff;strokeColor=#2D7600;" vertex="1" parent="1">
                    <mxGeometry x="80" y="40" width="220" height="40" as="geometry"/>
                </mxCell>
                <mxCell id="10" value="" style="shape=tableRow;horizontal=0;startSize=0;swimlaneHead=0;swimlaneBody=0;top=0;left=0;bottom=0;right=0;collapsible=0;dropTarget=0;fillColor=none;points=[[0,0.5],[1,0.5]];portConstraint=eastwest;rounded=1;" vertex="1" parent="9">
                    <mxGeometry width="220" height="40" as="geometry"/>
                </mxCell>
                <mxCell id="11" value="Memory Allocation Phase" style="shape=partialRectangle;html=1;whiteSpace=wrap;connectable=0;overflow=hidden;fillColor=none;top=0;left=0;bottom=0;right=0;pointerEvents=1;rounded=1;" vertex="1" parent="10">
                    <mxGeometry width="220" height="40" as="geometry">
                        <mxRectangle width="220" height="40" as="alternateBounds"/>
                    </mxGeometry>
                </mxCell>
                <mxCell id="12" value="" style="shape=table;startSize=0;container=1;collapsible=0;childLayout=tableLayout;rounded=1;fillColor=#a20025;fontColor=#ffffff;strokeColor=#6F0000;" vertex="1" parent="1">
                    <mxGeometry x="300" y="40" width="320" height="40" as="geometry"/>
                </mxCell>
                <mxCell id="13" value="" style="shape=tableRow;horizontal=0;startSize=0;swimlaneHead=0;swimlaneBody=0;top=0;left=0;bottom=0;right=0;collapsible=0;dropTarget=0;fillColor=none;points=[[0,0.5],[1,0.5]];portConstraint=eastwest;rounded=1;" vertex="1" parent="12">
                    <mxGeometry width="320" height="40" as="geometry"/>
                </mxCell>
                <mxCell id="14" value="Code Execution Phase" style="shape=partialRectangle;html=1;whiteSpace=wrap;connectable=0;overflow=hidden;fillColor=none;top=0;left=0;bottom=0;right=0;pointerEvents=1;rounded=1;" vertex="1" parent="13">
                    <mxGeometry width="320" height="40" as="geometry">
                        <mxRectangle width="320" height="40" as="alternateBounds"/>
                    </mxGeometry>
                </mxCell>
                <mxCell id="18" value="&lt;b&gt;1. Everything in javascript&amp;nbsp; happens inside an execution context&lt;br&gt;2. Whenever a js program is running a global execution context is created&lt;br&gt;3. whenever a function is invoked a global executoin context is created inside global execution context&lt;br&gt;4. GEC has two components one is memoray allocation and 2nd is code execution&amp;nbsp;&lt;br&gt;5.&amp;nbsp;&amp;nbsp;&lt;br&gt;&lt;/b&gt;" style="text;strokeColor=none;align=left;fillColor=none;html=1;verticalAlign=middle;whiteSpace=wrap;rounded=0;fontColor=#5BDCF0;" vertex="1" parent="1">
                    <mxGeometry x="80" y="400" width="590" height="120" as="geometry"/>
                </mxCell>
                <mxCell id="19" value="" style="shape=image;verticalLabelPosition=bottom;labelBackgroundColor=default;verticalAlign=top;aspect=fixed;imageAspect=0;image=data:image/png,iVBORw0KGgoAAAANSUhEUgAAAaIAAAE3CAYAAADooEWfAAAAAXNSR0IArs4c6QAAAARnQU1BAACxjwv8YQUAAAAJcEhZcwAAEnQAABJ0Ad5mH3gAAP+lSURBVHhe7P0HgBzHfSaKf5NnNueMXWCRI5FIgCSYJUbl5HSWz3L2O5/tO8t/31mSdfHd2c938p3v/vcs2ZKoZMm2MilSzAGMAJFzWmCx2Jx3dvLM+76q6Z3BEiAXIEgsxP5ma7u7uuKvqn6hurra82//zb/Nff0b30QikYDP50cmkwGQo7PI5QrnLoQcPJ786Xnw0N9rji5cuHAg/pG1py5czIIjX7z+gJ8CSAyU3SUrIURWSobqMFUPua6c9S9cv/ucaGLPL0YLVwi5cOHCxaVBwsj7RgzUMlgrlLxe38z5mzuPEp5xFwtzvrtQGLm5hLmYu5y4NrwtO+udd+el4aWQdsiWJ10hzoXdhSnswsW7BO4AcPEG8Hzuc5/LPfjg1zE9PU1h433dVJwYbHEvsvfnNl2nWIWQxT1xbvGvNs4vsVObi9Vf9x13bdTPhYu3D282Xly4sMhms7BzcnPE3IRQgSFn6SwDF4o7pb0/+3dhFNKzbjZm3z/fFf8KcO5fCIW4trSFOjjp0CYyzvkV4rhw4eJ8FI8P17nu9c7MJs0ygF4HCZ9cLmucFSJvjHzS/E/rihnkeGod0zHOBCOckGTpBc+LwAl7cdhy6igJq3M5K0TePP3ZsOEVLUvnRGfx4eOFN8cy84aXzqPz8+T5m9PIhYuffRSPAw0g17nuQs5Cjy/eMgpJWsYvSyjDhGVwZcioMzxmPT5kvTrS8ZhhBIWxa/QkZOzv4qBgmencCkdBB6bJ9LPw8zIEjzcAry8Inz/M8zAFSIBh5HifYRXHQum8mcBgHhI6KhWDeiiHfczLz18g50cwy2PWS+eBT4739LN1mO1cuHi34kLjwXWuKzgZDfmn7pcPJzlBR1k9WcO588yemWTTOWRSGWSSdGm6bMZYGmmGydApTkEwXKg8VgjlKA2Kw5qFBF4/ckwsEU8iHk+YZejxRByJVMpYR6qihJ+p6gyKrbsL52djWvEVZPyg12fyScbTSCZSSDP9jPLIZCikKEoptIwzPxcuXLhwMRdoas532223f37Pnr1IkanahQlvDIU4z+WZr/4kXDQdJ7vIy/TKclm0RkqwrLqargbtpaWo9fsRIvPOpdMUB2T4XodxO4LhDaDy5afCfLSqPDkKgdQUakozWNZRgdXL6rFqaR0WNpehLJhBOj6BVDJG60gr/iRSrIBRfjbPwtn5sHXSCjkvBV8iG0Pcm4Cn2o/S9kpUL6lD+cJKBBpCSISSiGamkcgkjWB0aiMaFHCxfFy4cOHi3QjxQ8uPDU/+3Of+LPfgg1+76Kq52XBYqjFMzLllsGkmlvXpKocABU1HeQWub2/HmsYmtJSUIpIXUNPZLLonJvDauXN4tecsBuJxZHy0WpivTdNh2E5BHUgwSJjQVwIoHUdliRc3XteB27Z0YsmiGlRWhxFgEL2TOzaRxPHTY3julRN4YddpjE7R0xtQKkrBpHzhmpra2XAsUJxCKFDjR/uGhWhbvwiR5gp4S5kO8/Ewo8TwNAaP9+Pkq8cxenwUgaSfFlRAhcznYtOyeV04RxcuXLh4d8Hh7+SSNFjeskUkGHYry4aMu4wXGxub8b6VK3HXgjasjYSwkIKjla7ZQ0dh10HLaEFVFcpDAcRiUUTj08gY+8hh1MWpCzqntUHu72GhM4kJtNT58NF71uGX3r8GW1cG0Vw2jDJfP0o8/Sj3DaO+NI7O5hJaSW0oiQTQ3zuAqakEk9LzoovPSGrxgY+WTZZBYrSCShaWY9l7V6NxWztSnR6MVk9hqHQCw+FxjJdMI10DRFpKUdVSi2wmi9HhUWSSaXhlKV4kDxcuXLh4d6OYOeYuXRDNIB+W/JZMmwKEFkA4C6xvaML7V6zC1upqdGRTqE0lUJZOI5LNIJTjMZNGWSqNGp8PzRVlCNKyGJmawGQyjhTTslN79mehoywK+0JtNh1FQ2WOQug6fOiuReioGWfa3QhiCAFEEfLEaJFEEciOI5gdQ3UpsKSjGTTE0H12BNFY1i5uuIgwsgsOvJhGDP62CJbdsxYV1zdivDaGodAYJgJTiPsTRkjF/ElM+eKIBuMIV5WgisJ1amwSU8OTtNiYlpmqU52sgLV1ukCmLly4cPGuQjEffCuCSAnxT1NyNCIQSCWxgsLnfctX4ObqKixIJ1GdTVP40OyiEJIlYxwlgo8uzHuVjF9dWoIU/QfGxzGRziDt1fSblgk4ZdFR1hCFEeNE/NO4c8tCfPiuxeisHUep5xzCvkkKoQT8tLj8lADWJRGgUPLloigN5VBXU4uR0TjO9IwgKXOHgrBggSkX5sNLHdMUmOmqHNpu60T9Ta2YqI1jNDKFWCjB8rHGXlpvTCLryyHlzyApx/xCJUGUhksxPRpFajIJX8ZH8ak5vKI8nAsXLly4eNeimA+ev5TskiE2LgGhJKv8fqyvr8O6qnI05VIoz5ARa+86PXPyMpvznGJnEUqn0EKrYXNNHZaWVaBMAofBZWUVRISKnC9oNonGmhA2rWlEaw2FknecFlAKMshmlmdLQuR0TqvHQzFAAeHL9KO9PokbN9Qzvh8eZ2HBLMGrmsheinniKGkvQ+XKakxXxTFJQZdG0rw75M/5mVPALOP2M5+AHH2ygRyipUlElpSjcmkNMqV29aBZAG4WWDh5FdfMhQsXLlwY/n45EDvNSmjwqIf2daEQlldVoc3vQzktF58kihi9LBkesuZoX3LVSjmbcw6ltIY6S8uwpKISZbxvhQrv5KezJB7EzsnW6ZnEovZqLOsoRVVk2kzBeZFiGCXmvCvkHB1hpDMKFv8ElneE0dEcoiyMI51JUEaa0tPxPwvpo+DSs6pMKIvy9koEWyNIRlLI+GjRMZgEj19ih0fzTpFcln60sCTAooEYktU5hCnEPGWqnd6osj8nHxcuXLhwcT4uWRA57NQKF57QabqtPBBAbTiMsKRTWkJDwsOGK4aujV9eSKkAFQE/GsvKmUaQDJ7eeRlk4jMD63Lw+bKoq4mgqkxCI8a7EkLOO0GzMjoPTIFWWl1lAM2NfgSDeo2WQqIoiikSnablciEPyuoqQHMLKcaz8VXS1+cxY+nwkJTd5EshUB2CL6KpP2sR5qvjwoULFy4ugEsWRA7EXCUCBL0uKjskzDO9/Fm8XYPDhOXjnOtozhmOBpFh8kGP3wgh7TlkYjuBCeuTY7oZBPzKVdZM0vjZlAv5FSI6/tY60vMlnyeBMOP7jdlVlAHhLFuXZZPze5AN0tbyZClTJVSVkhPHOufMgvmY7GhNeWlTBXmuFdxGoubr48KFCxcuLggKovNZ6qVAlk2GcRVbS5fTqbSZ4tLqttnc18lB3pIDCmdeTvX6GT6ADK9tmAuzbfnmKBTk9JjJPJt6w2IrhoRQPj1JPC2akMWWoXAw5hy9iywWWTcSG7KXjM2k95u8jgjSf2tJFWOmCDwxT4KYbCZnF6MrawmjQg4uXLhw4WI2vBkKkJyY82VAgkDsXEIhzTQSyTTS+Wk5e0fpWmd8FN5kpSuBF/xLpDOYmJ5GPCWxZmPMBCGMeOC1NjEdGxtHNDrNMjtCoSAYlEuxKyQi4eXF1GQMw8NJZNMB+LTbwsx9B7TsGC6XSGFqdAypWJw+2oaIdpLZXkh5OSnn96Ez5yqx6s0wrMvU+CRS8SR9JY5sjWbn5MKFCxcuLLxati0uOXsF2cVghAQhgeJnFDOd5vFhKh7HwMQE4hRsNHPyAfXPMm89K7E56D+duaWJsCyF0BSGxscoiMi8i8phzxTQJGaSHRgYxNDgqIwbc20lm9i9xIHdU86usVNs5SsBIaHlR/9gFL19CQpLv1k1Jzir/nTU7g5+TREmWKZzQ0hNRFk/ps08zJ54+uWn8PTCqiw7LwVwNmP3z/PSekrFEhjvG0YymjDhnPJZJxTq58KFCxcuyEf9fj3dIRPPM9i5QmzcLCwQn6cgGk0kcaC/DycnxhFXWvl7ZocBncvD+OedrpnIdC6NIwPncGJkCFp+oJ25Zf6YqTsDKwi0k3fOE8bpc1ns2DeAoQmGzQUpY1SANNNP0emYybs041LI8h58QQxOpPHy/nPoHppCxuu3q/iK6iwhk6XQ0k7aoWwQU90jmOwaRCiuV2kpiHIpCiMKHDmdM23af0h508j4JRVZnbQP0f4pJE6OIhdVWfLCcMa5cOHChYvZMIKoyAi5BNAGkSyhZSGmHgsEcGhiDC+ePYOzsTgZtAQcnV4elVAxjhGMdUJHb30Komt0BDt6z6I7EUOMFoXuimefXyQKAlke3hKMx4PYvrsXOw9RUCRLkPNGmKyEEQVRLjnjkI0zK4o2JpTIBLHjQC+e3z2OobgfKZ8XaRUln7b5r+JJBvJXQgHnHcigb8dpRLvGEEzqMw9aUZcxwiftSSHlSZqXWBP6MW8vLancRA6De85i+sQkBVjQLPc2BpHStwcXLly4cDELvltvve3ze/dqZwVq8Jcgkcy0FI+aSqMYMA/1kxQj07GosSCqystRFgpB+7YZy0Bpy2nnBH8AMZ4fHh7BI8eO4aWREZyjQJzyBSicFN4KBMH8Nx56V0efffBiaiqN8fEpVJeXoLmhDuGIlqipFAyoKTc5Y1nRsklF8OLeQXz70T7sOZ1FNFtGURLiPZv+bCh3rfrL0fKJTUYRT8ZQWVOJMtbHJ6GdD6MnRD5vAOFgGCXeIHwjWfQ8dxKTzw/CP0r/TASBTICCSFOFpgIm/cLRhQsXLt6tKOaDZoufyxNESseEFtPmQWJAFk4slcTIBK2VqXH4KQuCtJR8EjAMrcmzBF3f5BR2dHdTCB03QugMhcYYhVPao1VuEm+CUxb79EemhZ1Kk5gLYmwkhtOnziGTSaK8hIw/HIEvWEYBEub9EKJxD84NJfH4i6fxzYcHsPtkBlPZclo1JUyPosQkfwE7xdwgYVgmiZvowCRGB0bp5zV5BANBhGmFhZhPIEuBNpHGxIlBnHn6EKa2D8Ez5EMkVYIgrTBjYplUHLHqwoULFy4K/F0gj//sZz+X+9rX9BmImLE25vqsSMlYli0xoec48qCIyKZQnk6gPp3GYloLnRXVaCyrQEkgZNKOJuLonZjAyckJnM5kMBjwY8LvQ1KWkJZz51MtpC4ofa1A41UuQJEQpCCII5QeQU04jqULgCULg2isr0I4FEAiHsPA4CROnU3h5DlgIApMe8ppsZUjm/PRmtMzHT13sjlZFPJTfbSTuPaUSwbSmApEkapKAwvCiLRUIlJZwuBepJJpxIbGkD4zAfRlEI6FEKYFFsiEmYjdpUFTc+bz4vl0Xbhw4cKF5bSGK+bIJ9+KIBKMIBLT1rke9pP5hsiCI9ksIpkcj6DTHm0KkKXV5EGcLur1IUprSc+FzK7bvF28QGE2JO6syPMzH1pZzNNP+8qbGzVHreDTugufkmCeWsNAOYE076Y8Jeb5knbdzpfUuNfnUgzeVb1Y1oyXAtQbQ8IbpRykEAvkg2g9hNZC5PwI0zoKpYPwZyUo/UbIaaWdBJFZYcfrN8vRhQsXLt4dEKPO8+HzBFE0L4gukVkaG0IMWwIsay0JzW6ZzzmIAdM7QOdTZgpP/7SsCV5JKNnoJhWT2uth7xQEkf7bKTxl6fFoSlGfBadE0C4IuuOh1WN28aZVklU4lkXlUTkpIi6USwE2P0sgLQRnWpoOpEWmRQparqB3iujBkBSwvCcngSO//MEc9c6sUlP9XLhw4cKFA3FGwy3JZ/X0X6e8Foue4cGXACMgGFWTahJk+nidlnNLWGjhQZp+cbppnx9RH60g+skiytASUn4FIfTmsCHlVAEKA2aczXkpbAL00Qq6MrpyiooSJGmhJLO0z5gfJRPLpBqaWr4JnBCsD+PastkpNn/GhxDTLcmUoiQboRWk50Q0j/RwLL8oQULIgd1B4s1zdOHChYt3M4wgequw4sH+N2eyFsh/ncRlGYhXSzBpdZ2CiUF7jZUkRu24C8Hes5aQnK7NxBevMhQW9JWwMblZZ77kKiFiBIkT3tnlYC4ohJMllPVkzFFWlbGQzLMsOZu6BJ0++TAzRcmfU1pRxIULFy5cXBxXRBA5zLcYhgHTSwJJ59bl9zzI+10ZOAxfQs1xElL23Jbu8lAcU+eydsxeEBJO/BnBY4SPDXn5Oblw4cLFuxdXRBAVYNj1jHOsAu2o7Tg7FeeEuRRcKI7jZy0e6/IvzBrnCKLZ8eYCG8+JrTNHCGl3hRlhVPRzQgrnX7lw4cKFiwvBPot34cKFCxcuriJcQeTChQsXLq4qXEHkwoULFy6uKlxB5MKFCxcuripcQeTChQsXLq4qXEHkwoULFy6uKlxB5MKFCxcuripcQeTChQsXLq4qXEHkwoULFy6uKlxB5MKFCxcuripcQeTChQsXLq4qXEHkwoULFy6uKlxB5MKFCxcuripcQeTChQsXLq4qXEHkwoULFy6uKlxB5MKFCxcuripcQeTChQsXLq4qXEHkwoULFy6uKlxB5MKFCxcuriq8mUzanHj4c+HChQsXLt5JeDweeLPZHE/yPi5cuHDhwsU7DG8gEMifunDhwoULF+8scrkcvDKLeNTcnAsXLly4cPGOwyxWkDBy4cKFCxcurga8MotoHNkrFy5cuHDh4h2GEURGFrlw4cKFCxfvMMyqOf1zZ+ZcuHDhwsXVgmsRuXhHIZ3HcS5cuHAhuDsruLhqmC2MXCHlwsW7E/NWEIkZec3codc4d+eHaxOzhUuWLsN2lUvnj7Ovs25bu3DxroF5jyh/Pq9QzIbsMywKJK8rkK41OC11XotJ0NAjTZehy3rttc7l4GOXpMsxnAlu/rtw4eJnGfPTIpLw8foMM8pkM0hn0kilU+Y85y41v2bgtJSHJ1IgrBKRg4//A9SCgpksQskUIsm0ceF0RpsfMkjWtHOO4eUUyxVILlz87GJeCqJsNotEKokkhU+OlpA/FES4pATBUIgCSlaRZUwuc7o6mAvdJYRyRQEljAQvj34KoMqcF23BMJaVVmB1RRVWVlSjI1yGCkbyUiCZFTRuA7tw8a6A5zOf+Wzua1/7OmKxmJn+si+4vvMwgkUWEPP3Bfyorq1FY2MjmpqbUVlVhVAgiNHREeza+RoG+vpMeFvUuZbX4Wompj2dga6Lud6Fwgg2jKWRPc/PIBFO+OJ4xWk6cPyK7ynOheJfCLPjWczO6UI5zzWHucLJozg9+enaOF5I8PjodK7nQxGGaC2rwPK6JrRT+FRQyfCr3/EXTafRMzGGg/09ODsxgSgto3Q+dfUNFy5c/KygwCmy2cz8sYiyZO4qVlbacnklbtp6I+644w4sW7Ec1XW1qKipQmVNNfzBwEzYYo17blCEYmdxfjKvv29h/TweL3w+P13AOK/XTz9NNr0RKYvTdNKR8xXFlf+loThFB/baNrDOvfxncuBR7F4oDn85mE13XTpOKD43bcqLLE2ibC6DMK9X1DXiuvoWtGb9CI9OITUwhNzgCGpjKVxXUYdb2jqxtLwKJYxsqMrCX3pbu3Dh4lqB79Zbb/v83r17kaY2erW1TuUvxhUpiaCsrAxDI8M4dPQo+gcHUFpeTkYGdJ06hYnxcXjEnGy0GaZ3PuSr5wv2Z1mi/eSFraYTWyikoHtej3R3y8gdZxi51HtkKMFTtIoSPE8yWIZx6G8SlSugOK4VPB54fVp4wfC5FO8ofiqfrlMeJ5bcpSBfUwrKHB0JZKY1tQpNOWklmixeS4uZ0ObsjeCEcEKZ5zYzdZWTqHhjZ+PwnApEGYV4bSiCxPgEerq7caL7DI73nkXPQB+mJsdR4Q+imYqILOChqUlEs2kkGVXl189OzDJnKQSsjxaw2HI49HPhwsX8hx3HgmaY5o0gMkKI2euYSCRwtqcHp0514fSZ0+a5UMfChabsp+k3NTE5U1b9v3CpybZMGLIuMisxe33xIhD0WEECfRCQlpVJIJ9WLougHwgGGYvCSN9qMksLKWhSqRgymTjKSv2oKA+gtAR0JKAvjVhsmpHJGP0B8VqlaliwRKXYcDDgQYACSAIrHp8yQqy8wkdhm0MonEUyOc20aZ5638g6cvys0DJsV+U25be+oHXlDYSQYTqJbBZxmryIRBCoqISXzD+ZTCOjBQGMN9f1h/nki8Ar/VG6akGJx+eDz+Nn2eWY/yyn+0YoqoDMN0caj02Mo2dsGOdIi34K4xFfFhPeDIanJxFi2DYJomAIA5OTGEkmECdJWBNadiw372eZhqBniVrEIoE0t9q4cOFifqAwXsVj580zIsNe82XTwZSDTCdFBt2xeBG23X6b8Xv2yafQ233WMFNjiFy0vEqFDIqJplJJCpcM3nP3zdh642a88soreOaZFxGbJkPzhkzYnFbkUdDcevMG3HXXTTh+oguPPPI8RsejZHQeLFzYjFu2bcSaNcvQ0FBLRilmnsHY+CReeXUfHnn0BXSdGWZSIfJbCRTdzyIcyOL+e2/H8mWL8KOHfoSR8RHcd/97sXnzWpRToKUoGPbvP4Hvff9JnDw5ROaq8kgYGYrknWCoUuQkuC3BxPBTFJp1za3Yettd6KPFuHvvPqxeuwZrNmxEuKwCKTL0s8eO4ZWnnsB4bzdCLJuXjFwQ3Z1cZkM5iM460cHE4LmmR7W2TQLgwkKA99RGFEQSsopsrErGE12MlchfhokrHcpqRBJJbCypxj0dK5CjRfRk13HsnRrFAIV4imH9LChPjSDSvHJJSQn8fj8tqSnjp/7rwoWLawHiGeIo8+wZ0XmQxi5t2jBasj4yLyt07G1Bd4Qir9dBgku/YMBvLBpgCuvWtuO2W9ejoa6MaZApkrlJqOWySVSW+3Hjjatxww2LEQrFkUxPMJEU72ewdct1+PCH7kTnwirEo+cwPHACo8NnUF/rx8c/eht+89c/iFXLm8koNRFmGbTg92exdHE9Nm5oxY03tOF3f+t9+OD7tqC6kuw3M848vdiyZRWWLGklM00ZLR85NosjlWfg1FT+ajbmQC9jC7D8KdGHAqdu2Qq0btyKmz7881i+9Q7EApUYTtMUrG7Fitvuxsa770Okts68syPyigZvCoZTKDkbPos0hXYyFUWCNEpmxykICy6dm2B5JmiVjSOWHCUdJ1k30Z+WKC3NDKVQmkpGkj6a4NSdaaYZU7VDNEcpXDKkQ5oKhC/D9svSojRCyNIkmUxi/fr1+NM//VP8xV/8BT728Y+jsrKSd+x9Fy5cXFuYZ8+I8kc6TeGI0aapTWvVnJmaI850aWpuwggPBxcudd6Xwsjvp+2SJrvLTWHl8lZaNBU4eeIk+vvGWG9NIXmQTUexqKMW73/gZmQpIB566DGcPk0LJxdEgIyxsjKMY8f24gff+z4eefgJPPvUi3j2meexb98uVJR7cN36VbQ6Ujhx4jRi8QytKL/R/EOBFDasb8fCjkp0Lq5jcVL4wQ8fwne+/T089tNnsP2FHThx8iy6uvoxOKhpO01xkSOb4l9ISOiGxJwVdYYM/JfgVUlDE+qXrERpSwfi6Ryef+opPPPTx7Dr1VcxNDaBqqZmVNXVoK/nDEb6e+HPps10V+GZz+vh3MnnJi8esli9bhnec88t2EQhumHjUqzfvALrN8mt5PlKXLdpOd0yXi/HRlp/El7joxO0jlQnK0iFLPPOkf5+epdSOq6sbcKiyloMTk7gyPAARlnGOJWSLAWXBFGG/VRfFf7IRz6Cbdu2oamxCVXVVTh06BBGRoaN8uHChYv5jjwvITRmxRF+hqHpoRy1azEvLwb7BtB14gSqykNYtWIhIiGx4QwFnp71ZLFixQI0NlbizOkz6O0Zp7UUIfMLIUPV/ZWX9+CHP3wOu3afw9mzWZw758OZM8AzT/fjsUdfwuRYP9rbKs3zI0+OQl1ChMI0zcjpbALh0iDiqQS++/2f4Ac/2IkDh6I4cSqFXbsG8ZOHd+Do0XMsq1bhqYE0ASZ3caaqO/aurC9NbimGn6pFiPnlcGD3TnTvfAG+wdPA2RM49cp2dB87imC4BBWNzfBESigA9PzGEWlvACauKU5PTvRSHGDR4gW44z1bcc99N+Hu+7fS3YC7H+DxfVvx3ge24J733YD33r8J773verzn3hvQ0dkAX5BpMD+v7Dim5TWOKdLiiVAIdVbXYyEFUTKVxpnBfoxmEogxuxTzc+qrZ1OahkvSWlK5/bR2laYsSVcIuXBxbeKaF0QXZ6EO67LMyecN0ZLyYv/e45iemsDypR2orS41QiNLLbumqgzXrVtMppbCvv1HqF2PMSYZuydI50cyQcGQ9aK8tBKtLW1YtWoVNm28DltuaKNWHqHVlENpiRZFWKaYNc9FJCQ0Ochrnu8/cJRpjyCVKYPXXwuPrwH+YCPvV9NSiDC4piNV2mIhNLuGhTo5UAhZj+TPCPgCmBodw/DZM/BkYijPxdHgzyAUn0RifIzlDCBQVoEMw2l7HcVWKfOp0F0A9C7kKLEHWoIH8Y1v/D2+/Hdfw9/97TeM+9svfR1/l3d/+8Wv48tf+ia+8uVv0v9r2LPnAC1GTcY5sPWg2EYJrbeF4XJsrG9DVSCErqF+nJocxYQ3h4SfqgKPErX6L/rIet++/QW8+NJL2L//AH7605+iu7ubdD+fLi5cuLg2MK+m5hw+6JRCGq+eFVRVV6Nj0SLjd9qZmtPdC/IdJ7ZldErD6uA+5NLSouNYuqwVba1tOHXyHHrPjSAZT2HF8jbcc+/1ZlXbI4+8TIsnytglDE+GnU2iJOzBLTdvwD/7pQ/h537uXtx//814791bcPd7b8Ca1QtRXVWB/v5hvPLKMQyPpWhhhZlnlow/gc2blqGjvZn39lAQnUEyGaJg0vtQLCJp7qGg08IMU2NTfKdiunDqMxvWX+G1qjCZ86O0pgkr1m5AIp7E8dd2IDXSj1BOizDSiLE0TUtXoGXhQnSfOY3e40cRSMVNGa0gehOYolixqrIODg/j2NGTOHLoNI4e6qE7h2N0Rw7y3LheHDvch+NH+xiuB+PDLEFWFpXVfXJsPFVZ04M19Nu6YCFWVdWb6bXdvWfQk45jgmRJGoLYWLJcbX09GGb+u3ftwgvbt1PI7WG7xXlvDvVw4cLFPEBhrF4zU3Nafu0U3IoXC8uiLg7DtPhPvyytDX+wHH0DEzhxvBulkTCWLmmjgNGKjQSWdC5ATXUFTpw8hb6+UQpACQcfMrkUSkt9+MAH7sBv/tbPYcPGRRgbP4NXdzyDx5/8CR756SNkiHswORGlIWPzEtt0ymymouiyGQ8tAt2TN+9TeOidIss85QpxLhlmSkqO6fGgnQzEtE1qTM6sMtMzNwp1vSLlyWlqjEKFYZyYchdDIQx/EiBMpLqyHO3tbejoaMfChR1YREWhs7MTSxbnHc8XL1qMRR3W1VbX0FqT+qDy2Ny8FJD1viBuWLAIi6vqMELhsv9sF86kpjFCQ1TLtq2YzItKVY4nWjauxSxT0Sn0D/QbJUrXLly4uDYhXjUvIV5ldlAwTq8zWuZlmCF/dncF6zdX6KH8FOXFYWrxUzxZtWohhU8lqipDWL68gwGy2LfvMEbHxsjtNE1GeyETwzJaUHfetQmZ9AgefPBL+Hf//gv48//nK/gff/0d/PcvPISHH3kVE5Mx+PxBI1iMAHDKbrMmvGSYOfOw3j7LEGt1nK6L61IskN64jiaFfHQnFQkdmnG8sPnntOZZj3aYrE71bpNYvA19KcjXDSncROvwj/74N/DZf/e7+Oy//2185j/8pnF/+u9/C5+RM9e/gT/9PN2f/ha23XwdhX7A0NTr5TEDVHiDWNnQilX1LZiemMKe7i50JaYwGshhWqvrWL6Z+hGmLvbU1E1Lt0OhEHwSQoamLly4uBZBZV1aef5qHsFH7VmMRs80/GYbHWtNiOmYLXZ4T5qx2OLFUbhnWLLiBrw4dvwMTp48g6YmrWQroxCqQeeiRgwMjODY0XEkk6WMqfd5xN+SaGutRHWVH0eO7MELLx7DwCAtDFQz/zrKqyAqq2oRiZSTmGSyJkvLFJXnjNXBo32gzlLNENw5mhB5Jz/HzR0KbVLgiSPAZ2DyK6RnaKmA+SCFO2+GfBkp6GLTUxgfH8Hk5AgmonRTwxibGKIbpMU4wOMAxicHEJ0ewXRsHIlk3JRJ+WpJdi2F0MbWDqxubTfvAUkIHUlF0R/yYMpPoS3riVajU/JiJwtTO7FHo1GMjY4xj2n66p7uunDh4lrD/PtUuMrDQyqVxjQZjKZfEom44X9iM9p1IRaPIU6nF1VlLZ0PpzIO2xIKfn5fCSbGMzhy+BQFWgarVtZj06YOVNeU4NDBExjoH6HA8FHQ5IUfk/BT3mlnBpUpmZCWXkFXTUbopUYexKLORSgpLZGcgz/AOF7p8lo5VyiBymAWLeh4/o0rCjO9J3ehDFQfw9wvN3PSUZ0l68XOV/fjb/7/38Rf/eVX8Fd/8WV84c+/bI7mnNbiF/7iK/jvf/53PP4tvvDfvoRXX9mHWCJjpg0rWY51Tc1YW9+M2Og4dnUdx+HpUfR60xjKpDCdSCJNWjsvwhpy5Y+CdlMoLy/HXXfdhV/+5C9jw4b1bEu22ev6ggsXLq4FzCuLiLzGMEtZPXpBsampySwqqKmtde6itqbGvDuiexVkRgp/nvY/A8O+8qfiYlbAeX1hMkQvDlEQjY2PYcvWtbjt9vXIpKdw9MgpTEeTZuqIIU3aos34+CTIH7G4cxmWLavnvTGMjZ1BOJzAPfduw403bjICKBT2orTUz/spGg1a/KEkVD4JoKyRD3IqiS3yhcotP8ddGkQHfbspQ6c8bSqqg+hgLTIxd+1wfhmp5x3rQCEdj2Yw2DuFvrO0Ys7GMHA2jv7uGPrPyPHcuAR6uqLoOT2BiUktZfcizNirGhqwsaEJtVNxpPsHqQ3RviwvQ3NZORaXVWJ5SRUWhytQ5wuZ8GYrPkNLu/OHVt9t2bIFv/3bv43f//3fxx/96z+iVbuc7SaL9K0IWhcuXFwN+G67za6ak7ZvGdZVBLMXo9S8/+brN+Pmm2/G6jWr0dHRgdKSUgSDQbS2tWHl8hVYvnSpYTrDQ0P5sssKKMbsuthrPdTOkSEnEuPoXFKPlas6UF9XhQMHjuGJJ/ZgeDTNQBEybT2V4o8CZTo6jrq6CqxduxTXrVuJNeuWYOvWVfjEJ96Lm25chdNd+xGLjaOyqhKHjp7C6e5haudBU75gMEWNfTEWdDRj3/5DOHqil+UNsiTOtOLl0jxfHx7EgBNML1LbhBXXbUAqm8LJg3uRGB9GMP8AKeHxoW3ZaixcshTnuk/j3LHD8KdiphROWnMriUJJuHnhp8AO+IIIeMN0IZ6H6RdG0DmSjrJA/f4Iy+gnLXOo9vmxobkFS0JlaMz50FhVhcamBiyicrGSwmlNbTPWNS7AovpG5NIZTEanzcq5DPPUMz6JV62kvH7zZmzcsJGKhReRSASnTp3CyVMnzZTdHCviwoWLq4bCIJVyaSyi+TBynVJImzWau6bBqPkm4gnEp2OYmJgwCwxSiaR5R0e7GNgvtl4MBQ3eCaMK610Trz+EqekMDh3pwYlTQzh9Zgj7D5zCwOCkmZYzYT20YWhZeL1BjIym8PDD2/Hc87sN57/h+pW48871qK0N4qc/fRhf+8YP8MLLBzE8FkcgWAJ9HkLCzubnRZR5DQ9HedRGq6xjXjhcKSgfbdjqoWCJjw0iOT6EHE04yWYzFcgwfhI3NT2Gif6zSE2M8IY2frX3Lq0kTivJtOM562cd6abl2TlahFk/rRg/fNolQn7OPcVilHQijun4NKbTcSRSFKFs65JEGpWkT9V0CuWxFEriGQSTWXi1EwP/qBdQGMmqlNXjwcGDB9lm+2mZjiGRTCAYsgtFXLhwce3B87nPfS734INfN89jruamp4JhqHlmIutHW7moNNoGRhxMfM+8S0JhImGkbxelUmSo8jOxLg4xQdk40uSlV3s809Skp1FelqMGn8PEeBbRaIh5lJLh+c30lWJpWsinf9lJWmVptLVVo6amDNNkpv39IxgYiFPYACUlQDjsQSzuJS2ZTlYvqHoplGIoK0uae9FYmsKIDDVXwZKELCNnHpcqCorh1DtFiydHKyMbDCFNemXiUQTSCQRyes6SRdofRDZcqodYlEEJ5KajiPCeEbumHEpL5XizshQofaEzB5K1orRaxggReujl4UoqD40ULg28W5Zf7p7K9zuR2bQSyz/FNIZYvhHGmwh4kGQYlU3pSsirf8hy/tCHPoT3v/8D+OY3v0Fl4WGjxMi5cOFiPkM8w/IbbXrqu/nmbZ/ft2/f/JiaI0wZyJQ0RSeLyLgULaNEwrgkLSJZRfqcgZ6HOMLrzUpuWZ6FqT7jpdIUDtEcJqdy1Kq1g0IJ7+kZj4WJw7RzZNReX4gE82FoKIrT3UPo65vCVFQpUgJ5IkwrQCGkT1iQ/fI6l5MQ5X0KvlSaeUTToHFHPwopXImpOQvFVj6GbHqQRSHjoaXhy6YRpACyzF1TjLSNeM+bisOfTlFA8Z7is24mfj6tuaM4tO1Q5zkJnplzHnh08qBoxBTzH6WgGaZwGmFHHOO5nPxGdE5lYYrKR9xH+rFyUkYUV+3m99n9+LRo4catN6K+oQFPPfUUzp07Z7N34cLFPEcx/6DSqtVGhpGLk11lWKYvxsXykNHYpdr25UVz7jj55f3nXm6mm+eLFlqQEGFelfSqJtsrp6Xi57neslGaNl0ThacZvZCaoRDxVsMXaGL+TQxST+HEeJkSHmmN5KroV4VMltYHlXKlk2Wa2Vwpy8p4dB6UsswSRE65Zwp0WbBl1UmOoo0izpM1uymEpGWwED76SxhJLOrrqCGd06I0L73y53xKwuKtleXimCkltLfFJAXMsN+HvgBdMID+kB99dOeCPvQEvegNeTEU8tES8lIQqYzsqKyHsbJYXlnBWrJ900034eZtN+PYsaNmxw1BK+fshKMLFy6uFRhBJBgBMA/gCBaVxzAVcXTD1QtO/uZevszFrPQNoYAmsP5pOshPIaJPDlBw0Eoh22a6EobGVlBAQnmwLCyXpuySmQASqSCS6SA1ck3hUdBoBwZN5zGdTFZb95CmEpKacmI+aeaRZjwtYJA1JAvrEkr9JrDlk/Wh50Q5bdVES8FLYSQhJH8xbz2h0feHvLQ0NbWpzUbtRqZFZLkk2HytuzBUTbMTQ74cEnz6BIR2047STfr9mKBAmmQf1HEiwGsKpwm/l/c8iFEI2Y9q5FuM1qWmY7V0+1Of+lX81m/9FnrO9uC73/0uBgcH2TVsHi5cuLi2QN4khp6/mqcwjJJlLGYxEkKXqvkqdMHlf0zYOPOT4JBdYQWIZZ/F4SkItUeOTIy806KGHMWQcR4yea9dpq3CmngSrHpC71yb/28PRB8JHbuC0D6bMXmKVkWNrHDO0XEWhbO3ClvXC8HmKNrqKGGoZ0nmu1A6yk8/kZoJOCqBzs33iFiPqqoqdHYuxu7du/E3X/wbWkTHzFSd8HbS14ULF28PzGKFr371a1f9C60Xg8MaVaqZkjmehBjUpUGRnUhOqobV0YmZyTn+5IbGOfcF59wJ4zgHzn0njI6zURz+yqE4pwvlYO87ZTsfloFf+XI5uTmpG+FelL3az7mvEx3NbePviCsLWcta9eij9VRdU2MW2MiZKV36u0LIhYtrBc6ot4sVzM4KeTYwL1FcOocpGeaVd5eO4khKbUbnzjvdd5zg3C/GhdJwnBO2OMw7g9kln43C/df/3i7MLo+hFj0c51BLR7Wn8SvyF3hpnN4fkv2ZSqfR39+P2DSVJ1p/EkLurgouXFy7EOe8ZmCY1Sx3+bhQSmJ3jhWk84uFcZwwO4wTzkFx+OJ4VwsXKo/j3h6cn7qd8HRc4e6F/IvvEmba0TrtNyjhY98lYxz6uXDh4trENSWIipnSDHO6onh7UnVxPi7WfhfzvxBev8egCxcurlVcU4LoyuJCLG+2ZVPMGmeHdTA7zMXCvVUUl+vtQHH6s907gZ/1/Fy4cHExvCsF0YVZkK5EDjmXOb0b4Lby+Zhv9FB5ZjsXbwyzc4xZNWvP59vis4thXgsiZ9mx44Qr0Smt3ZJ/GmHSVl7n52cxO5e3mnMxnLTmmp4ttXVzQXH6c8mnkLZDkzfGXNN/s/sOnPzl5hL+rYJ1fEfzu1Q4ZSp2bx35xfHmNxuixDuJ88fa6+G0TrG7VvBmdbvSkNDRy/5mp/9shk6v5WgrsyvTb95uzEtB5DSglpOLuNrSRUcNnuLGvVwSa/mw3USTaTEPr1efnsjRZeDn0c/rd4Ywc6lBcZjijv3GcUUm8x7wTJTiuMVw0tF960R3Oed9pLcXF6vf2w+9PyaoBMWlcK6L/X4WMFOv4vXzRZD3O9kC2hnljT7xbsozy70RLnZb/rPd2wmNG/Gsd0oIKD99+kXfbtNrONoWTbuPCO+kMHwrMJ+B2LNnr/nu/9WWno4W4bycmNYu2ySoIWw6Zcr3Rh13LjCslukoLQm3TDrJukfpG6XfJO/zPKe8FFrlcJix3JVqVCe9YncxFN938n+jOPae6OT369PcEt56sO/EmR3PXts7shGlSWln7hSyokP+7pXrGzYn6wTnaFrGnl5RFOfnOOZEIWQsInuZR+F+MRzfC9+9MGbHmYubGy4Us+Au9rMohMn/GSeY2QGNC/5mXiqmv3P/SkPjXDzHafPCdl1FfeAimb+d5XqrcHiY9sF0+NXr6nUFIR6WIH/UBtGbNm3Ctpu3Ydst27Bq1SqcOdNN3ileJh729uR/+Si0oOg1rwSRA2dH7ZLSUlRUVqKyqgrlFRWmfIlU0rxLYnYrIC61xHZ42WOWwq2qIoQbt67CPXdvws3blmPbtvVobKpFX/8gYnFpFdoEtTgXNaiuLzVnB05cOStwLS7WUYrzKc672L8YrBnppE1s4wntDJ7WbkMWjK5OeX5Me2W3z8kwbBq337EF733vLfB5MhgaGmRbaDBpHz6hOLZ8nHI7/rOPglNuodhfmH0tFKd5ofuXAieNWWkVJ8vzYrZrNO/8fR2KVZFiXOy6+DhX93rMTB4bZ3Hx0A6K0yx2VtBYyhZbgs5R99nIRgiZ7Z/knw/ghLsSUP+TYqRvSL3vgfdh/Yb16O4+a764PJthmjJcwDkovjaxeOH4zfaf7XS40lD5Ne4WLVqEX/j5XzDCQRvx2imyKysMlJ7f7zN8W7vQ/8qvfBK/8Ru/iTvuvAPr169HdVU1tm/fjiitJPOuHfnp/EKhBeadIFL+aryFCxdiw8ZN2LBpo3Fr163DipUrsKhzMapqaxCnBiAT1JLWES0Xg+46zob20+LKpBNoqCvDr37yg/jlf/YArt+8FIsXt2LVyuVkyF7s3nMM4xNJlomCSAOT0S1TsGnYXyHl893sn+Nnhnne2alGe89hOIU0CnCudHRYoiPAbGjnJ4KY3TGyWTQ0VuFuCpOO9iYMDvSbAQIJE3VIMiInVZsGNSsf71EQhYLAz/3c/bj/gTswONSLQ4eOkB4sqz5sd15ntmW2sOWw7ny2bc+KwxXDuXbCF8d13FuFTbPw0+ZNNmVzNFk49LAldRi2PE04Xjhx8gHfFApmgzpnF3HKjEc79pwyFuWXh3PH8bOhzw8jzPizzDoqHQNZgHk3+41he2pTP6+u/C8rqdAz3xrUf/x+v9lF/5Ztt+D3/uXvUdEZwquvvmru2e5l/s3k+EbOgc4VK09Kg8Ip/+dpWwznqvjoOKf+F3NC8bkDH8eevhRQVlaGT37yk1i7di127dqNkZFh89mSK/l5Egk37RMqWq5etRp/+Id/KF98+9vfNu7pZ57GWQp486FIU1JL1/mDAvXU9jP99GrCMjirxZeUlGDDhg1061FTU2Oso/HxCUyT4JW11VhL/403XI+K6mpkGc10YBN7btCA19AKeFPYcN1CbLlhCcZGTuDBr3wRf/6fv4B/92dfwLe+9WOMjk4xrAQGicSBWzwci11+9BT5WWYx26mQmiHz0LrwUSD4mLYhvnmQQ40pH+68OIQ6nGqocusrp/qMucplN059fRxjKGaTuPnGdRSw9+C6ta0I+FLMS1oZC2ECmgk4FYmwadtRzBLxMDoyiJ6eLkxMDpnpuUzOfm6jGCaZvJuhgSe/OzqPErb5DHhuaVJAIS0blfcZx9ZNu6LPpHxF4KQkAa0W9ZN+ATpSM78ZrMKIEerrrkVlk2MBtUmswonR6KhCm36XT3gm/VlObMc60ftCjuFIe4fZmzSZl9mMdoYeetYgJcDeV8o25oVT13WW9ZBTe/vYDOq/6mOqn/NRRt3Xz5miVL/Rs1EpadqvkF6mfqZcxr01qOyaptJ41ri+6z13UVufxuOPP0FrKG6Yqsn0zaB0WD77DFM0UZ0LbZDNt4uTkvxnNvctcs49nZowdEYIy0P9hOmYvqHwGqNsF0eFNH4MNhvKW9ZJV1cXfvTDH6G9vR233nqrqZvpR+xzVwqGj9GlyTNra2tREimBPufzzW9+E08++aQ51wcjBYdG8xlXjjJXAOpcYmT66ubOnTvxk5/8BN/73vfy7vt4+tln0T84iJa2ViynhRSOhNn4IrKG0sWgO/au+a6QBnZOD+MzaF9QyQZM4uWXnsWPf/gqnn+mi+4oDu7vQzymLpcfHPpjNhIi0M7cpqfnmYZ+xk9MOGDKbxm7va94OfN1Ut2nOKCQiCcmadFNIJNJshzq3IpvimhhBo5hmSwvO3EmjWQihmR8kuUaRyo5zRgcLKZja0jYMiqs8k3zftAX54AZQi41BH8uydzFqGyZjGI2M1oV32O2z9Exlczhe999BP/5P/53PPn4diSTZFYMV/w1XFNn/kz3EU3NZ8CzSMZYvugYEqybJ5sy1NPmpTP5iCZ02i9OzraHpXE8Pk3GNIkEj2la5/oelaNBFvK7dFgWKiYgq4+WMNOMJVOIJpKYTqaR1hdgDR3FgElz0d7Jj7eMhck2SrD+k1SG4tq93GHWLCfv2vZWLjx41J6KyoY3TJ5JZ3g/y7TVAhnVXXRgePkxNePvlCGX95tOZTART2KKZYyllZZyyoMZKC85nRuGrGlVhpAw8eWTS7HfRBP6Cm7KeNh2UhSdKz9VkT9ep1iuqVjC1HGa9UorfbWvykZn6HEZMMocnfqQ+no6ncF1111nlM29e/ag69Qp0y6zrQXV1TgzgOzHHUVXFSPGOk1NR9mOCcmHmTxsm4keyo80I00UwKlB4T/7AmmmvmGuZ8qofilLQ7vqK58EEukU28mMHPOcOhaP5cvKdlMBTQoW5gNv+fH/4ksvmmm5e+6+GwsWLDD9WfW8UrBlZh1IlLLycvgDfjNLpLJp2lMC0WnjawHzoqR2IEtj0ofqotixYweFw0vULE7TGhon853G1MQ4jh4+gjPUNsTWGxsaKEQihrGqMxS6gwPHx3Rn4xQ2aZ6dJNkxUjSXyQI8KWPeplJZ+pUwnL4ZVM7g+maQHYgSdhpAiQQ7pSxdgckbzYwdQslnyDiS8RQ1FDtoyNHoFC/NOMpbX5OdRiCQREN9CA0NJfD7qZOmrdYicaRhoZKaa2nEWTIu5ikhUlsVQltrOdqaylBZyoGbiZm4VgtmlhxECfPRwDjzIoPMxRCQQ0xSxPgnOYi08EOfUjBMV2XPx9UgUh2lRPWcmcDhA+cwPJhiWmGGK/5YYN5JUOZdkhqtn4K9qbHMCPemxlKmnyBNVD6FL7SPGTwmTopCjwxPX4vN2GnSRR0NqKmOsEAJxs/ATxllW8CJfelw6ClGMB0n4yKTCVVVIVxTh2BVDTKBCJk16WO+4k4lhTmaHcHp/Kx3mn1mmrTJhEOI1DbAEymlYNBHGSkuZFWQyWfUxoqe78eplD7oyPozniN05DxkUgqjNojRpelpBBT9lE+SAifJvpJmGf0VlYg0NiFEbTcbDiOqPBWeJVSX11HXGZbTsFOmIWsjzXRVnhTLFywrRRnjB8sroF6UyUgzl3XFOqqezNt8tDHGsvhYv5p6hGvrgdJSTLPcEk6ivkJfbgsYgSAhwrGtepeXlWHLli2GSb722mtGa1efsIqJ8rPQmVa2MjZpwr5Cl6RgjbOO/pIIKhvqESovM4pBgmMua7aatyXV0BNDTqWTLL6jKOTTNn3eWhIZOoWV7SOhq7ZIkP6TiQxSvgDKGxsRIO2mmVacsbxk7pW1dfAEQqSNklG8AmWUjxYpaBpudHSU9duFBe0LsHnTZuNn+n5+zL1VWLqKZ3pn0jbP1vN0FN+5luD57Gc/m3vwQe2+TQ2alSruDFcDTv6mwdh51czqVPJNc2CvWL0at9DcnaCAepom6ODAgGEfRV0tD+uj9GT1axC0tDTjjttvR1tLAwK+EaxYWoJWMvdz5wZw6uQEpmO1CATrceToSTz+1FMYmxhjGtQwwkHcefutaGX8l195FQcPHSeTsZ1Kq+6WLl6IW2+5BSMjI3ju+ecxPjlpOmR5eSnuYn4VHDAvvvgM6urLccedN2LR4jYjsA4dPIEnnngJx4+d40Aj7cn4JPSk0ebYqbRYYPXqTtywZS3WrF2MmppydrAs+vuHsWv3ETz/wm4MDk1QeGTIO5T27Vi+rBUBzxgWLyxBZ3s56TOGE6emMBWPIJUr4WD24elntuPgwSMUyhzU/oARQKtWLcdNWzejuqoMWQlHEvPVHa/hlZ17WTYxMDI8Te3kKashb6VyCmvXLcHNN6/HypWLWOcIFYckDh8+jRdZvoMHT5KuZBSilWmgHNatXYEbb7wee3bvQF9fN27ZtpWDdR3KK0oxJBo+9xK2b38NExMqR4j5ShQrphW6c4HKKDjavjdcgsUr12DF2rWoa2xAqKTUWCeTo2PoOnoEh3btwtTwkBH6UiQ0sMXks2Q+S9evw9I16xivCbGpSezZ8Sq6TxzDxnXrzDeedu3YiejkOMtJhuv3Y/3m61FbX4e9+/ah5/Rp+3FClYMKQFPbAmy4/gaMj01gNxlxbHKC99hPeb+6vhGLV61GY3s7ympqEaGmqzRH2ceP7d+HY/v2IMXwAU2p0V9xVFGVddPmG1Db0IhX2T/10cA1mzZiGesaKS0zisKJQ0exi/emRgYRNLyYgoFl95eUY/m6DVjG+tUwvjTs8dFhHDt4AAdZvjQVwKCxSGQRO1rYpUHjREpblFaMrKHPfOYzbNsJ/Pmf/7n5npTyFOPUWFW7qZvkyIuSFDItpMV61u3M2bM4fqoL123ciOWrVqKUAkIWwJF9B7D7pVcQGx8zn7pkUhRAabRzTK5i+wwNDmLPzp2U2BQ6dBL4fvaFjWqjOrbR7j04193NPpLF4mXLsWj5CvQOjaC9sxMLOxdyfA3hySeeQFlJCW668UZUV1Sg+8wZPPf4YxgfGjC09JpxYBUOx6KKUXm+44478NnPfBb7D+zHf/qP/wlTU/oAvvTCy6OjA9FTiqOsnknymo9//OP403/7p/ju976Lv/x//tJYbjacMwrmI2Za2tRl3q2aUxnknE7JE+Ocsumz0NIyolNRnOYgj+vzFYpj7haj4KOoqXQMzS3VuPeebdi8YQkWtJSgphII+lIUNAE0NjWYKb/2RW2YTkxjLwe+BjTFH6oqgviFn7sH27atxslTR3D8xBkyqQAHEDXmVBRrVnfgl37pA6iuDpP57MHEpKyVNOqo5f/cJ+6jBriY5nkJ7rxzIzoW1lDTj6GxMYI1azoo3OrQxXoMD0+woNRsyOKRS6MknME979mIT/3q+3DrbatRWpJFNDbCe3EsXtyCtWuXM84gTpzoQiyRRhmZ+HvvvpmDZQWFawj1NUCY1lco6EddQxOaW1tYv0Y0NNbg6LHDOH3mtGHEmq5RR1izZine894bsGJFA4VZA68XUUCfwcEDR0j+IGksTdoOOE1riHmSVVCIrMFv/PoHsfXGZRwY1PTjI6iuiWDjxlWky2KMjgzhbHcP49KqEr1oyW3dugq/8PN30zIENm2UEL8OkVCC2nIWS5c0USguxPTUOLpOkc4cUznzfdnXt/AbwbFWxfwRCmP9rXfhlg9+HE1LV1DDJbON04oJhlHX2o6OJcvQ19uHoYE+w1T8eghMgR8oK8fWu+/H1vs+gKoFHYyXoxVVjbalK1HR1oEVW29CBa2kY0eOIhadovyi1cI0b2T4pRtuQFdPP/rOnTNfzJW9GyNjre9cilvf91FEKqtx5MgRJGJRWl8SlBFsuuMu3Hjv+0za0xSJcZbTS0FR1dRKAbUWJbSSBvsHkYqyz2tYkCSmRVi/G+68FwvXb8VAnMrL1ptx/V33wl/biEyEFnRzK9oWLcYZMtyB3nMIkMnHaQlVNC3Azfd9EDfc84DJc5KkSngDqG1eQIa82uR39uwZJFk3vWenlri0VrDQlLSYr6zSm268CbdTOdO3pJ5++hmjsGls2+muolFLP01Jtq5Yg5se+DBQWY+6zuVYef2NtNgqaKGWo7y5A+3LViBGhaq35yw8tES1GEJTi4vWbcSt7/8wYkz2AIVqlpZ3gH1WAsdLmmwjnZdt2orjXV1U1noplD3oXLseN9//ftQtXY5cWSU8dHXtS9DM9u5YtQ6+ilrj37l6HeKJBM6eOsn+ks4rGnY2Q3xLCn2awkDTdBupELS0tFApexHDI8OXrew7cSwftOd69qTZDS2KuJFC8uDBg3jppZdmhZ2vKJRN5Z2Xy7cFR7iYEplGziFMrWTZiuVkrA3o6TmHM2TgmoqQef162Lo4ddL0bCw2iYP79+CpJx7B8888SkvFh5bmBl4/jS/93bfw8CNP4tHHnsRLL7+CkbFJRibzzKZQEsqaVXXVNR7soDZ8/ESfSsO0/TSHJ9DeVkaGSqY7eg6vvPIaLaIEmVIWleUBaoBtaF8QpKXgwcsvvoCvPfgNPPzQT9DdfRxtrVXoaG/m+TmcPEmrKO03L8LlMlHcsHkJfuWT97GuQTz+5MP48lcfxHe//1M89fRztFR2UBOKYmBwlEy+n0JPD4HTOHr0IAf3T/D4oz8is0mio62JFtwu/J8vfRM/evgxPPr403icdT15sgsJszRdz2eMekxrbgCvvvocLbTvw++dooCsNprcvn0nyECCDCKrSMxCFiYHAAV756JG/PIv34fFSyrx5JOP4O++/CDr9pgZdJpekzXX1FiLI4dPYHhU72hpuWmUwqYOK1fVMX45piYH8c2vfx3/9E/fxyscRJlsnIKQFkFZCfbvsysX4ZFVxHKahr5gY78O6j9igDEKj6q2diNMMuU1ePSJp/DUIz/Fqy+9gF07d+DQ/v0YpdY72HcOE7QWxFj0wF7TMUs2b8GWe96HYRbh0ceewNPUgnfufA1ZWpELVq2Bh+kNDI3iCJWWFC0lad2ZUAna1m5CoLIWBw8fxci5HoSpWKgHT5NphBta0L5mE0Ynp3B4315kaCX4ZWmSgVbUNeA0BeLjTz2Nl7Zvxz6W7zVapd1n+1BHYbJg8TLSawoDPd3sI7KYc1STqCr5g2hauQ7+xgUoa2xFsKwC21982SwEkAW/j/kM9/dhmGVJUivP0TT1kJlvvef9uO6WO3CSwu0HP/4xnn3qKbz26k4qW10oqarEkjVrMEnL5dyZU+bZk74AfDkcQsxXgiYYCFJZei/7xWo8/9zzZmrO3tPMxWxBZKfJKhcsRs2SNaho6SDdw/jxj3+Cp598Gjt278P4dBLNCxeitKoKJ48eRmJs3Cxp1tRp7aLlaCRNemhNqn086TgtuywVSArFUARtazbAU9OAA+zjI/09FMxAVWsHBdh1OHauF//4T9/D4WMnUNuyALUU0vvYlt/75rdwqn8IbYuXmnyOHdjLbh6nIKKiwf5ma8Cis+xirprd2LhxE1auXIF9smiPHTNj53IEkfiYFnuoT4tKJn3SVNNxt992O/PZaB9pvPyyyV/j5FoSRCrxvIUKaJqMBM3wvIla/YKODrPK5uzZbmMNmQrx/utJ7jS27sjKCiKZ9GOgP46uk+M4cXwCE+MKE6EASeJMVwpnTuneCDWkKBkm44n5GWigaFpK+qemKOz8rJxJ3SMhHqc/LSidKwY7oX0pNAZ/IIVdr72K73/vRRw+NE7hAQ6m43j15YPmGUMbraJI2A70dDqJqqoIbrxpHSqrgxQ8T+Bbf/8sXtszjnP9Ppw9B+zY2Ue/x6n97EMiIQ1MwsuLof5J1mMcp06lMThErSxXhslpL7rO5HCiK0Z/3usao8WmlVUBlpXx+FN/jUZT6D4zhq4Tk2R2HFhkPD4frQO/6mgtIUtLCQRdpbB67WK0L2ygwNqDH/3oBezfO07Lwo9DB6bwT//4GBnNq7RCK7F6TTvCFOYeT9YoBLRTaK2BTG4YP/zhw3j6mS7SJIs9eybwyE9eoSV0GjXVetZUy6xmhjczVf5yc4CsPYbV9JWPTNdXWoZuMvkTO3ZiqusUQuOj8A33Y+Tofrz21CPoO3mE9KdwpuafzFB7rqhAy6rVSAZDpPcunCCDTp7rw/TZs3jxpz/F0QOHzJRfiumbJQuG+bB0ags5CW75aa5IEPlMl5QfmaHp0/RiJFmYWVpG+198Hi8+9CP07HwFqbOnkO2lNXK2Cydf2I5XyLgTFOQ17YuQCoXMYgI9oZAqoSnEOBPzso7+klI8+/TTeO3Rn2CQjHLi6AH07H4Vrz32CIa7TiLAcBm65oVLKUzXo5cK12MUsGepYOX6aLkOnsPZ3Tvw0jNPY4iMvXPtOkTqG2mdmZ4yV+qfBzFEae7hcNis8IrHExgZpXXPxOwIN4SZBTu+aBQhSystRkmxnUrYObZDuoeC4/hx7HvpRfSyTfyllSil9ZdSPoxHcWNGqdaKpk0fVxnYG0gnUxZmnKHCF6dfgu2UIYNXmCyPGZbzCC2odPcpDB09hGHSRFOApw8fRoYCuffYUQwPjyBUUgYEI0zfWkLFddDY18KEZCKJkeFhYxnV1dWZvN+qcNA0pnZR0HNt0UdTndetv85Ym1ocIX9jnakzXkOYt4LIdB4OWGkBejDc2NSENRwUmhc9evSomVsW8U2zviHRTUp0PlY2RIujAqFwHQLBUnbIANMOkGFE4NUD4kAlAoFahik3YUUeDT0RSdqnupwaWU5wGltd20smqwfsplvKn51RixU83gxSyTitkDOYotbs9VRQM6xHIhaiUNR0DlBdVYoA81eqmVSMVhrN/0XNDD9GZn6EJv0kfP5yugaWsYXlb2aHK6Hw8JMG5OgcYFp9FgqW01Wz4wdZijAHcRhZTyl8AdYtWIVAuBHBEJk76+th3Z1lraqHrDufr9Q8M9Lyco5KOhbO1NHW03YXMRVaDYEc2tvr2R5eCvUu9PVF2VY1jN/MdKrJIGK0hPQJ7xQWLapHSYkoyQFK2ukZmDS7M2d6qX1TmfCWwB9uYZqNHLhZ82woQI0zENDAlc7vCKO5wxnwaTIWvQQtoVBWXkGLoQGBUACZ+DRy8SiCmSRKybYCFD5+MRBGS1KjDlVUoaKpFdPJDPpoeWcYtpRhqtXGY8MY6Ooy82KBQMgsNrBM2tJT5DLPRdR/eTQwfcL2HZXNvHGfF1KKHeR5lmUCXWkoiJryctTSKmmpr6dCUsX2TiKaJN3LymicSvxI0IqlWoYt4eYJ+KiInED/4f3w0QKopSJRx/5XyzKXphMI6dkBndcfQtuS5WbBxj620dihI8iR2Wa0IkyLXcR4T5xALy3F8voGlNTUkqmrzBSiqtwlwhknQdarsrKS3SpjFiVJoxctLsY0TRuSLoFgAONk6H0UPppeq/PlUE4FKTsxQit2GOzciJRXzpTMxFO6eWXA0l3L4G1exol6vKeepbZTK8hakeWXi7FvkF7+bBI+9g+JKU+SbcN8fak4rWZad8Ew9biA9B2TgnXKVgqJZg385p2iickJc11VWWXSv1yY/sTy61n3tm3b8Pk/+zz+7M/+zDwbWrCgHQ8//LB5H8vMVrAfGxpcQ8iPkvkD2yUs1LSaW9Z7B5tp4rZQGB2neXvo4EFqG9QPRex8J7b/3wjqfPZDambrIHYmu2pJ+r4HKZ5znPMetSIyYfOejhyhwa4zw0T0U8c2Px11X7+8xnVeQdghqR1rMcHkRAqJpISqXb2UTHmoaVHjI28wq8M0XjQwqV83NGg3iVIMDY3hXG+cna8EmTQZHq0eFh8pqsOZrF60DTG8VrTJwknTTCfD5cjS4LCrCTXoWCfVi3FSzFPnpm6E/W+hwSKtNUenVW16y0ZHJsGAqmW+qygSBWxVVRnqG6spZMmoz02Yqb50zmcWXYBCPJX0Ynho0tSpuqqEDFvPoqSv2jJlWf7JqQziST0Cp2aZibCeAToyZJZRgopROKAKVuilQKvVZEVLsEyJiZ05jaaGBrzvox/Dez/+May/8y50rFlHTbreLmbgL8D2Fd2yrHdpRQ1CkXJEJyYRHx1GOJdEIBcng4/R6E0iPj6ODIWDWl5QvWb6CZ2Ooqkl4PkwJJS/aM4G0zLvlI5kbMvWrcf9n/gF/OLv/Ev86h/+CX7l9/8VfvfTf4R7P/QBRCqohasPkskpEZufTV8MKM0xMdzbjXR8EiEyUb+YKcsaYH+3QlZUZHgStoa00DPCmuoaLLvpNmx87/24ge7699yLTfe9H+tuvQNBMs8c8wqXlTBP5iQGp4wvA2oPvaweDkcMXSRYDXkuAt0yQ1Dl5lUmNgVvYhoB0t+fmqZAoLBIRikwUhQe9r08jT0xYI1DUUfd1gp+jVQHOlNr8z/DW2fvKqyfhdJ6Wb07pgeUlHcmjBk47Jg5KpUengdIb6X7Rr1SinKC1p+yLKUCIUGuhUG2X1waVDbxLlk8ra1tuJnCaPPmzeaZuVZo7t27l8pgn6Gx0ncF0VuEmsg0EwmpPZTUgJtI8PaFHTjb3U0hdMjMkxtGy7+5kbvQ8BqKGXZuMQATmZ3JvlDIe7zWgLEwN+2pIH/maTq7yGaYNCWIjUR/MYWiODMHCQ+a6UkGI/NVN7eWmDqlBreaIG8lMHGfN4uSiI9Wk577aEk4y6pnNLn8QgaBean4xUXNZ0c/CRJTG+WsgwlLiUtXFMfAhivAOVdNOHjNy6Wqp/V1wptVLqx6KGg15DjL6NSFcow+rFuG7WdWpmt5qc+ENwOESZjUqaGmU5YuaQr+LGmp1DNp1pdjXqzCvHahBRKKp6QuBaou44X9zGdqAjueehJHd+5ACbXrjRzEH/jkr+Djv/V/4SO/9ttYffPtlOmlFKKKxkyZsY/au4+DWtYfElH4yNg95n2sDIIa5Co4nVdtr58Z+HQzdeQ/El7tIT9bJIW1dRFjkbeu0mybHDXs67bdjvt/4ZexcstNSAQiODU4iq6+fpzsPo2+wT4ytpTpFz51FsY0wo/pGAZKTV4PzVO0NNhp7HMnlk1MlHoDnS2LhJ4WmydJ5AxvLFu2DB96/wfxvg9+GPd+5KPGPUBhfe9992FBQxNKKbQipKH6lOlHbwGa9lLfcbR7uTeCpRrroGCpBLy0SH3a/5Dt4KeC4mPbeMnsZV1qelrJWcrYtte5zUN9WMRWWrw2dSm0hZz+myP9afgYWEVTjh7SABkvyzY378gxyQKzL6RSDPNMh1qmwmk67a1AQkjQ9Objjz+GP/7jT+Pzn/88vvGNrxt6/vqv/7p5N0uCSgs2nMUf1wo01Ocd7BQAUE4zfiOF0LLly9DT04OXX3nFSP00NRIzqMzvcmBj2e7D85kRpkGiBtd1IWWTjwkshqNOrU6rDmbNfbY7Ozjj5B9K26CWOc04xZHgYjytHpPw0yZwYtrWQmGHZ9JyGWp5WnWnhQvSvMSU7Ts7DGbKxjJ6xTVVVltOU0YNNkFpE7rUIDar3ExOWXMsxJldT4L1Y0l1oisL1XkGNrzqmWN9za4TzMSQhcxPA8aUSlWlIJN1qTgqi8pnyshszRQdz43QNPTXcza2q6QQGZZiid+qKrNKMyeolGaKgi5IJjBw/Age+/a38J2//SK+9w//gCefew79k1FUL16OWz/y80YYBWgBaUrFlpfloVLg1/QgC6xa2R6nMuVLIwuW6avNbI7mLv/b+0YI5f3lK/o7gtjcYjqaZkuQmTYvWobNd9yDmC+E7z70CP72K1/BN77yZXzzq1/Gdx78Ml594Xnzwq8sX+kuTlkEta7ZzYICTbtEiPS2FdXapiGsj8lbsWzdMqT1jldfxde/+hV89ct/h7/74t/gK1/+W3z5i/8vvk73XZ7/4MEHcfboMXY39ha1lUnr8pBIxM3zXZFP022FGlwYJif1GR30nxVQ3WXp2jElwSKhxrrR37xATH87gm2/FC8RlJacGLSXNDdKBn1MOiaERkO+RKKlpqdtJza+ti1VHL2zpLHHkMrT+PJIAZY/yx/ZDpRWsgADtHQ1FSm+9WbC980gnqBtkfbt3YcXX3wRX/va1/HC9u1oamoye8zJIpLAn+mj1whsK80DOGRTx1FHKykrxfU3XI/lK5bjXG+vWWEzNjpKjTBgnAhu5t/N4Jg7lI9lFXTq0Lw2jN7cFZRewSmE2KLRsKheev0MLeHADqGjVs+UloRYHlsWRxhYpquunoc5YVoUOgrhsCiNSmcomLqwQ09ORBGPxVFZUY7qKqbtJzthp5aG5fex/tSedbRJ2nKaVORBJ2XI7JTAexIUAXJ0CTQ9NLWMNj+4GNbIQELjzDAu5p+g9ikhJ61P04aqo6Z+jMDJ/6amohgfHTf+tbWVZgl8IEjBSQajd2n81NwrqsTYfZggw9eqPjs45EiXPBNX8W17iH1YZ0OpTcQ8mZsc/S4Fhsakp1hxmJlUU80NRYcxdGgf9j3xJH76rW/jH776ILbrHZRAKWoWLQVKy5EyNKMlmpw2L1sGgkH4y0tZd5WHJSKTEmkjJaXwh4NIsw6inWVErAkPcmorPRPRFKNW4cmJFqFICZmp39TU0F/9hGFrWhbAX1WLfceO4cTuHUgM9MAfHUFgehKe6RjKQiVkaiXkbpaBqm7KUXnZyjJ3JmiYMp0JQ3qbW/mj6SBUmDQZOkWhJpoOD/bi7J5X0b1/B92rOP3aC+jeuR19u1+mewndu15FbHDATFeJAiadS4RWxYkBS1sfHh42Y7e6utqMddX/YkzTVE1EYt1EW2caUzUQ8XyUSl5JJlMuOY1Re6VGkUKn63wnM22h9vMHwvCyXbXgQ0mb3E3FGDNPK+Wr+joEtkUkVXnMh8i78+HUJ0XLSZZJZUWF6Uda4CAB8VYhRU/PcfWsvLS0lP00gf6BfqatdwlL8zR96/m801AzzRuos6Y1/0pmtmrVaixebN990Eui3WfPmqk6dWY9H0rqLXkS/2Kd+I2gSpuKsx9ZJmcZnjq1jhY6ykkI6SFhCiEy25ISvQAaRzoTZ2eLURhlUdtQi0hphGVR17XxbWw7PGxnPr/r2lD24bisFtsQPKEW1nduGKNDY6ivqURHRxPTTSCtOXFpY+RgyXgGsWntDqH0nSZUyrYugtk9gQkHKRzSqZxZwWPmp8kUrJBUFIYtqq+ZLstYIaO8VFeVTPROscMbS40F0A4B09NpamZaLhvAggUtbLMQ20bz/jnEYlNUFoCWlloOei+Ghkfpp+3oaUEqK6ZtWADLoGtZl9LcVRsDtqmho2EyTv0uFUyB7WEs53QSyegYgulp1LO9mph/QyaFycMH0LVvP6LsS9oxIclBrJc81R7Tk5OYmpg0AqdKD+tTtI74k9IiRamsqhI+bTGlYhpJpDzZV9gm6it+CTAqDCnSXG0hRqEFBVV19ciREaZlqRiBkS9rgMKJkl/vFeWiEyjPTKPBlzaLDMpZhrbWdtJYz4iCFPRajCIRm6eXga2v+qpRdsh8Dcs2gkdHW0QxYlnbg/39RjguXdSB0poyWo1TaPQl0OyNo5nH+mwUVYlJVLOkZeyk5kVfKmL6XQ4kyLX6TCu7ZCFo9ZxjrVwIpnsapzqyb6hOukHYXqHxSuUoTwdzT1KH7SdVK8s20BY/UiQ8VB7VrlJxook0Sqpq6FgzJs3ubgSloZ9JjWnYwcH088qSruz8pvHXtZyFDWuEXR5S+PR+VFlpGRoaGwzPGqCwuAxWdUGovxnFOJ+grEyNO9H1cvjhfMDljvIrDjWjtiXRAF61Zg1WrlmN8alJHDxyGBPRKWqSEYRLImQMctIOZRVY7f6Swcayw1TTLXp46DBoc9MEsWB39wTIdFO0ygbYYbXTwUK0tpYhnTzHAd2DDdd14IbrV7E8Wq1CBqu0mY5hgHJK3zgxA2VgWY8D46/wzFYPj/2BMvT2TmDXrsOGadx7961MfwkZvhYE9LIsPSzrGFYsazUr6yQIBTNlSKhDCpNTU2ZLlAULW9CxsIza+DiZ6SDj91MgTTGcM2et+tqBrIfgel7TPziKaTKN1auXYOmSClpTI6z7EJ1WAGl5KPMhB9auCSPD49iwfiU2bVyEoH+KAvIsB+IobtiyDJs3r+T1NA4cOIHotOKxvUgfQ/cchRbILFR/5m2Yie4Zjdd+CylnHnBY2thaCSrvm0NlNFoxaVpZ34QFy1bAQ8YwSktzcppuapqCpBQNTY3ULgOIJalYkCZZMpsAGdf06BiGuntQEopgxbr1CNU0YCiWw2Aii8aly9GxehVyFPJanj0z/SMmwDxjFCTaoqll8XJEGtownCFNU0BN53K0r7kOGWqzSQZVzUV5UWR6Omqs2NYF7Sipr0eUFuQYy6hNklZs3GxeotT2RL5ACKEAlR4xYRJG1pmEoeKKn1o60o/9gD685s8IJV7TT7MAfo6zM0eOoPfUSSxbshhbbtlmGLPoEo0lME1mnaXV1tLRgaWrVhrLTnHVdpcLKUUSxsePHzf7tWmH/VIKWI07CYDXgV6FesAuLOLR9gOFt5STQNY4ldVn+g7pIPVpfGSYfZgCta0dNUuWI0p69cYp/hsasfbmbSilIFRapi8ro3w6qqbSNSeE/ufVJnPuKHEzioCiEo4AcMaflA8JodaWVgwODOLUqS6OQbuU/EpC+eldIsFLRcaW70rn8vbDd/vtt1/1F1pFODFSadtNLc1Yu3EDSivKzQBramnBylWrzCany1eswDK6VRRSrW2tmKSA0lY/6g1vPvcqjdFqjRIQXl8MmzYsJqNtx+EjJ3Dg8FkkUyEGUzdWQzIcwyqOLCDKQaxc0YplyzrQ2dmIJZ1NuP226/GeOzdykE0gTKY0ODSJV3cex/hkhgw9g/JyH7bcsArVVWH6H8SZsxMcWNqM0E8LYxrLlzXh+uvX0rIYxis7jmBiitl7Q2bl2sTYMM36ENatW4nrrlvBPJuxZEkLy7wMD7zvVrz//e8x00fHjp6gQKTG6qOWrA5IMmgz1VxuGkuWNlOYLMOKlXKLcf2W67D5+usYL4Yx0s3Mg5sBKGhxgObEaW0mJ9HYWM18l2P12qVYtboTN928GQs72802RpOT04ahTU+Oo6zEi7VrO036C9qasWJ5K+66azM+8P7b0FBfgSef0EuyB8kUgsyihLSMYtnSely/eRV6+3rwys6TtEhIZ2/QWFyRcBI33bQCdQ3V2LFzD06dHqAFEiEjUNkI08xvNNBsP1B3UJ/Q+zWLyMTv+egvoH3tRtQs6ETD4qVoWb4Ka26+BatuuJ5hUtj94vMYOnMKAVpPWimlPd/0Zn9dc7PZlaC2sQUVNY1oX70W17/nPfDTSspRKCSmJnB6/16kxkcRJCOUeI+Tlk2MU9e+EHVNzUyjDStv2IpVN25DnNaQv6wc8fERWmO7QLMLPvaVjC+MClo9yquBeVY1NKG1cxmu23YHlmzcgjMUjGn2x0r2s55DBxAl7TTlqCXIaWrCi9asRw3HStfRgxjqOo6A2XTWsEqHJIRYvmxPD8dODFrzV9+yAAtXrEbzoiWobmpFQ+cKLFy3GStZ1pvuvQ9ldXUcH0cQ51gr7i2XBttezgP05csokDvazQvTg/relX555jlTVAr3BP3Km9ux+LpNZoeOkwf2IBefQpgKSob1jnMcLV6/CdWk74nD+zB4+ihCem7KeFEqVBWtC9HCelWxDWpa2tCxYiWuv/M9CFRXmxeWI+EQusj7on19VIJzpAH5AfnLoUOHMHj2jLHiFq9dZ3amOLT7NUz0nqXywTG5eYv51MOenTuQnBiDeicHNvkFqcu8xWM0lX7brbfhtttvw7PPPovnnnuWlZKgvLxZnNeDopDlE99ewTJrSbdea3nxxZfM3avFy+eOQvlEsxlBJKl6NQuvvNUXS8rLUKfNBqmFqSNoQz+ZnDoGqUmGeIzQGhKz7u/tpSCi9qn4RRW7MPKCyITTtBUbcCWZEvM6sP8Ejh7rQSotQSStRRaMhqxlZuxXHAj98FFbbqOgXLZ0MVZTGLa1tWHnzlfwyssvorq2icw9jV17KIimpIt6UF4Rxpo1y2gtBfHaa4fQ0ztJphpk3jTdU9PoaK/H0qWdONc3iJ27joIKMPMPshPr4eYUTnedQpxCo76xDmvWraIQ2YANG9fQIqtHT89ZbN/+Eo8DjCQhJBZhB7O0z0kKibEJbSniQ119HYVIBxYvXmi2R9LOCqe79B6WmeAwdRXEEPSZAFkxQ0MDxspbsKCZTKMNS5ctQYBM9OCB4xganICfgkMbl57t6aYCkTRLSjdQgdiwYS2F9UKzUe2TT27Hj370HDXCGK0tKhZmiiVudmRYtmwx4/bhtd0nMRVjKciItUVOMJCm4FuE0vJK3juMrtMjLFUJnZlwIX1sHS8OWxdpumo7bU7piVSgonkB6shoFixdgUUrV2LJ2rWoosba238OLz/zBE7tfBVeWd7shHpPRHHHx0hDuvLKKizqXIKVFEIdS5bi7CDLfeAQahua4UkkcGLPbqTIkLQHnGg/Oj6GJBmT9m5buHARabec5004ePQIduzajbqaKuQmRnHu0H7NASLAPCenqRxMRKm8lKOtncx38TIqXasRKavAvoMH8PzTTyESoJVVSavu9CmMku5aki1lPsP+soDlE83OHDmA8bNd8Ge19YxDDf3P00V9Xy3NPIepqQ8MDcHDcdVCy2HpilVYtJz9a8kyRMise8n8d+/aiXNnTpsySkCbNrgMmEUCHM+anquprTEbn+p50f79+01ZbPmcnsgz03ZZlMuaXdSJsf5enD58gPSeNisCNT2a87F/UtBUsqxnKIhGuk8gZHoZjBIxbOhZaaySJUuXoGNhO5XECTz11BNm37na0hJ0H9yH6EAvc4ZRGjraJdQOGkEUIAE7FncyjQp07d+H8f4++AMBrFi1AmG2xYFdO5ChIqEdGwRZb6qjntuoHT/xiU+YKchvfOMbOHv2rBmejsC9EtAzR0376RHGzTffDG159swzT1urkDxTNLU8/crleeXgtLSlieff/Jt/m/vWt76FaQ4EEfFKEupSoYaUAIpUVJiXMO10AAcPR5stl+2oemcgm85QS4uahtC7KnOFtBWxbA4JtDSX0lqJkFEOY3A4RvO/lDmoAe10kUIZDVLz7NkJlIXTtExaUN9Qw4Hiw+DgOE6c6GGYaXZ2zQV70EumO03LSg/2Q/4kFrSUozScQ3//GEbGNZUS4T29iBpFdaWX8Wo4OKPo7iHzSpezimGNWvg9tGrS46RHCi3tdbQM683DSHUsbXTY1XUOw0PTVCBYXloMhe/4qI4qPeuTmTJ71DU0lKOsXC+2hml1BHCuRwxWX7rVI2gz+29gLEXWVTsfpFOTqKjI0MqpQUkpzUFvGNqzsefcOKJT2juNw11TWWky71CGgq4FzaSB38/YVGpE065TA6ybHvDqlVEKS81h56Kor/ajraka42TYZ/vZhrlKFjpMAZChgJtku4RRXhZBX98oy6kpJwoxClozTz9HRmjamLRKsO8ktLCjrAqlFAYlZEwharXqW7F4HENkQtMUuiHmXaL+x6NXjI5xk+wrUaZUWt+MJlorJZEyxGkxnTp+BD5aDx/+5K8iOzGJR7/xZcR7uhCh5awxNM0ixkjr2o5O1NQ3mIfqoyPDGOjuQorMo4p+QT23Yt5+MlYt29euCVNZH8K0tOpbW2mBl2hAYHxoBEP9/dBnQEIUYHrRNTsxgdToIBlgyrx3HKeyEaxthLesEgnSNDPcj6AEEetQGO4WmgY0D/1NK3sxxb5IU48WH62GqhoqBLTWyaSnpsbZv3qRHB1GCWki+kjwGSGWT+tS4AgiLVrRFj9/+qf/1uysr81A9bBd1rh5/siwSl9TbbIAvRW1CFY3IBVPYHp0AH594kQrGhlK5S9tbIevvA5TQ30U7mxHWkRaFJCgQjfFPldR14wGKknBkJ/tPYme7tNIkH5l1TXs35WIMV52kjTL+RAoqzYboY6QfnHWn/YGyuua4KMiM0mBnaWikqWlU9NEWvM4KMGUSti9BFk/lVv1UL223rgVn//8vzPbK33hC1/ABPuJ+qPqeCUgfijlXBup3nTTTfgP/+E/mOdvf/Hnf2H2kdR97TDu7OU3/+C0tJQi8ojPfOYzua9//ZsURNNXVRCpWCKY5rr1cp/DbqwVU4ApPssoEeHnPVtmUx0b4E2g1Ex67Dz6BISYqdLT1JBml62oc9KyYcXYvZopzsSRzSQNl5NGpmHpZ4fU4JaJrIfrvkApmQOFiUqk7w3lEvadB612ytIZi0vp6rmUdpfWN4nEZJW/9lQjY2D2GvB+5sshRXpM88ouWdcAlDDVtJrXQwuOzAsst54nWfZrcmahOTDEqLIxelBYGyaum34OlhLWl3nRylBZLO3yHYJnlj56l15LbTXNJ+YlvkhrzW+Fnp4RCbI8VBct3shpskfPdZiVXoiVpeZlPuYBOkNleY/shTRhOA0Q1ZKWUNrQSwoC49JiyqZlGurhq/xl7dExH1FD/+cCSwnlaRlanFElWLT7MqtjaM6EjRjWlFqI9/SmlvkIGv2Un4SVtvBJsl3TqgNv6W16De661dfh/f/8N5Ckhi1BNH32FEooiPwmniY4qZ4wgvY201SsycvH9A0zTpmepqm1gKEfa8b0tZpOG6OmGDbDNNTOQbqQysp6JLLsr0xcipjpraYKzIP3tY+dpiFD7I9KV71B7vUQ/difmYdy1gINbQIrGjntZJ81WIEcZPnCGoMsl7GmeD63FjgfGmNy0uLlPvWpT+EDH/gAvvg3X8RDDz1k0jTLohVO5/xntkIiY9cGrWrPkN5nkoBlH9LUsNooRQES5xjQWAmzj+vTHCQcx5ne+GJISmptE6TnjVmOQy1A0CINVV/l8Xtt+4P91bzPxjJ4GdZHa0jfAdM7XrKxgsw7wLJoZ+8Uy6Dnbtoc12x4auhphZCZWWJbffrTn8Ytt9yCv/zLv8TTTz9thIYEpNrrSsDwQOan8uqF/z/5kz/Bpk2bzOstk5NTOH26C1/60peM1amVlFdKAF45sPFMS6tfkMJ33HHn5/VWbvoqPiMSlLOcGITz/oxxJLZ/tlMHYLh8PUyHnDvygVVXMlQxSk2HmWkj595MaZwz/hdD8YXIiPWWeQReHr0Baq2M70HYLDKQn5i7icVyaXWZn4zW59Xb5BRCZqDrtlIVgwoxTVlIYrhiTawT75mime7NEwpID5m/11fCtGjV+JgPj14KE8VRHbSmSTGsE8QsrLDykZn7/WUsgxYsKD6tKpOXra9I6MA2P/NnXSWYPSy7zYvxlAbrp6lLS3A6dnDD8kRHhWU5fZ4S5kHamHpJ2PE+w5so4iaM49P0owQa6601TqYMHNh2hRLvKx2mYQWl0lc58419SWCmjCJhqS10wjyWsAylTLKUnEPncmJEPpM3A0tgq6yKLWbDvEMUINK0SxQvKLrxWFOPpevWI5OM4fjeXUhPjlorxDBrpkcXIUMvpYUYMflQSJA1SntW/hIWtPkNQ7WkURyqIswrQqd4Kpueh2gqSi9yhlmHEP20+NuKDEsVepn6lTAORXa+Zc+Hrs93+ilPpcm4poy2nBGWo5TlK6G/0pNw5mm+f1weHN4iIaS95vTxyyWLl5hnLdodW+8YGWFlQtnwZmEFo4VJD6eNzEo23uct8y/AgoUZyJRTTuXkLdFEwikkuvsppHgM0zPC8H4yZdVZ6Wq0sjlYR6sUBJmWep15UZl5hPw+I9yVt960Fm2NH/mPmcLN5yWI4UtQrVixEh/60AfNTtgPPfSwmarTPfMS/RWCpacVRjIi9FVYzQ5paXxpaZnh53rPSKtlzcwSw84vqPwWRgH+3Of+zHyPaF5YRPZ0TiQrDnt5JVYKGv5OWk5KBR+d2wFrz+RvO4BhWfkGLoR24jsMwoQnB3ZS0Ls50uoLqbILk+mbUxNHHXUmpvlvU+M587UdntcmX9upnRBOPAsb1wgA59z8z4fjCHN+BdhzWzInVeXIK93Kx7F37DREIe18+mIe+XNbRhteR/20qqlAD+vsHZumLYPyFGtwID/n6JzPHcU5mXrMSsPUgX82dVtaBzPxdCTTMfXzBzGRyqJ+9Xp88Nd+23yf6Adf/RImu08hoi11KDSkLTv1VJyCFqyUbA42Lzp5ESqbk7v1csIVoPQMlRjAKWs+uu3J+svfE86PWwhbDPLnfEqCWsKBclMvY575iMXpXQnoGatWv+pldWcJsgOnrJZKFrpbuNLRUkHOOXP8BeeegTnk4zpJ0E/PooxCZQRcPmw+gK4KZ/pvaVIMJ4aOTvllobQ0t6CX1okW9xRCvX3QikTtbh6OhA1NtWpPU/gq0/yzhgRR0lDNWqHGb57AFmtuuJSwF4fTUYudg8K5PbMMU1qNlmlr6sJqpQ4DdY42nAWPYuCOMz6Wuc/kTO3TCicnvoUNa/+bfJivBovynZ2XPZvt+DP5Ms6My/uZ32yoYxSGnb2vfPJxZ3xnxyz4q3wz9FG8mZ8NYd/RKqa4/W99dM/Sxrl7vrt82BTEUF/v7AuMjns9CvesM9RnERPTE+g7dQTDZ04C8Rg1ZpuPaq6jwqh3mClcJz9ezziTt1O2fPh8OLMzd97NxM1fF8prUTgW7tnr18PJq9gpX5tPIf8ZZ9JkoLcBmnY83XUahw8dhj7KWSyEBOfKobvjrN+F79trS397XhSX9ZlxxX4Kxz57fnidW9hz61+4LjjBOVolFWbngz179lAIaeftd4bFSghJMdYzo/6+fvPtI30gb34Koddj3lhE1yLU7eZOLdtJz8fcYl9aPpeL4vJdPDej5fOoEIUhPxcU4hVgr6z/3PK/WnDYSZZjJK5nP4EwIlXVFEAeJLVyk9aQT+9mSUHRPNYMB399rV2QKpqi1bOorNXYdV2wHK9t6FmR805PWs+O32aIdg70DM/B/BZCzrggF2G7vzPi+mcU7xR7mXds7DILdLFo865+F8CMpkxBo012Aqk4Ev19iPX3w5vUx9HIRDW2pMwpLM+t40CbOX+9kyVizk0u7x6I+ejBvhZ+ONc/K1Cd9LmG9DsghATRznHK23HXElxB9I7BsLFZbj5hruXifTLXSy+/E6fYFeNi/vMDTsn0AF0LEbQMo4xCp4yar104b0PY0lOyGPfmcELNLfTPFswztyIN/mcFV7NeTt7XEl1lObqCyMUlY36KincKHOQyYQg9BzPPwyiY5CP5bB7+X4Zz4eLdCglNVxC5uCSIZzru3QkjcsyZ7B+tBHR+zh37aLv4+s2dCxfvZriCyIWLOaEgeh0xY30KYtk5uxznwsW7GdecIHK1yGsNxS02H1vuUst1ofA/y+KkuL6z630t4Vov/8825qUgUlfRm8jaYcFsCaLlkLyW01093JJzu5SL+QCXxblw8dYwLwWRdEutgU+mkmYZZDyRMOdakmj0Tr1zkA/nQpjNAotZY7ErxsX854LiuG8W32mpYjcf4JS9uFyXWh+L1/tcC3Dq+mauuHaOK74/G8X35uqEC/m9dXhmflJunXSvXPpzL3NxuDdzF8Ls+7Ovr23MG0Fklhzyp7eDk6kUklqD7/UiGA6jtLzMfAxPn+ZOUCAl0vpoGoXRNbRE8Z3DO9U555rPhRjZfIMtk1OjuVLPCVf8PpCgg3PvZwOij91l4/W48jW9UikWp2MU26Q2Gb6a7ys5PaPYvTkuLfS1iXm1s4KZbmMZ9I0gfThL3/IoKytHSYk2Dc1hfHwCZ3t6cPLUSbOHkxpGe19r+ast99Ur+zuH2d3RqXNxd5WTvwZdMU2K417Iv/j+bCj87DjSYy7k7xyde8XlcOIJxfHeHMUpXwiXlpqTjrN9kRYfFOtlVosuTtXJ1/HR0Zzzhk3BnjjLGC4PTi4XwltJ92K4WJrFtS2eBi8u3xuV9UK4eF62DRw46RaXYW5wWs2mKWgaP4NgyIdQyE8+px30ffTzFFlIMyHN8e2BSqYyzaaZMzZ0x94rhHmj8hTfs+Fnpyy8nTV6a1Bpbb31Iu68sIgc4aej9mZatmwZNm3aTGHUgTJaQ7KMfIEAmltbcePNN+GWW29FU3OziaMN84wAM1fvFqi2xc42qD1Xk8o5/m8kjHTPuV8ct9hpA1LHFeflpC04aeoo54TX3sZKw7lfDCfspcHEYtZ6X0f7u2kbfrMVf97PbuJ5vpt9TzAsgQNAO6o5E712Pz5bMwubgv2v8HJKZ8bH/py08xHPT2O+QWUXVMICE3y9K+4bQr6uvPbM7P4tZ1O093TUfefebKd7zn2lIVfwg0efV9B7WVIOCilfKmw7aLdrOgqbqdgUOpcuwEc/fi/q6st5L4ugXx/90OfWqcpq4+FLhlMuh1YOnWbD+hfqeaFwDm2UzvkwqTMr8xl0Or2zZsEj6WRDFNK2zpbOcdcCfLfddvW/0Fqcr77rrq8LDgwN4uDBg9i3fz8OHjhoPlcsv3AkgpaWFvYzDwYHB80zJGk2F27gn0WIVg5zlzNd1dDQLurQh6Dlq07qdHALhZHVa/em0j05QQtB9J0Y3SMtjaMvwxYWiRTT13Z+wYTzMU89t5NAMOnYa8Uzmz5qAM1EV45zGfgKZ53D4kyaKr/j8nnomaGuFWwmG0oD5yfM9DEe1F/0JVXVt1grdjbBZGD+Y5r68VxpGzqQvh7Rlw76xpCTdpEzMPGdnN8MxbHl8nQtcgUU+77+7lzhxNKeeIX2zvcN7ZOnv7xfniD8WXqYK3Pf+lvo6NxTPHt0/J20ip3ysuHVjqRn3s+yUhPL/CxmWvVNYXJU/mwrferf6/dgOj6JddctwdabrsPevfsxNjpNHhNhSKcfMv0ZBj9XOPWzsPUo1G+mnhpTorOpg61ZAaytKas55Z3z0xTUT5WOxrO9wzRNH1Ro3dMY47U5t87ZaNXGu3C6QnGZL4XGVwbF5aEyOR8EkQPlry85jo6O4FxPj9nFVrvJTsemEZ2OYmh4yDCPRlpDYgr6VHiU99WHrm7J30mopsW1lSZJDVJz4OkkMpkkm1X7TGnDQ9u5TAz+0yDXhwe16MNo9/RzOmlW+1OlEkhnE0xDTmkljL/axAoUdmwTTwSXsxpZOk1NlvkrTCajr7syfjZl02SZtPuA7fAaIMVlf6POb8vl/DSVksnmkNLXN+mScswzQT99llsfvNNQldBQqlbw2XPtgJ3OZAxFdEymlU6GcfThOkNBBnUsPksn8/yRaSlNpa1PjqcYOJWxnx9P89zEYzjxbnNqfcxZcS0vhkINmZWhj5xJMu+Kr537Yh62XpcDJmWc/rP6TEcKBGnL+sgZP17LiX6sXT6GjlZQkBzGiYPqWjA0K7pH1pJ31l/toc/Zs8mYhy2/zYd9ht1VR/u5e1tCm+qlwImhjwqyb7DfpdgX1az6lP3iZW1YvKQVu3btw+jINMvAtkyxb7JAkoOKd+mwZTV0Eb3oRC+NkYz5Gh//1MF4bcaN6SjqL6q/8rP7wyme/bBloQ5KST9tCiva2bvyt3nlzEf8eK70mYT97IjGn9pR6SoHhld/sYnOwCiMpr/rnD0837eU7zuH4lKxnPNt923TVGbkifHlScNrtbMWMCzq7MS2W29BIhbDC89tRx8FluKoC1/dkr9TMBTKO9abAiGbS6GuvhK33LLFaFAvvPAizp7to2DQ9IPV3LPZNEpKw7jp5q1obKzFzh2v4eSJ08ikcgiFgqhvqMTatYuxZs0K1NbWwO/3GQFz9OgpprcDx453c0D7mY6YBwWTjww6nUBNTQVuv2MbYlQUXtj+PCrLy3D77bdi5arlTDeE/sFhPP30C9REjyCVtC3l9LE3bi9bR8k7MWl9mh3hMKqohLR2LkbHwk6UlZQwhNf03bPdXTiwdxdG+/sQZPp+xdPAZD/qWLYULR0dOHLiBMYnprD2uuvIlJZSW/ZifGwEe1/bibMnjsNDAcoKslwSMjauNxBEx+KlWLF6DRppiYth5DjQB6gEHT9yCD1dp5CcnoDXfDRNos6yi9fXzbaXxfl3DZMSw7AcUT75YzEsPUQ6jQ/T7vpS6AXDXhiG+sxHn9YvLa3AsuVrSLsETp06g2bSdemSJeZz9FJKz/Z049ixQ7w/aYaiyigGV1lRg0WLOpEkrbq6TiCZjLH/ZQxdxAQ72juZVov5bHVf3zmGS6Ourg6dCxdjdHgMJSVl6Fy0BCkKisOHDmJ0bAyrVq1CQ30jpqJT2L17B4ZG+1nHjEl3rvUTGxafUJ+MlIexZOlCTEyO4lxfDwYHJ/DAB7figQduw//+6y/hxOEh1FbXY2HHYiTiKZw6qU9ri/7+fN+cO01NPASwfOly1FTX4NCBw4bJr127DjW1tSa9ifFxHDq8j4p0P+lkYplPNKj/LVm8HCWRcpxmPxoZG6LgVP+jskhtp6aqFsuWrqIyHiWtj7FdYkw7iJUrr2Mb+jE5MY3l7Nvl5SU4c+YMjh45ioULF2LpMkvfI8eOcNweYj9JsWcW01L8gPRle/o4zqVoqk9pNsoIxncEIoSlteEn88kimgHLYYpJbUAE00efNAUnbb6puckQWx/SOnXyBKKTU2xcG/7dgeKakiH5xLzIWMr8+OCH78Ctt21Cb+9pMpfTJGCAwigAfc48mZjG4s5mfOpTH8fKFa3Yf2A3+s4NUHNLkwlU4nd/++fx8Y/dhvb2UgqTHKqrvGhpLsHG9UuxccNK0jtK4XbOMCN9qlpf9syQGTU3V+BXf/XDaGqKIJ0Yxi/+4vtwz903oLkpiLoGH9ZRuElYHdh3gANy2gz28+twcSiUnPJLsO1rKUzu+/lfxLKtNyFcT6s4UgFfeTWqWtqxhAO/YUErRkZGMTEybjVIRo4zhc4N1+P6u+5FuqQSyzbfhKUbtiBY24Ty5nY0kCk2LFxEJjGCiaERmC+AMl6a/1IUQhtvuR13vP+DaFi6DNmycnjpwtXVaF+6GPWtzTh95hSmxkYNg7F70DnDXecXOjqQcNVBigStvETSMO1U3pmVo8bpOjPjkklanGwzLxUBI6VNbiYhuovDCWGUTVp1tdWN2Lb1LlSVNqKuug0b1t6Axvo2VJbVo6GmFa2NbaaNBynY02KabIM0y9JM/9u2vYd9pJbMs5vKhb4+yoSl2Ge8WLdmEzZetwWTYxMYHOg3DLWtZRE2r9+KRW1Lme4iVFU0obmuHc317Whv6cTCtiVUKmrQynB+XwDnes4aRqpPdtv6vTmM/GBYsnBUVEXw4Y/eg3sf2IZVaztRWePH4qWNaFtQg0RyCps3r8OHPnwfbrt1C2kvZesYx4GsAtNrTDoXh+4LNowsk2CghPXbgnUrNtFs9mET67+oYyXKwrWoq2pFe+tiNLC/9Z3tpcI2zTpSyWM7hoKluJltsHzJWta5l4J6wFhw+tx+hnRraezAe26/H5FgBU4dP2nGW9AfwdZNt2H1io2k23K2YxPq6ZobFqCxthVLO1ehqrwetVVNjL8AQ4ODGBsfscrETL2k0ORwxx134Jd/+Zcp2FZR0J1CjMq9nbWYG83fGhw6CvNsaq4YIpo6v9/vR5CadVlFBZYuXYJ1162nZl+K48eO49zZHtOgptTzqOzvJGQRSAxPTw+hqgpYs5pCOjaGw4e7EIuLqdKKoSD3IIabb1qDW7atwaGDr+KJJ15CLEotiQykrCyMhoYK7Nv7Er7/vX/Aoz/5CZ5+8klsf/5ZDA+do1bWQS1rMbq7z6KXwksCzusJkMkk0djAgbFlEQeEDyuXtzOvOB5+6Ed4+OEf4JlnHsehQ4cxNDRO7foMolH1MWewn99ejs/rfWVfeMw0XElVNQK0uHbuP4gnn3waL730Cl57bRe1zSOYzqSxYNlyVFXXoZ+DOjE5yTLmEPf60bBsFWoWLUNpUxtGpqbxGOv2+NNPYz/jZfwB1C5oNwOw59QppDkYg2QUU2S6TUtX4OZ770cmUoYnn38BDz/6E1qH27Frxw50nzmN8dFhDJzrQTIapQBjOTl+rS1UGPCza+RAtZISoWXFFVWlWL9pJVaupkBd3oIly1qwWI7nS3mUW7K0BZ1LmrFsxUJU15Yb5iIlLS/N8u7imAklRkOrtrK0HovbV6KmsokMswrHjx7H7l07cfTgESSm02Ru9bxXg/7+XmreE/nh5UEVBdXSjlVkih50nTxpLCItMpD1mcv4sXDBcgqbTlqM/bSKznB8ZgyzXNS+nHZDiLTbi4P7D6M0XI62xnYKsjSee/ZZnKJ1XlVewz5cjX4KsImJUTJPaecF9vlGMFYz28BPKyORiuNE12FaW31oba3B1pvWoq2jAv5gjLRdSIHUyn58Do8++hheevFVTEeTzGbmo+F0b5SjQ2fbzua5Ia2TzgUr0FzbjuqKOozQ8nuFffMgadnbM0BaV6Ohrpl0jVPgdBurR9CH3ZcvXoeKkjqcOHaUbTpIIcV0pZykvWyDNizpXIvoRJJK93EqBDEEfBEsXbSWykML2+wkx+kzFG4xdLRR4JbWYN+efXj26WfZxj60tS7E5OQ4us+epOVDRYIWtD/gN8Kwg0rd7//B72P9+vVYvWq1eexx9OhR1s7S8e2HQ0dBE8TzCGag0FkLx4P6xgZsu/VW3Hfffbj/vnuxZetWBEjI/fv20Qw9Yl509VFQ5UfJuxLqMl5aPelUDiePH8fUxBA6F7XQQikjjyLjp+acYQesrIxgBRla0J9kuMO0JCeMduyn1j82HsP3vv84vvOdpzmAenH44DQO7ovhpefH8PffeBY7Xt2B6soAOtvrGJ85mo7KQZvzIkB12I8EmUoVErEpfOfvv0th9hKFWB9e3D6C73/3Vfzge0/TUpG2pWWz+ULPtHYBxVd2ekvPHCxrD7Kdx6mdb3/4Iex54lEMHNyDiVMcvF1HcWb3K3jmpz/F2b4RVDS1o6yhmYqpz6w20mRZgsw3F45gPBHH888/gzM7X0Ky+yQGXnsZh3a+guh0AtUUUv6KKqRYRltODyKV1fCVVeJ07wCOvfoqYt2nke7txdTpszj8wivY+eSzmBgY4qDXyk3LNN8YM5U3kOKXoEVRW1+FT/z83fjN/+t+/Pa/vBe/8/s60v3effb69+7B7/zLu/Fb/+K9+L/+4IP40MduQUWlmKYV0nNhHE7OYusK76WCEkAEJdSwz50+SYv1FfT0HEXPueMUFK9RmPegPFSOBgoRH4W5clILaYUZVUMEqIzo5zyB0HMhCUUvmbI/S0ucjN08QtR9+vuY3/jIBLpOnaBlfRwD/T20QpLo6+3GmTPHcJbtMTY0jBJaF6XhSqPozO4fbwbRU+WgDoGzp4cpaLbjf/71/8EjP/0hhdMoQqVpjE/14ysP/h2++KWvsY/uptCIUhkTFS8VtodqmtZ8GiTnIy3LkZiKY+eOF1jHI6zjcRw+tBNHjuxHltZsY10bIqEyoxiqyaREBjh2A6QnqcYRZdmxHSNaeBRk2gHrSA8pEWo3vy9ECzqOk13HcK73tJmWTifjVBjGceLEYfQNnGL+XcjRypPA9zJlZ8d4lVvPxvRKTHk5yxtPUOB7zPSp+IHe47wamFeCyNA/7zRTGggEUF9fb+ava0mosrIy87B5ghradDyWH4DOEHk3gkPBPLNh7ckguk6exdHDx9DWXI9lSzpQEgkyTBZaQNC+oBGrqE2PDfczTI+ZChL5qENSq83S8olifCyDJDVd0b2sPMzOGaIA8JopA7+XwqwihHBQc+l6ziOnfDUIc0hTKdj+/EvYv3+QQrGEnZoDwFvKQVeKiUkKA/P45dJbyXzpktE0E5Xh4JseHUUuOg0/85S1HCkJI1RWglg6hVEygWywFJ6SCiQYKU0BYT9dzj5CzbWPWnDs9CmE0tOo9lM7zMYx2tuDOC2a0soq+GlpZ5mR0cHJ0Qx70nO2YAk8oVJgOgl/IoVSpldJGoRojfu0alNz7Ipj3MVQfF8pq+3Yx/0+85zque1P4SePfg8P/+Qf8dDDdDrOuH8wx588+l38+KF/ohb/LC1gMlA9qFZKRhF7o7wtZkIwuISEn8wuwXS6u49TGA+RzlHeiGJyagDjEyMsW5jtzXqzrRVZTF5C2kttW4yzsIzdAQWOBBWFkE/Mzwh1lo/RpVymSKssaZ7BNPuDrKws/abZxlSYcgmk4lEyZh+1fvZbpq10C2nPFWSmZMDBYAX7TBmtcA+t/UbSK4bDh08gFC5FaUU5JujvC5SzDHpHUdaQwwrnmCPro+qL9KKC6uvN0qruOYvR8QFTR48/xtEXxfBov3m8UFbKMrFuouNM3ZiImdMwtGRfN/S0dJXQN0KEdNS1wqsva1FQOpMkDaeYXobHSdI1zXpk6B9nw6YwHZtg/8oiHIoYYWfSY2H1PEhCSOV8Yft2jncqprRsX9j+gp3yVYWuAuaXICIN5CSE1BZ9/f14/PHH8f3vfx8PP/wTaho72Un9uGHLFqxevZqdjY3KVp1p1HcVbGcVJJAD1CRp5ODA/pPUNDNYuWIJaqvLOSjjpBOwYsViCpYq7Nt3AKdPjzBSCTt1kHTjwPcHUFNdiW3btuB3fvuf47Of+9f4v//vP8F//S//P/zX//oHuO+em1FeFkYkEoaXzN9o1aK4h/9Jf2mv0akUzp0dNw9/M9kwB0QJB1/EnGuwe706akA5eH2rOVdOzTT0tBpP1obpGxyAlXUN2LD1FnzwF/85fvF3fg+/8Lu/j3/2e3+AX/qN30HrwkW0AJkH66Ow6t16fkHdnEInZz7pnY1NI0hNPJCIIZJNwpdKIBmnAOMAVf4SXFp1GKBAmhwYxFj/INraFuHOj3wC1z/wfnSuW4eqmhr4OWA9ZC7UU0UGwrKQ2XV6PRje/JgX4/tYwJHhETz0w8fwrQefwte+/Dwe/PKzPD6Hr31lO89fwFe+8iLdC3jwwe346t89jMcefZH0TpPBs55mCCu1S4eeM2lqLZacIuNMstYJpL0JZHwUGHqnR+lKiqhOams50ke5iamZNuG59As72WRLInaqO/brtHoGxmsvz5lDjgpNFnGkc2SYWpBg8qHdymZLZ1MmAb+mu/izk85zg0N19Uc9g2FBqRBlcNu2rdiwfhO2b9+HL/7Nkzh6dAB33XkvFnVSOLEvUFowlhi1+qYt91xgQ1rBIYgeWq03TqskTYGQyv8yrJ9mJDSNap7nShgwipXtjhUtOlk6zrxCYFBcHh5FRx71DCmnz9IzPtkhIYUrbVYJpnPMk+fmXSwJLQbQ9OFMKuzn4ptS5r/y1a/gz/7sc/gv/+W/YP+B/Sb81fq8uHrZvIBD8mInE3JkZJhm5lmcPHEcr+54Bbv37CZzzaBz0SLU1dYylAI73eHdhDyVNNjZEWXG53IRnOsZpXUzis6FC1BXTQ0/PYWqijAWLWzhwIyjq4sWAC0LD8NT1TfPecrLvPjoR96DP/iDf473ve9WtLRWkqGTIeWm2AZT1LimTTg7/eQMHj1/smXwUsuLTqcohNSJOTJoRdCE4ICh4PKGeK7RUtRC+XjFcHwKdyxjt46aM/OuaGzGHe//EN77sV/A4vWbEalpQMrrxxQZznQqZUomZ95rkiAiOK6NMPKR6fvpPBxoAaalL6zaF2ELrFxCQdG0Wivky2G8txuvPfsU+k8dp5XZhPs+9BH83G/+Fn7hX/wL3PGxj6Fh8VIkOdD10qRSMIxXmb4JnFqJeUm7lQv6SxD0BRCiBWoceWOIZAvyKEcjlUeGo4arh+N+syJS+RYodklgvRVPCxHSZGBZLy3HvMvRGWtS4SiIlIv+FdfOVFk+ps70J93sO0i2dvau4+inWyYMPYxQUv+xoWwazFsCyfibzC4LeqdGgixH7X5J50Lc/d57cHDfSWx/+hjOnkrj4R+8TIkXxL3vuRe1tVWMwfZn/1SpndLODQqfdzoQhomTBnrxVPQwR97LcOzoVQbRXK8SWIEj59SdwQwxNLVo/QytZspSXCZ7bpQztRDDinKO5a/0TXyfEhDd82oB/QWNC1lnwRDHbHQSu3fvxrFjx0y4q4mrm/tFMEM0No6kuaaKtGBBq4lOnz6DwaFBVFZUmmk7834Lg9uGfLdBrEIWAzUu0syDIM509ePEsS40kjYrl7WToYXQ2tKApUsWYWhwhJ2ul4JInTTCfkomk01gyw2rcM8917NjduNrX/8/tIb+M/7jf/gv+Pzn/xs+85m/wWM/fRGxKDVYLafVAJC2RaeBYn+8xdHF/k1oKkHTd2oPhTN3dWNOMKE1SPPnWo4ubTLHPrB66w1YsHYtjvX141v/+E/48t/8Db7+xS/i21/8f/Hdr34VZ06dNBqfnObttehKXUnpsECSMLxg2aSOspxaEm42F+EtKxoIZs4qUkjxTiqGE7tfxE+++UU88o/fxNNPPYHDZ3uQqKrG4ltvx60/9wtoXL4SWQoQcQ61hsr+ZlB55AxTYN2am5rwy//sl/CH/+r38ek/+lf49Kf/EH/0r/8Q//qP/uWM+6M/+n384R/+C/zxH/8hPvaxD6K0TKJUBDe1u2yYspA2ts1EF40n0Zztqj6l+og+CqO7PEo0GTqrfQ1DZBQTVuNVzxnoYX11MgP1kdcTiOnSz6ZuMjJB5kLH8+HkZdPRmFizZrmxih764VMY6Y+jxF+BI/v68OSj29FMpaattZH1TKhSqomNPkeoW5t38fLXOjF9zfQxWwF7Tz3L0sZxysmei9YShFYhcfquoDDq93omrn4ii10KklNMh0fqvz1TbmoZe3wjAirv/BlKSkoQiejl3qsL9bx5A0NCEkmffzDvO5DCmr5Qg6ghxJQkzc36d2m9plHzLfOug9MFDfszg9zjCWNsPI5Dh07xOo3VqzrQ2lSK9WsXoqm+EgcPUivsGWOHLiWtw0gn06goD2Htmg6UlmTx/HOP46Ef78LhQ5PoH8hhdBSIUf6UlFUZDcrvE6NRK9l8HY1MQikrR287PtQqvE8/p3zWKS6dGSRyF4cGVH6sGWsoXFWB+o6FmKI1vP3FF9H92g6kzp2Gf2wQnskxCtQ0rQpNlOmBrh2OphxMxGqZhVIodYlRI0o1KM8rj+La+H6kUUJG5RnqwYkXn8Sz3/k6/uHLX8K3v/MdHDjdjUhbBxqWrkAmQMvSiZsv88VgymBoJudBkoxS7yq1tDVj4aIWLOxsQceiVixc3IpFnQW3cJHuN5ljU0sdfH6VkGNCB5OnU/43hkMDOcuQ8k7n+Wvn5UwHZpzl89D4kxPjCOSnwDg4FctMiWmaN5963s0GaWSeHSkFJ4y0djvNZbORn/qQxYVSuRhMzIyeo/jMIpu/+9I3cLZrjIpFBbyZUgRQipee34evffk7ONfdW3h3xulslwBbepZaUemMcOGpUzPBhilmszYf9UsJnTT7syArXm1p+q6CcDCFwhFTD12bfEzc/HgybVRMw8J/qyrovnwcYWnzdaB8hGg0apZt211Visv5zuLq5TwLIouIJyGTTqVMQ0m70qo4ZwsLvcMSDoeNdaR3ioxWYP8MLGnfnZBprgGsxQcnT/diYGgELS01WNoZwarl9Uglp3D8+ClMTcXYsYMcBD7zLMnnlVBPm+m30ZEok8igrLyRmlIH+Us5Ghqr0UYm6dfcEEeEoTHz0tFMCsg60pSOmae2zMM4BnDOLWwL28FR7M6H8S1E0ogxUxl+DkrQutNS1dTYKMK+HJrCXtT7KSxySSxoqEN1ZTX8ZIRSZJSzGezmJ6FD29HQiHdMr7elKwxwgeF4au/ogTDPMimUedJoDnrRyDxLp8Yx+NprOHv0GGK87y+rQM7kx+HP4HYi5A2Q51r6qc20h+LA4DD+/jvfxv/833+FL/z1X+Kv/vq/43/8z/+O//k//2rG/fVf0/2v/4G/+h9fwA9//ANMTI6zfqqV0rSHOUM0oHPqWiiyLZvhUQozE4CX+TykEMqKEwP3sA8FPH4jkDQ+w6EwLbVSjlv7TMJxgk0y338InZlpJONjlU6dGzYrzb8INu7coHKKrhJ2g33j6O6iooISs7RcFQ74whwLARw72oOJ8ST9WFatfMvHvxScXzenjKqIXpdQGfLX+s9zOztgw4m2Gn9mlxMJ8GDQKNcB8TsKBC3YqK6sNfWQIq60JKjsdHimkJZJ2FLRyc/2e11LIOlEVza8IL6a0Ipj5rdp0yYsX76ceShevj9dBXhNodULrjZIRQmXispKaoSLUFldZeapY/E44qmkeRO5srICy5YtNW/+R6NTGKHKrlV0onbRmHlXQp1L7ejzR3Cmexj79x9GZUUQ995zA1atbEFPTxcF0QCSSS1QoFBhB5Z1ozfko3rJLhhCs3YO8IZpCU1QKGnVlA933nErlq/ohMebpgkfQDAgLdiwC9NmorkekqY4oDg8zLy4/BxnYYaJdXa0EOeHKEZRaMuYGCfJ9PVyZ3lFFZrb2pFNZylUJ2kBTpoVbxuv34KKqmrTD3wBO+cvzV7TGupHYp7mIa5SVLklNcQs6DTQzX2d6z4Zo6bsahtbUdu8APGcD2NTUUxHp5GMxhCIlKG8rNIM9Lg+LcCCSsO0+qn92dIXw/qJJzgMWQNfS6Nj0QQO7juOna+exs5Xeui688dzRa4Xu3b0YcfLJ3DowCkyU5aTaV0e87BlybH9rTCw7WD/kyr5waT+ZBS+fHgxwWh8CpPxSUTKytDc2EErI4zMNBle0o/FHcvQ1NDGkLRMWS9ntRcTYnuR9rKkSCdRyqRNPz3vVR1sWKsXW23dtKBi52lm3ZtB5TWWSU7LnCN0ZfQM8UiLnn0BWZY1p9WgFTyGWSZZIiyRyfNSkKeZoZPylWJh6aXFCRZWsVH/k8DRezyqq+iguklgTup9NwqEJvazkkg1UnEKiUmgub4DixeuRC6tDBRedGG/ptA0aTDhGauS+Ro/Ol1rpamgDWSVpwliUtCY53gg3SOREnzqU5/C5z73Z/hP/+k/4d5777F0y1tF77RMYLlkkl1qI1w5mJzzlVaDlZSXYdOWG3DP/ffjrve+F9tuuxU3bduG2+64A3fffQ/WX7ceYTLN7tNnMDAwwARIPDFhMcCrV42rDjETMRV4AmTQORw6dNK8pLxx03XmHaLjx4+jt2+CnV+CSHun2S1GpuNp7DtwAqNjE6Txjfj133gfPvTB6+m24k/+5FO4+54tGBrqMTsrSBEI6ik6aW0Hr6ZYfBzkIbNgwa74UVvoaNvDYSdqYevkf/FOriacCSu+wcElzW2KAqf79GmWOYjrb7sTW9//YSy77b3YeP+HcP8v/RoaFi7B4PAIBbEXpRVlFEZBapp2oYSd8siQEUnwSFw6+bNkTN9PoURF1DAQOT3o1X52nStW40Of/HXc/89/C5vv/xiW3XQn1jLPez7281i9YQMmRobRc/IEJXGS6Yph62frW0BxXeUvJsnysK0kCzV7ST0YIX8NSvz1iPjqUOKrzzudn+8iDBPm0ecpMbQvTn1uUBm8xjrUkl9jyZqyq9zUvtloRviwkB7SMhCUUOE9CnEvLcKJ6Ah6BrrNdOLGjTfi1pvuxdb1t+Pu296PdSs3I5u0gsajZ4XGibmpv6gNSI38WFf/MZvO0pOnpp1NnuZcz0IsFWecaJU/f2PY9BU7k2GrGD2VsSS3ybxNn6VioSz0RpQYr2IU+sTcIboY608KD/tojvVJaZJW9OJ984qDhCvz8FGBE4+3q9mstSTLr/tcN6Zi0+jsXI5bbrobG9bcjDu33Yc7tt2DAJVCKQWGbkwvo3JrUDCyXtxVmUU303o+lkEBmYnpF8pHLxpzuKZFW9JApNcjD+1SU11djS1btqKiogKNjY24/fbbEaJFa8tmhdE7CW9GqznmCTQFlyCR9Ca3HqAtXbYMm2+4Hjds3YL1GzdQY28mQ4xh75491Pj3I6798UzPvPRO9LMH0oCjVYwECOHEiQF0dY1RuJejbyCBA4d7ME1zXFqwmI/ehjej2hPCKzsO48cPP8P7adz3wJ34V3/0q/i93/9FrF3fgaeefgJf/8b3cPzEECIljbRYa4xBpCkaddh02od4IkjLNUCLJcD8pdlamM7PQWOOxp3/uxBm+5rpIR0Tcex94QXsfeUVM2BuufcB3PuLv4LbP/RxlNY14onHH8OLTz6C5Gg/GisiKAtrFaEmKqmfp5PwU5MPaa8uDn75i3mIGfrJjL1xWoSJGIJktiq9GYyk0+jEJJIUZEs33oDbPvIJPPCp38T9v/hJrN58PcaHhvDyYw/j3JH98NKq9JLjma5oYAhrT2fg+Bm2aJyGu1i23hVBJkhXCk+mnK4s73Q+25WQ+CE2NTmMSeVyQJp6M0jmppHIRmnFpgzjcsonXpfMxhFNjlMgT/Oe017sOTn2pSO7ceL0UZSUlVAYbcbtt96D5UvW4NjRYzhIekwmRsmQ2ddMPD3bTTOdKcTSUyYv8bl0LkllaJrpxemnqSYtP44hzjBa2q1rI7Rmd4g5QwLOKtkOvXXmnIshF64uB6QTSaYZGXX5WDqKWGYCGW+CRpeWTysPClu/VJ8EYskJJNI0dVgvI5iphWhGt+vMMezZt5N1z2D5snW46/b7sWXzLZiamOK43E5LfIAW+RQyopF6i188ctouufckwQ5MCqcQT0UN7ZRXMp0wNIyyHZLZmAqSLzPLSwtU79+NjY2Thx40+9jpOVFVZRXKykrzoVhMlv2dhOdP/uTf5L75zW+Zvduc6Z13EqqucjROjccyhGk2SlJXVVWa7Xz0nEjavTa3HB0dNZ9/0HMkY2qzvE4He3fDUkAdSPulBYNptC+oQn1dmXkY2XVmAGMTmp6ihmseknAgkeg+bTeSi7ETZrF4cR1WrlyIKloUE7RAjh09jaNHe80S387OxdSOy3D6zBCGhvUOiB7yZszS76VLm43mdupkHyanqGVTuInRa5qOf0Wtc+l9S31CLDLD/KazFBxVDajvXIGa1jZj0cXG2R/OnMbIGWrpoRAWtDXDx4E42nMWmRgHJjXVsoZGVNfWYZJ9Z7yvzyzj1rP+FIVpNhxhWh0IUXD19XQhNTGKMPMz37IJlSDS0IySpmaEqmtRVlVLDTuH8YEh9J06genBboTSMYSzFHQURFa3lqAXfYXi+hb3UPVZB86ZbZM3h9J0BMOl09MsAiIdI8FyNDUsYH2SGBjsJROLG2anMkgw1pLOZSUVmIpOmK1n9J6R3gPyUcnxZMOoLm9Aa8tCVJRVsH8kzZ50fX09FE5lqKiupBAfwsjEAOmYQoQ0bqhtRCqWxsjYMJLMs7KiGnXVDWYLmpGRQebr45ivQSXjDg33sh+NkReI+ar1WVOS5tJqPBdaOrh0OgrilbKuvDk/GhtaUVZaif6BHkRj+minFkyIb+VY/zI0NbaYZ9y9fd28o93p09C+epmUH+FgBRa0LEFdbSv9chgePkdL6TTHahINTQ2IUQkbGhpgXrLoPcyrkcLcx3YbMFN+2sqqpWUBDfMU8++jXxwBf8j46d2s/oFeCkEJJJY3Txbxe+3ZuXbtWnziE58wiuWnP/1pCijRXZaXpfvbBxXEtqh5Bva5z30u9+CDXzdM/moIootB5RBxRDmVyEjofGfUYBKc5ZN52hrMj9JfPVihLPpopaHd5l7wSv2S4DYwFOXBUk4amkeDg1prIEAmTQ2PfdpMa/j9YdJZS+fFnKmTcfB4OcAU33ZWMgvmoyQ1PQczXaRnLLzPNrOC6NJbxWlTxXTe05EqHeegn/ZwAHOwGE2PhQzQhVg1WTtZFlTelFGmFIqrzzjIspLiQrZhqKP+pAmLNGmQMlZXlvXWZJLEiNgfNVnlx6sEGbd5QTYQYoGYb5qCnvUupSYa4ECXzmuFkMrr1FZlvvR6zx1K38Hc8zH9g8E1xaPhJSamqmlBSIH1sA66yXB2ClZtaYWCpSDpoIf8pv+QjqSfdmP30qrSszY9LaSJyFtMwFhaTEpejGumj5iSuo7Jn9dWYRfv0bSgFkIonihp4wqqodx8g+hpaEAho/GhXeuNv6pgzlhu8TJTePYvU9lCvTRWzVShsXJJVyIroe/VS8Xa6FkLFTT9ree6pBKdxrQUEbPriKGK5ZU6sy/z2qk486yPEI3NVJ181Zb0DgYD5vmUhNp/+2//zezv99nPftYIy7dfCAm2H9iyc/zMMPyrDBVLDEJOu/5qBwU9Cwr5AwjTBXktP20BosYwm0wqImGrY927HZYO/M/O6/OXUdOvRjBURQaQZ6KyhpxjnuI5DQSU0OJpYLx6MuZKWhvV8AfrOYCqyFYq4QvWIMi0vD7ZC4rHIcg89MJqMGjz8NISsveU/1trkeLYam+91yOrQ8y/1pNCnTeFak+a5xlU0ZVmEijNpVEZ8KKU5o72HFD/0EurEQ7Y8qDfCisOc9FHc+sakQEmXsoxXqaXRekvSogVeFlrijuUUyuv5f2qgAclzLeUzKHax3xYjjC1Ub0ca2ssASTnoHA2v2DLJWavHTf8rJfTVrb0pA6ZlnQNP+/ruZBlYoIYHxkc6Qyv3r+JIeePwRtJIRdMIumlVeWnIhCkGNfnDDS9ppgcz3pGom9zaBpOKy117gsxbz+FF/0ymh700+Iy3dS0kMmz2M0POFxHcMpJRhpgX1J9SEtTXtZZSpCpK+sjHc0XVP01YyDa2FrlzPQa1Z0ALZZAFDk6BBKU8xRG7Gd+dlpfUKoOxbvoxP7oY1+Vn02L/t40PExbdE97qFDyWs5r/FSWYv4uYehFdCpqdlj4wAc/gJbWFjz//PMUQnYxyTsNCUfPZz8ri+hrZvrmalpEqr4hgbLnicrhPB8QjLcKbNWnGVyd0l4LkOZjBYa5mhEMF6KYpb400vwwEo9mHM2x6+Fuvl+w02t/MLGjfIvwYPNRPJOHGYgaaLzN+86nEd4KbOlM0iqlKYvD+E02PFO30CDSg3Zp9/o6p3IVBahp6T/7Tt5Sy8cSOJyZnnwVPy+mDK3y+TEvHY1lZWKSCTCclHYJSFXPrhRUug4KZ/MNqqdTewljy3gKZTeUMgF4RrrZB9eGioSlt40vC0DPjCR02EeYjuUd9qhkbTgbQ9aCySrvKxi65/N3aGbjykooDjmfUChrnlp52H5pP3PijDuFYxgJHtFyhnfZcWGpKaGu+6Kb+qzagnfYucxPdDBtoLDsfUpSnkqbXvY5HHOhyWmT1z/bXmof9VU7FV+ABI4WKHzsox/DA+97AI8++ij+9//63ya88roqFpHxmycwxRJxdcEOqtVLjnM+uVsME87FRWGm3IxTx7KNfmE498SY2I1lTcnyVBvIn5qYh5qYncIrpGFimX5Pf40QMyjky3gaaCZoIfxbgZOXmaZjIcXAfDw1fIzXVlAwjOaZNPh4LmcgPylZ5sLWoeAUneE1AHmuGpsdJ+T0o7/iihYBnmuPOeUrBpChc5arX0swtKSzdS60qK0/HU9M/dkPWHndmoFtYf0YkvH1HER0ooc5Kq6Z/nRomO8HFFX0s4zUcTac42fvWz9bjvkJFm4Gok3BWXoJCuOMOR3Uj5zZCEsr3bFO7wnpdQPeJz3Vr824M/QgfUURcy4a5dMzjWT+0SlvxZEAlHPaTH52mjyfJaNIyGj37RTuvPNO3HrbrXjooYfxjW98w/hpzL8zQuj18N1++22f37t3nymI1U5c/Oyg0N2teyOQtYhjzEDn6pRyes5kz53uX0jRObNXulv4XVkUcmLa+cQ1yJwhX1wKwSnnbMjfcQ4K4YpL74gqwfEryouXF0r/Woetpa2/c3Vh2Ptkn7N+8i3+FVKaq5v/uFCp5S4EKxheH0bnVohZJzj3RTeHsq+P6cDcleDSjx3S/Jzr/K8AijsKG80aaAZs586deOyxn2JqSs+GA+Z51DuHQrkkHFn7C1XPxbsbjgByWK4wN5ar3uT0qLeTSSttMwVnLy+Ii92T/2xXjNn+s48/67jUejq0upLuZxvFo+TimBtdqCrxhnG8Ms65LnYmrE1Dn/DXpx9ee+21/GppZxHJ1YOdInbhYgbqqhdyc8XlxLl0vH25FKdcyOH1Pj/reKu1favx5zuK61fsLoTi+zPigk4ovjcbF/M/H+dPNV/IWcjycKbegoGgcbKe9IwmndbzX8cqe2dhpiPz5y5cuHDh4hpEsSi7mBOcRy8SRmbLITozjVfkfzUwMzWXL8e8hop4MediPqCoRfTwxG0ZFy4ugNni4eqgWADNB1AQyVzLX81zOOyt2LmYT1CLyMh2W8aFCxdzxzVhEblsbb5DLeQ4ofi8gAv7unDh4t2OeW0RzWZcxUat41xcbTgtpNZwVts5K+4KcIWQCxcuLoZ5bRGdJ3A0p6llhtpLybycqPUgs9mdi3cetgU032yWgerFPdOhCi1jhRD/m2dHs2HvWvduwMXqezH/2ZhLmGLMNV0XLq4e5rVFZF4Y1Pp2Ch+9M6KPr+lbGnr5NsufK4SuLBx2VezeDFrxIgtI2+HH4wmzDFRb/Did6rx05pLgO4B5Uow5w6HhXMt9qeFduLja0JPleYXiwWOZnAcpMrfyykqs37ABt995B1avXWO+5+5MAL27BVIx27mYUzMXO8dfKISzVqasTcc524UUx7mQAyIRPzZsXIElS9toGbFF6G13SaczGoXTUgpv/WUl2RSK712Kc8o2210orONs3S4c/p2A6lk8denk69DA8S/g/MlOJ4wts0PDYuju+eGL83PhYv5hZvui+QQzsFgwMTJt0KfvuK9YsQJbbroR6zduxMJFnRREIZaeLEzTQAw7ezC+m2FfXMuzIQoB7flpt+zXXlJkxObccQ670saU+mQCkFEcMmgdMzRF7cf25PIwvI20V3gqCfqUwAP33Y5P/9GvYePGxQwfQ5bWq3YM0fb/pigmuk7o+GfKRGc/5XF++xWXfzbkr+3tbR1sXTJMx3w/iE7ns6Pq2tlhXvvoqo5OnWxe5tYVhd7JsO9lKHHrtKmkvuFU8LNksXVXOTImjKCjCU/aOs7sJKHX5GcEi43ppKH8zG8mvPLM5PO06bpwMR8hdXBewRmi9sueGpA5NLU0o6W1FYlUCtF4zOz4a4bi28FBrhnMsJ/znOSyvsCovaN0X9cBv57diNGl4WOL65slZksNRlEKkgiitp7xKJ5fG8ySwl5vltdec22CiWmbn3YSVrp+hIJ+hMMeNDeGUVuVQsA3iqA/iSCzDwY8CPK+Pt9twQyZhr6PEgooL1lcKpdl2o5A0i7wKqN9z+H8+imu4pnvrphrL/PT1pBZ+FnHkF/b3KteVsApXX0DRt9fEQw9GF9WWzarjR4pnjX9q7opC1MCuUuHjWl/2gxU+3oZe0VCj85v/Oy3nBw4NRNUDj+d7voZV077h1kZQn9Dj9mQv9pL8Zm+x884pA2lln52A1ttTFrYEc4paTGsgFc7OKVx4eKdA4fh/Ot4Gnvasj/NgVFZVYWVq1cjSQ27t79PXApeMhUNGPKdmeH07h4+qr0EhxhKxnxVc2JijOdp0ieNeGwcmdQk6TWNRHwUsekJZNIpo4U4u/qanayZRjI2STfOsFH6RxGfHkY6FTXfr1H6CqO8MpmkSSc6NUzXj1SyH57sAJAaQnI6hcmJYYyP97MsIwybMHFMm3mytKKmEZ0eQ4x56VsuZqEDnQRHNpNCjOWfmhxjvnFWyNHmrUun48xvDMlklIyaaaZjSETHKIgS8LG8ydgo0ryneusrLjqmGWZycpR1jlPmJlinUZZ3gvemGZa0SMWMsJVQm82g5wrFMo6dN5dhrokM09aH+liFFP1StNiSrEGa9aSgkIAQjFhnRNEmlUwjQ+eVFZqkskXnZVpyuSQbSl8MmJkuFSQ81fZqeB9SzJPNwrwowLJ+k5/8UoqbpSDSwJopaQESZFJAfDPC34WLdxaez33uz8z3iObLF1pN7hoMdDpfvXYtVq5ZhYNHDpsPOa1fvx69587h2SefRnRi0mzLz0Ir1rsUqrsc6UXtv6Q0iBXLF9FS8eHI4UOGma9ZtQxLly5CeXkJhoYmcPhQF06d7EWC8sHSW4IlBT+Nhs7OVqxatZAWTo1Jr7dvCAcPn8SJU33IZBmADE/CoryiDKtWLkFFhQeR0DRuuXEpNq7vwI4d+/DSq11IpEuQ80YwHQPzO4XBwQkbl4JgwYJ6LF7cgeGREZw4fhbJhJifj0IibcqwcuViVFEBOX78JM4xf21vbz40xvt1tRVYtWIxJsYU9ziqK8uxetVSLOxoNV/H7BsYwZ69R3C6e5CKjPJLsk5taOf948eOYHxsFGvXrsYy0qOsLIyhwVHs3HmA9esnLcLMRxbLpfcn1YCijKTUpxFCqKmuQ31dg/kkdigQNlPM07Fp9PT2oG+oF6lsjMpWhjSiMMnmEAlG0NLQQmHqx0D/EK3NANoXLEB1dS3bwYOhkSGc6u7CdILC25tiCY2ZxHyVJ61L5tlY34LGxhaUl1UaoZKmAjAxNY6z57oxNjaEFKWU86VOW0dbT1lCWgAkZNIZM858xop2hZKLtwvqW7YPaq8786nwr3716n8Yz4FylzWkwdLQ1IStN96ISZZt+0svmm+sb926Bed6eiiInkJsYopasbRBG7fo5GcYTgMKhfpKq43HY+joqMUf/sGvoqamBN/9h29jNYXFe+66hQyxhKFy1HzLsG/vKfz1X38dBw50M6KfAiaJ2roSvO+BW/Ge99yA1pZK9gMyO/YFjzeAnnOj+P4Pn8ZPH9tJC4caNplW55I2/O7vfhIrVzQhEpiCLzsMT4ZWF4VP1lej75dSCQ+ht3cS/4t5vfrKIZY8RIYcxf333Yhf/41fogB4DX/7t9/B4AAFkL+EmnsM1TV+/MEf/BqF3Ar87ZcexBNPvoxMLgyPz898p7F50wr8yR//LvbtfgXPPfMkPvSBB7Bx4xozDahnKvqK7Pd+8BT+z998G6PjCfol8PM/dx/d+/H44z9GaSSCm266GeWlIcahPUbBceRoN/7mb/8Re/edpfCiJUEeXxgGxfS+OGTR+SgwaFtQ8G/A9RtuQlV5PYUMLaF0loLBTyHrw3h0HLsP7MKu/S9hktam15+jspBCfVUT7r7tAZSGK3HyeBdam5vR1NBAhSLCPh6iYE/iyKlDeOHVpzAySaWAFDYzB0y/rKQKG9duwZoVG3leafpCMpkywsQf9uDwsb145vknMDI+yAjWwrQ1shaVBM7WrVuNO3P6DJ566imMUmBLQFkr0YWLK43zBZHvtttu+/yePXvNQ+erqQE5OeszthoAJSWl2LhpE0rKyrB3/z709fehubkFba1tmJqYwJmu02RcSRP+6pX6asCprW1Ee00aeKgBk1lVVwdw/Q2LUFftoUApR8eCBuzbswuP/ORhPPnEUzh27CQmJ6d57MLYaNQw79LyAD76kffg/e+7mVbSMB5+6Af44Q9/gGeffo5Coo8WxQIsXbKECkA/hZIsI2rO2RTOnj2BXbtewGs7tiPky5Fx1uGFF3bgH/7pITz7/It4bvsLeO75V2iJdCM+Le4eZGnjTKsBmzcuRX9fF4XRQUT1dWR/hOVPIBJOUVAsR319GV57bSe6unrJLPV5ch8FUoJWQhU2XddOgZKkEOxApMSPJ556nELyUbz8yss41zuI3oFRHDvOPON67pTA2jUtWLO6xcQNUWA9+fiTeOjHP8Chg3uZnwfLlrebaeDDh44jHqNlQEZuF0MIc+tdGjtaeKEptwWtHUZ4HDt6HAf2HWC6h9F1sgsjQyOorqpHS+tCYx0Njw4wZprCKoPSQCUWta1CY207aqoaMDk+iYMHDuLokRMYZzvVVtfTSqzFyPAArbpB0t/M0zFPP1YsXosbNmxDJuHFXo7lnaTb4SNHjEU5TEtKVlT/0DnEktPsMVq8IGtKSkmA7Z2gtbwUn/rUr2HbtpupAKzCwOAATpw4YcahUzcXLq4sCn1KytC8EkRyKpQGQOeSxVi2YjnOdHeTaR6jhpegIGpGa2srJicmcbqrywoiMo13F2a3keqvaRQyamrWtTWavmyl8KhFlhbEj3/0CH70w+3YvecsmfMQ9h/swoFDp8hsJsnYvUilY9i0aTk++OE7yIwn8J1v/yMeeWQXuk6NofvMBBnaCXgpZFatXol0JoWjZK7R6RSZfIrWTj9OHjtHLXoQnYvasWxJJ5599lX86KGjOHJsECe7Bim8xpCgQAAtJK8nQA0+jmVLm7Bpw0r09XZT2BzD1DSZuC9ERT1FwZDETVuWo6G+mkJqL06aKTNac7TcNK3X3laODevaaDFUY3RkGF/+6nfwk8d24/DRfhw63Iddu8mAT3RTuJHh0lpAbhprV7Ziw/qlLMck/v7vv49HTf2GcehQL+s/jeUrF5iprF27DtESiBorsEDnuY8J03/5f2JyCl2nT+L0mZMYGjlHy2wQg0N9pMU5tlOQCsIiBs6hl4JYVp4+Ix0JVaKzfTXqa1pI115sf/k5nDhzBAMUVn2D/SgtK0d9bR1irMPZvm62VdKk4SVdl3WuRWtjB44eOorXdr+M3uEztLyGMDJGxaH3NOP3UAhR6YCm5mQF2XGmxSbxWByrVq3C7bffZha5REoiFGDHsW/fPlcAuXgbUehb6ovzhotrdRx7PjW9LKqqq9G5eDEZ3jQZ0SkOlpjGHIvurP3JV8MYBfr3boVDCTFc27B6QO/zisl4ceDgIWx/4TS1YVkTtcj565DIVmBwNINogrZCJodgxIdVaxaiuiaEl15+Ho8/eQIDA2lMRQOIJyPo7vHh6Wd2Ymi4Fx3t1RR0YeaRhd8XQThUh0ikBoFgGRl5ORl4KQVKGTVtMrRINcLBBpajlvfKrBAySoMWJnjN8xzN+qjdC08tPOZ5iRZOaKGdh5q7aW8KTAWQ5eBl/cJBWc1pWl0vY/e+YSTSlch5G+AN1COWCGNsPEsBY4Wz4mtRXIja/6kTp2llDFKghhEIN+D/Y+8/AOu6rjNR+MPtFx0gCnvvvZMiRYnqsqplS3bc7cQ9ybzkT96bSWLPZJLMvPf+ee+fJJOZ2I6bLPcmF0mWrN4bSbH3DoIEid5xK/7vW/se3AsQIEFJLJLuB26ec8/Zde21V9lnn336UiEcPHoara0dKC2JMAQZn56GsZTqemHQooMk66zpt9auFvTEOxGn8oSf9Ar6EU/E0dLYgmRfP0rCpYgECu35jvs0tM9olCI96k7WobW7GekwFUcohvZYE06eqWOb+6moS9miAOuo+okuOrKtDFqVRyIxjz6WS0OjgMrH14NYguepPjbLeTiClIwEQIB9deLECfOA5CHpfN++/UYDGYSKk0ceFxvkYifALhdUuoWMEgpHIliwcCHG0Po7cuQwmpsaM3H4pwGrQAkmC9Zb5eMGy3tlwHjt9CgnYSTq6BcFDQV0kPTp605i/76TaO/soYAsRLw/ir5kEPEUhV1BmA5GBPEk6R0NYNx4KpOAW+a8eFEV1q5dTC9pBZYuW4qr1s3G5Ck19uA7UliA4hJNr6kcqgTmF4vTq9KKMC0ZpoJJUbklkv30sCV4gzxnecncqS6vr7KPzM28UD/yTMpDglaCWa3KaSXomLFcLU8Po/FMu3lLetkZbF+CyiWeCvO2vKcIM3YLKwTlmabAb2vro3GTQoK06E2EkEhH0N1bQG+b/lq4kO236IwrnvJKVqHnhvjPM6R81KJKoWm0RYtW4pprbsFNN96Fm2++G7ff9gGsXrUOJdEiBOjh6U9tN2Wi6UBaWzEqq47uDralFzGtAizoYn27Sf8+U0R+emsFVFhSPpoGTKdS6Ghr5zGNmTPn4Ko16zFnxhyMra5BUZGmNBOMr9mOtBlztkqSV6X8UkwjL0jK59vf/jb+n//2/+Af//Ef6RluYXlJez6kfskjj4sNG3qXk9k0aL1BrLE/buIETJg0CacaGnDw4CFbRKGH4xI4stCkrOL83ReP8VrC5vbfu1abJywF0UCinCKKwiqZKEBzc5K0orAqCNGP0MqzTEDQFIdiyzMJ+HjXl8Yt11+Pv/3Kf8A//N2/x9///V/i7/7zn+Hv/+Hf4y/+9/8N8xbMoxIqRVExvRsKKHuplMGOKtu5rAZecvlT+MtS16o3d1MWuYJTQupzBWM/XjCPiCyZ3dHBqSLdNq+BQd6UnwK4uzuOnl71fYhCmG3s19SdFixIiSit8lB+rlJ6LKIpQsptxmNcpktRWYkW/fztPAuXwp47WqVGB6sX0zg29mPyhKm4ev0N2HD1TVi8cCUmjp+KmuqxNrVcXl7m3nuSdyiGt3KzZen5TZLGhP76qUC84LSHa5ejqdrJS6z68fpD2LlnG+OlsWzZKtx20/tx1y334uaNt2P50rUoLiplXJXhgtvxQunVF8rWh7q6Ovz+97/H1je22kIHd996KY88LjrEkZcftMQ1pSFvSM+ASkpLUFhchMVLl+CajRttW5/rGKbNmC4pi8rqKqzbsAErVq9GaVkZRYeGjSey3ktQy88WFqKChDGNawpp/dJDe1nEFMsUSBYy1HIP2GkdM/LO7Zvx6MM/x29/9X08/Jv78fBvFX6I3/7ml/jRj3j9t0/heF0jS6SgNlnGPG0VFoWlvbMkweb1AcviqYSZhDtPXLDlwxkBSKHtN+Xi1YciVl4u+cFkNH8blBELtGk8CU/+1DRXX6/KVirXPqUYHDyoXKXVg3oqQf6UEJbK66dmkjJ1L4VKkXn1U7zcPEaG0qoN8k7KiyuxduW1mD5xNuqOnMJTTzyN3/zmV/jVr3+Gnz/4Yzz/wlP0UluZSq1zfx6kIOw3PRXpdRFBeevFWGs0z00ZiV46F/1pRLR1nsGLrz6N3z3+W7z00ss4WdeEYH85Zk9ejmvX3opr1t2MqoqxzMEp+NwZeU/hShlFohGEwvp8tBWRRx6XDOTI0Q22SwENhkAgCB+F0fgJ46mIlmL58uVYxrCE52NpUfoCAXvJdf7ChZg1Zw4HT5SCxAm29x4kLTyJ4Z1TSJmyoWVPuaMg0aNnRxTlPGZolVFIyUSKCiuJVLIfr726DQ98/yl874FH8N3v/Qbf+e7DDL/Hd7/7FO7/3uP4xYPP4/CRZuZAM9yklfLSS6NSCG4rGclMTfFJpFpdTGAqrhWaUQJKQ0VAaatnQVJGum3nPtbVRw9Az2oYnGKw6lo+5oExExP+evgjxWT5MVgZgqVwpxlIudkOCjo3OogmnsLhb6uju2+egpVhP88LxRcPSnnUjhmP2rLxaDvdgW1btmDv3m043XQUrZ1atHAKsXiX1SPg1y4I8m6yNdXLqvYukhor5Wh3GfjbdKL6jJUy51P1Y8pUfwIFgZRN4R0+uRsvbX4ajz/1CB556LfY9MpmxDr7MW3iAoytmsL0UkTCYNo4DzdNL7Ob3lA8U24eeVw6SEpkTi8fNLA0/x/vi2Hvnt144bnn8PRTT+PJxx+36YLHHnsMjz/xhK3m0YuBTU1NeO755/DSyy+hrb3NCZH3HDJCKgMJDwlnJ/h1ZbCwEXTFuyoBr3dbtGN245lmhEJFqBk3CYl0FLFkETmjkpqBwV+BdEEJ4xUi1sfr/cUMIQYKNZtWcha2puNMfqapkFISkjQqfEEnbDP1UT/JZkhR+ekkGqbRwfrK05FSSiZ6UVYWQWlpmMIxyfoxjXZPEINYDjxmmiydknEOBto0MhSJQWkVLB/LzfBW+cfR3WVeHC1G2BdFV3snurtaaTjF4I/EUBCKwxdMobKqAn4aU0ojFeu8LnfM1iinTnZfh+w9p0+Zmtc0VR1LJhDnXyoUQyLQia7kaZxuPYxNm5/HkUOHEUhFURQuz6g59Y0UsIJAYySZRCQcwdSp0+xFYk2DW31yQh55XEz4LrcQd8PXDTxNbTQ2nMbunbuwZ+dO7Nu9B3t27MSeXe5385lGGuFpdHV04uC+/Th2+AjisZhZdDaYcwbyexEeLUlMC6KGZIijit0xWJfzhhRRb18aO3cfodXejuWrVmPF6hkUnil0dPbSgu9j6EVvbwpjqmoxcdJkW1nlBJMElBgoQG+qwJ7ZJKmAxo6rQbQwwt8t6Oluti1+4rFuRvcEH2wXj56eTtTUVDCE0Z9oQ3dHA0IU2letXYKJE2tYSS1CkKelcuhxZLwU/Vb97Yz/6eiQbZ87z/0tKKbLQ39uOlA/3VSc0SQDp8yHy2Nk2HNOaoh4LGEvsJYVl6EwWkjlmiT9+tjePtv5YNq0WVT6UepFPVdi/lYJHeT16ES1kQLO1sGUgZXiYB6bEvIgZa/dG6LhQhpy+kRKL+JJhnQPAmEfopEoAgUhFCTob9F4cJ6qU2IyAlJUOkVFRfjQhz+E//Jf/oHhv2DNmtXWzxqTine5ZUQe726Iv3yyhpxguTxQyV7p7uXUAtu2J8BBElSgsAzRqg75/XZdkxl69K31RlodplVAbMCggfregEc5BnkMGa/BPJN0AS1l532YgMyB1JM3lZZm8PvD2LHzEF54YRNqa2vwpS99Ep/61B246ebF2HjNXNx26wp8+lO346tf+TI+dN8ttJipONJ9Lg8KRC2M0GKBI0fr0dbRg6vWr8Wn//A23Hfvtbj77mtxyy3rqZzGWP1UEwm/Y8fqUXeingpnLP7gQ3fgg/dcj/fdsgZf+PxHsW7dSvOqtKJL8XN5U/pB7dW3j1LyvCzGcMgoYcpPHbVFruLLe5AIF0y0OmLxn+5rGlA0UZn678KEry+z5O500xm0tLegmrRcsXQ1Fs9fhdlTFmPt0utww7V3oriwAt29vfBrQ9iIVr8R7CspP6kgKVzJfVNErpbM3GuDFuxoh2623OoIjo8wVixahfddfweuWX09Fs1egdnTF2LOzEW46qoNmDZ9OtraW9HEehmLqKy0vFlXZy0E0iKKdevWsT8m2jtF1228zpSTKSurRx55XDwYn0kRXTHPWFghJyg5BPUsIJmiYczA+pktp4e4DJrG02y3e9CuZwX2Szm8x5CRRgzOStaZnxaxH4kUFQTPbbWUJ7UMGRp75PKF0N7Zj188+CR+9NPf0kPqw7333oL/8B8+i7/7uy/jP3718/j8Z+/GtKkV6OpsoLXfY9M7UmT2fIj56CXNN7YcwK9//SxaWrvxvtuvx5/++cfwl//+Y/jCFz+ImbMm2LMqMzKCRTh5qhu/f/xV2zpozdrV+N/+7NP4q7/+EjZeuwrPP/+cvVgaT4YocCMsScJaBgrrzGLFqv3gPW0XZM88KCitLVkaCBLk0jMp/kcWQoICOEmFKSUtcpiCM/4RjXy8x0x8AXs+qQxHVnIjo4CCvaXjDDZtfwFnWk9h/oKFuOXGu3DP7R/FxvW30mgKYdPmTThctxf+cBql5Xr/imXSqxQdk/1xW7ad0vY9bKGrhx1YNyrSgrjdS2vBh64xkf70Y/L4abj2qptx+8334e7bPoy77rwPc+cvxJnmBry+hfVpqnftFS1tujRgNNA2QO3t7aivrzelJOu0qroKJSWlKlmFZI555HFxIJ4r+Ou//pv+H/zgBzZ9IOsn1wK9HLDxxSp40wEmEHROhVNZNQbVNdXo6urCqZOnbOBoikXLiBXzvQnRieKFdEgnYygtARYtmojSshJs3bYfZxq1jQ8Fer/8SI9OWVpZahI8lexCOBTHzBk1WLxoOq3jaoQjfnST1s3NbThw4CSOHGtBa2sKyUTUBJnJQGalTw8kk52IhuOYOqOCVngVCovd/c5uP7ZsqkNzo9RiEUujB57upELqxqLFU7BkyRyUUSC3t/Vgx44D2LXjGObMGY9x48dj566j9Jy6qUxKWEeWxXTjxoawbOkUez9q28465i+ejTJfKRQJb0/RSuloAUEbZs0qx/x50+mJ1WHPngbEkqWkWIRt7qHAjWHF8imsbxSb39hHz4GeR7/22hO93NTgaCGvxpeWweTH2OqpmDpxLkoKy+m5+9HS0ohjx4+gpa0JY2oqMaa2HM1tjSyvAYl4ApFQKcaOnYZIJIpTp4+jtbsRyYJu5kqlk/JhTOk4TBs/G13dXairP0TF2k39I/4PoChSgeqKiagqH4fy0grosx+JZBytbS041VCHppYzjBtHoj+GtE++FUeVLTRx9NKYlye0evVq3Hzzzaint/qP//SPOHlSO0GIvlkFn0cebw8keZwssk1Pv/KVr/Y/8IA2Pb2CFJE7NXi1sSqzbt5vU1SZtuTGf+/BWfhO+MrCj/Osz4SH3y+PQu/XqF9zpnqMigoZi5pi2VaUUVD193fxCnmBeQ2QmHLI2KJA791EeR62tHqO4zyuILT5rBYYpCj407TsVRxlmKVTfB+oTKgwLD4FaH9/L/PqYRzt7UZmzMh8+w4RT+TZpZlO2/v0p8N2zYcY69TFsz6KUCregkL+lpJ1XpOniBTk6Vjr+iXMOxlPU1qiQRHvFvGOXppV/TvYdtWFnpOmM+2F2GLGk5dy4QLY+oF/YJ19qUK2gkcaStoJQs/etMuCTbFRIWgln+qql1G1Y7eUn56TMgHSfn0OX3TSxqNBktrP/OTNsJ3MQ4rFnqGRnnpZF8kw/DQ49GUmzRKqvBTiNgXoD/RTcbnP6zslpJqqbSI6bLftnp5ezJgxHX/913+Nw4cP42v/+jV6ty3kIXmIeeTxdsPxvvE/Bz91jy4YZ14xcNVzQbBzk7YFNnViq44o+MwC5VHX38uw5mdI0K+tdHzFFuylTQovveg5uI91LqHsxKboa18tpZIp8I1hftW8VkGa60VIbc9TSDprqqaEv6Xc6G0wCwlvKT8JbHv+QoXg91VSmZTTS6KSoNdRIC+ICkhKQC9ppqi8kiwwrd0PfCwDYxgq2adVCITG8lolxWMZ68L6F4QzysNBPpXV0U+Pxq9dpqXY5Lnkts1Bz1GSZHDRw5RPAduCcipKek9UUhLIaRKuwFdI76wcgUAZ21jCPLUbAa+zXW8GKld5w8+2BrqR9LcjGeoEIj1IB3pJASpRKSQqh7RNt5F2PtZVisUfA4KaepMxQSuR+Wn1oXn8Ulwh0jgQZzrtGWcqhXF5j3n5IxzMYRogLCsV6EA6RAUcogfkjyNGAyNJpaspPZtuYA3Vexo/Qq++1cF6X3vtRlRWVmLXrl3meUkJXW7DNI/3Bq6YTU/PC9bNE37OM3J/GkBXcK0vIZzAcG/QS8BodZuOTmFLpDnomBs8QeN8Dgl2fZdHm5SCQl9Bwr+flr1Z7FQG1hcSZkxuqZUN07pPdevZg7wUejIWdM58KQAH+oxQPnrWY98AYhx5P3qGI+/N6k6PpD/zDMg8DNVP3oClCzKe7ntKSHl67cjC5p6ZRtOIeqak0E8lpDQuRwbSy3ZmyJQpJaX2vVm4MZShDz0X0EuU4nDPdqQYnV9i70fpBVvVm0lsV2zGgRSMFIblwhtWfx5MiSilvJhsW82QEG3l3en9KykpeplpK5cKjvGVm6N/Jl9maPYnoQVCFZUVuPfee3HXXXdh06ZNeOihh2xlo2qQRx4XB4N5y5lEebwLoI5VkDKhcDrLkvV+ny2wHXRdwpACLBNSDHbGW3q9VM/znUATVI6UgoR4VtEoHxVtdfAWBqheZkVkQoYJJYyzQWVnrHwmsq16TOko70xSnWuqMbM1D8UoQ66SPRuqhxY1uPxczQdgddP7PNoU1h3fPrOG+dCTkTfD5lnJKt/9SSGYesgEd253SIfsbw+597w07q5q62PbdNQ0ntSO+kzU1Ln1iyk3HTM5Gb1deq0mvOOOO3D77bfj1VdexU9+/BM0NzebsnoL+jiPPC4I7xiPyGrG/3QcGvIQzkWNrEgbGbkCTsETlIRlm3tP0EVPCbhzYx+L64FxKQAHp3EhIzr5v0KaaV0wZITk8Ozo5eEhN38h954XV6UwFk9deZmj6sZC9E6PF0fHtw8u38HhQuG1LbeNufBo6eCUjeDK80rNDR40La8XxGW0bN26FY8++qh9i0ipTIFm+iGPPN5+5HKizMF3EExuDAl5eBiJGG+GSLlpdJ6jlAYwWLzp7kAwC9ybYvLSeXE95CghHRnNAu9krfGBHBmUl4K8AvPPMuFcdfMw9L777eVsXoKdXWnI1tCF4ZFbd001+ujdyUvSO3a5Y0UhF9Izmrrcvn07XnzxRVvGLXheah55XCq8sxTRMCGPXEjSDA0XiuHyyA1Dke0NF8P7c9Ns+suN44KL6RRRbhC8coYLnjLKDbqei9xyBJc2txz99mrm/T84XAkYbZ2GxnEekvsbTA2PIh40RSeFr10UIpGI200hE+tKnh3J492Hd5Qiyh1yuUMvj3cmLnV/DvUI3q0YStPcMBy0kWwyqd0s9GRppFh55HHx8I5SRHlcSRgq4s4lwEYb7+3AyOW8N2z8kds/EuQZKeSRx+VCXhHl8Z7B6EVzHnnkcSlxxSoiWa9Dw9sBe4fCp7fPXdBedW9f7nnkkUceeVworkhF5FZNuRcxc4NtcKrzt6A4tMFrMqlPjyeg7/LrfQrtzpB/OJtHHnnkcXlwxSkie3dB/3gc/MKjtpFJmfIQLlQhSdEoT60Mqq6utk+S6yNgyiERj5uCyiOPPPLI49LjinqhVYpCNZBSSKSodEz50IPR92d4T/edgsos9R1ldZVGXk88FsekyZPw+c9/Hh/9yEdx9YYNmDFjBvr6+tDW1mbl5j2jPPLII4+LjVw523/l7aygOtTU1mDmrFmYOGUyxk0Yj/ETJ2D8+PGYOGkSpkyebJ5Mb28vEgnnHY0G8qDkVYXDYdvYUV5XWWkpVq9aZR8EO3ToEJqamk1h5ZFHHnnkcTFxJSsiX4FtUaKvSi5fvgIzqIymTJtqv6dOmYLJVELTpk1DBRXRqYYGdHR0jMopUrv0foSOsVgMR44cwUsvv4R9+/bZ1ymnTJ2CAwcO4tjRo/Se8lN0eeSRRx4XF4MV0RVj/rtpN3ekW4KCgB+nz5zB669vwvMvvoAXXnoJL778Mo8vYuuO7ejs6lRkF3+UkCLSS3vd3d1obW217e4PHzlsXlJV1Rj7WuWF5JdHHnnkkcdbx5W5ak6KiKGxuQlvbHsDr7z6Kl59/TULL73yMt7YutWe6QhvZtGCgjcFZ54g/wL+QH6jxzzyyCOPy4ArRhE5BeGOUgZ6nqNz+6Y/lYbtKiYFkvmt77Qogabc9PdmoA9/eQpJX8u0nDJeVl4h5ZFHHnlcGlwxisgE/xDZrxVzmkqTw+NtWR+Px2wVnUUevSM0LLRKzlN6OtqCBl7LL+XOI4888rh0uGIUkUEukU2UUQml0qgaU4W1a9bixhtuwA3X34Cr1qyxBQvhcIhRnUekBQ4u3ZuDt0hDz4mCoSAKCwsRjUQHPKU88sgjjzwuLq5IaSslEAmFMH7cOMybNw/z5szDgvnzsXr1aly38TrMnzfflJF5UBaGuFKjgLwfpdUycCkivU9UUVGBttY2tLa10vOK56fn8sgjjzwuAa6Y5dsq28pnKCosQizWh0MHD2Lvnt3Yu38fTjc0wB8IYMyYStTW1KKPCsR7CXXolN6owHISibjttKAl4fPmzuNxOr2wMaiuqjZl2NPTS8/syni/Ko888sjj3YNcmXqFvUdk5VOpdHd24WR9PU7U1dkSbnkoZ06fQUtLs02dSRFJUUg59VJZmBLL5HEhUB76Pr+8okmTJmH+/HlYuXIV1q9fb3keOHDA7mmT1DzyyCOPPN4uDFZEV8zUnKrVT+9Gj3y091siFoPfpujCCAdCdr+BiucgvaTOri4Ul5SgiEHO0JtZXCBFY8+hqqqwYMECelpj0NTUhC1bNuPZZ5/BPnphffTKND3nXnLNT9PlkUceeVwMXHHPiKRUtEJuwAuREuA1f4GPlS1AZ3uH7Q0XssUFIWkU5xExjBZ6PmSr5FjO0qVLQa8QPd09+NEPf4T/9v/9b/jv/7//jqefftq8IS3xziOPPPLI4+LhilFE8jcKqHz0Iqs2NU2m3aeL0/RapIgKpKAYye/Xy65uKyDF1bs/F7pYwdKn++17RPKI9L3+TZs24ZlnnkFzS7Pdt1V5b2rCL4888sgjjwvBZVdEEvWeuLf3eezoFIu9cOoF83qA4uIShKk4tKpNU2emh3jjAnWRlaUQCUdYfoEtfNA+dHaPSi9NRejUYx555JFHHhcTvgsV4G83VHw29CMQDiFcGLWdFGKJBGKmcGLo47GsvBxTp05FlPe1yKC9rd2UibSQeUYXAHk82rVB2s0+MyGvix6WFjDkl23nkUceeVw6+Jzlf3lhgl8KId2P6uoabLj2Wmy84XosXLIYM+fMxpz587Bq7Wpcd/31mDFzJmJ9MZw4cQJ9PT3m0uV6VeeDLT5gOWq3gtIF6HEFAnoWpOtul4U88sgjjzwuDWxq7kIe9L/dME8oo0mkAPR8Rl9QXbxkCRXPdbj1fbfi5ltuxrr1V9v3iLq7urB961YcP3IU6WTKnvOo/qNVHfJ4AsGgvT+kqT/tuC2vSsvXPQV0OemRRx555PFeg++KWBVGwa/nQlqIoCXUL7/8Ml5h2LdnL45S4Sjs3bsXL/Ha448/jh3btqG3q9sWMBRcoPfifQaivb3Dng9p2bZW6Gklnlux52N18gsV8sgjjzwuBcwB+cpXvtr/wAMPoLe377I9H5FHpFLliehZjRSCFGQgkNlpm9D1eCJh9QtQcZiqUAN4HE2NLW96UMUlxQPb+Wj7oBtvvNGU0L/+67/i1VdftbgqQ3XII4888sjjYsCT3O4xiRajZS5ePhSwPlqaXZCmkqE3EgwEWaMCJKl44rGYhRTPA6xsUB6LGpBRQqOBaVym1fRbTU0NPvGJT+Bv/uZvcM8999hKuUcffdQ8Li0Vd8+PRqPa8sgjjzzyeKuQbC74j//xP/bff788Im1lc3k8olyFotKtDk5DjogLUZ3KT8+S4ok4ysrKsWTJEtuzrrurG6dOncLRY0fR09PDIp335WqRRx555JHHxYEkuEl7yuf0laGIBE+xXMzSvbbZS7KEFkboy6zSyPYO02Vqex555JHHewuDFZHnAlx2uCo5qIrnC28GUjhStiG9qxQJIxQKwefX7gxSUi5OHnnkkUcelxZXjCLKhaeUzhXeLOT1aCGCNjxVSCbd+0RvLdc88sgjjzzeLK5IRXSxIWUkdzC/q3YeeeSRx+XHgCKy5yN5mZxHHnnkkcclhHTPYI/ozT58ySOPPPLII483iffk1FweeeSRRx5XDq5YRTR0lVxuuDgYriQvXA5c7vLf28ilvgbJ0JDvlYuFXMp7IY93OzSmrhiMlvXyrJnHxUQuf+nc7frhPs7o9jd01714eX68uHgn0lcvx2tj5exL8qOHx1ujabeer9gnbXzv7C9JX1GKSGslcgMpDPtqq39I0LXz7LzgkNulQ8NQDC09NwijyUM4V7zh7g0XhKHlXziGy/lcwWG4O15468jmlpvvSGE0GC7d0ODhXPc8aAMpt5u7996ZLxBAIBS24A+G4NceiBz8Xg7ZHhopz3cPvBYODW8fcvnehSx9HVx5I9Vg6LXc3+K67N/Qe9mg/8/+Gy2kGLQit7enF8mk2x/zbAwtMxsc/7kw+F4WKsNTcn19vejt6xuhnHcGrixFRFp77EcqI82QSCcRS8TRG4tZ0AfyEuxc7yuuI2Nwx50N735uPOWpJd25IbccxZUAcmyZGwZjuDseO7u/wXFygwevLl75uffOj6G5ni8MxvljXAi81G9PbsNBOYqVc0vwwlCMfM9dyQqBNC/E6QF1xOJo6e5BU1cXWnt70cnfSXaLdm1XX9pnTCzlcLm+czBS3b3rucfhwkgY6d7w1x3fk/oW9FtXckfB+cobenfweBsura54/JNFATu2oJ/j3evgUcBTQvKGJkycgDFjqtwHOIdFtj5eEEwOKvBKVhmdDe9bcrU1tZg6dQoKC4sy5XvUeufAf+211/7ttm3bkUgkzPq7XDBmy9BcX0rVuT4RXl1bi2kzZtgH8abNmI7asWMRiURss1J90kEJnHs6fGedGyOlyb2u81whJwy9f67gwfvt0Xi4PL1zYfRDLzfGoMAshr0+THD/6aA/T9nm/uXEzRzPF0aCdy83rkeV3GvDIfe+C0PrN/SKkB3O2TimajLn7rqMG6O6j3fIe/2RYpSOn4ipi5di1orVmLV8FSbMmovCiir0JpK2d6H1k9HZ6693FnLpIuT+dtcGXxn44wDN/bP7HIO5f7npFEa6nntPvxzc9X7mqSCOFI9omtQbOfovG9+Du+v6V9D/2bGmfVRcX3n95d0fjOwIcDEMPBk4HxHuhfnbb78dX/rSl3C64TSOHD1KxRSgnMpEsXyz+WdVrc54tIv6L3ccCgMZwC9ZTbrE4wmsXrMa//tf/u/2dQJt3iwDScrwzcnES4Vs3SS/rxhFZMjUTUQMRyP2ZdbVa9diHo/jxo+nEqLmnzIVkya7D+S1tbYqsks0gFziex2csawyL7C6/tF/uXEFsuhAdux8c329eLrnGCVt/1uOmSPvMlM3VIbP04YF45j4szLsvwEMzzRe2SPDi5EbNFjPpovDiMypy9Y+HfWfgw0BXnef3OCNTHIdTNHxuoZL5t9AMPCeKK52exe9rJ3VJkXg8h4og8G40OIPym3gLNfwcPlk0yofK4+xMzHsf5UjISTiu7gs24Krvwk8xeNR+w4GSyqw6oZbcNWtd2LmyrWombMANTPnYfzs+ZgybyHGkge7errR0tQEXyppefeTIK5MV/5bhZfLcOHtgtGaNFHbHaW8M7YlQ0fXqmECo9mZS0iI5u661wdeWvvLOPjKV9dz74lRLJ+cMWdx+FvjxfrJ+srFsxprPCuqzg0unYJSC2IH5aMydc3JAI1gVxnF8qa4XD5erXTq+NO77uJabYeFbaxMxTBp0kR87nOfR29vDx5++BG0Uk7pszbu0zJe/fjHDNNWFxrU7kGkK0X8mYmnKeAsVAMHE94mr/sRp4d+ww03YCYN9q3btqKlpcU+oZMb/8pDlorWlitFEalaKt++RUTrYcHCRVi+YiWCoTCOHj+O/fv34+jhIzhz+rTVVZ3bRoKf/d0gr4HqBHWugqwDl78YwmOlLCkExxwWx6eNUN3DP8VxQ0Lp3X2fnzEtHkWYGMUGneDlPJgBZKH4mJ+JQjGZ8vEzH6ZTfm7AD2UaV7ILI8NqLevJ8tC5u275spyhQXCeZyaNBbts9VAb9YFCO9d11tfHTP2WfiCqQfkpvqs/f+dYycrXaMVElg3/l7DXdZVvtMyUYbRQ3BFpkYXuevE8hWRf2uU11x+uHJeD6zcFtUNHi8f4Xh6qH29ZGk3F6XoinUJJVQ3WXH8LAmUV2HXoMDZt3Y7NHCfHTzYgXFyCydNnoqp2LE6fakBXa7O1w4Qb87H2u1IvAF6a0YYLxeD0+l+jXfxidGMf8IR9SlqSV7PCWbRkbLbLgl1xp6Kdo7nO1R9po0OA16wDLLrFtrL8jG/xdNm7nuEPfeLFr4wsnee38DevWR9bWbrH3xmeEw/1c/zr3MvPCwOlsC6qk/Exrxq/avzyksp25SuuC7pjf/yptqk8ZSAe1bnjOaXJliXomnKIx2P48Ic/jA0bNuDnP/s5Xnn1FYSCQUvnYI1weocprAhnOWZ+axyILhl6ZBSmC1l45cnTampuQjgctq9Zd3Z0Ys+e3Zl6Kv3gdLnI1kn5uXZcOmTLUz2uKI9I1kAilbJPgi9dvsyIvHnLZry+6XVzb0/W16Ourg4nTpwwb0jfK2IrMqk9DCEof4rGamyS1koiro8wSRllGNCik60YSZ2fTrEOjCcF54Ss7opJtDddgu5vDIlk3M6TySTjpRhH31Ci8rJO9/atyypIPbBM0WrWoAiQoZU2kdAXYXWdgUcbLMTgQXV+2KDJRFWpTtizFmxvgvXTBwVTFBApmpXe1JNa4wa7jQIGl4fuJZIp9gHTsR/UnkCAxgH/1AbbodziKr0+YpgiPUgDJtQ1o6nyE3gtmdJHDpWrK8+V6aiZSrsyEozjgs5TSLKOlhdp5WorMH0G6kd94JAHCocQY/jMCtW0RJJlKb09P7QkqpPrV+Wp3FLUgjG1Mam6sY7SHeo79ouVx3TKpyAYRltXNza/9hq2vfIyGnZsQ/uBAzhzYD8aWlpRUUMPfeJUxPp6cer4EfSTPqqUBJjKzFTgApBN5QkI/T9cEO3d34WUMjimUvucRULFm0YfeSXGo/UFiSJ+sVjWnzz3kquNlqwAcfEx250kH4g3AmbksX/IP1ZHBlP4SiY+5HWNK+tfXtQd9Y2y170U89JPU4o5sLFL3oiLRxg5zrLEK6qhvl2WGckMKslqbTygEWh14Xkw4AxQ41ntL8kE4k3VyyvOmsw4bmqrIFMmy+J1lS2Yp2F0E7yjrvspN+KYMH4CvvDFL9jHNr/3ve+ZdxIMBa3duTBRS2aR3JUC97Md4mWVqToqvq4becyQzirxgTFGyGjUfpnt7W1YtWoVJk+ZjC1btqC5uRmhYcoV3Ao7KjoeA5SxapN7zHEpkaXdFaeIxDwBWg+z587BhAkTcJTKZ8fOnfZpb7N6RTQe01IAGvjE2TUezCTWJvaemG38hBpMnz7FhGss1muDR/HUsYrd359C9ZgyzJg+GUVFEfs0RpqDraAgyXKTqKgIY9ascVi2dCYWLZyB2bMmoaa6lHXpYR3bBwaZZ8UYg7HPx4+vJYNWM69u9PW28LwMK1bMZR7TMGVyNeuWQk9PpylBDQIHsZzCSFA5GlqMQ7rpIC8uyUGSCoZQOXEiJs2Zi3EzZmPc9BmoGDcBiETRE5cwkLDWYDVRYEorprILi1A9eQomzpyFmilTESgqQXN3LwKFxRgzdhw9Bk09UKHyT2wbLSlBDfspEI2iTwOKebASVq806V5eU4sqpeNvDX4JCud5FCBYXIqKCZMxdtosTJjJetLDKK0ZB1+YddTzP2VlAsG1UkpMOYSLiqkAJqGA8Vp74iiIFmMc85g+fxFqp01DUUUF4hzIfbG4SRYThKo380kFIxgzaRomzluECbPnsa3T4Gfb2nt6TLBJ+RkdaRXo+U/DiTp0NTciyPMor0WD7BsyUmdTC8qqx2LCjDno6e7E8QN7kOzrgZ/97zhpODi65EID0AkYeWkUcKynvPGAhCt/K+j60GBKWoR5C1C5CfEAlXkFheeEWXMwadY8jCe/lFPJBqKFiFGwSjBqjFkfsEgJLxPirGP1pMmYOGsu6T6D/VmGps5u9l8E1czPx/sxGghKqfiRoiKMZfwAjz3MN235SvmzX3gcM3YsqseNN0Mizvtio37SPKE+JF9WTpyM2hmzMJb1Gzt9FirHTYSP/NxB2aB6mper/ERT0kcKNULPdRz5OFRYgvbuGPuadZg+GxNnz0fV5OmIVlaTb6mAWU+N/YCsQdK3mzzeHy5iu2ZiyvzF5JW5pNEkpEMRdPbQgGTe+nyMmNOpBidnEszr+huuxy233IKXXnoJzzzzjGu/KQPX9/pfZcny7GeaWo7TipqxaO+lUvdFyFOzMXXuQhuzodJS1rvb8aYSs7/ciFeZLrixAZORU6ZMwerVq3Hk8BEcoMGkBRPOEHR1FFz/cfxzjIhunZ0dJvuzS82zcS8uHD0E6zPve0T6MJw6860y+JuFmEeEqaisxLU3Xo9yHp977jkS9ICRxhiTRNVXXGUZ6HPhptdZ33PVWINcRPf7E7jjjuvxgQ/cidde24Sf/OhBWg09HOwRCkoJAw6H/hg++MHbcdttN+HFF1/GT3/2a3peHVSOBbjmmpW4665r6a1VUUmFmZ/c7QAVWoIK8wQeeeRZptmBjk4KQNbPOpUVi4SD+NQnP4KlS+fiFz//HvPqxx133oqZM6eybDFwEIcPn8S3v/Uzen77aJk4y8gxhNcydZpCbktdR4otLZBJ+/v9CFdUYt66dVi0Zg2KyseQd91UFEcPYr3deO2Zp/DGCy8gwf62B7+kp/q8jEJgyTVXY9bixSgpLWPOPnR1dGPTptcQogGwZM4cbH7+ebzx0ovwUzn3UTjPWrQAN995B07Un8STjzyCPnoKETZK/ZgmY19/x+1YsHgRnnv6GWynldZPhhfTS5GsvfEWTKJCCEWLEKRwdwOZ+Xa248D2rdj04vNobzzNspIWtHAlxjZMYT1u/+CHsP/wcby66Q2sWLMe8xYtotApZJVJuVQftjz3LJ5/7BEkOjoRZj9JOZdQKS5Zz/YtW47CijGUNyHjpd62VuzbvgWvP/cUOlmej55aQT8FkfiMdbJpT8oRn4SJhHcgjHb2+6rb7sHaW27H0b1b8ewv7ke6RQqLfEbjw9niQ+H6K7cPvR5kUdYHZqHzXIpQsVxwsVQNeVu6Iv6XzFRwMc8FpffiyCRwv2KUhSVVY7F8/QbMW74SpRVVJoTT7L+kvBMaRpuefYp9/iwoHEhajSHd60cRx+bKazZiNmkZIY+lmCbeF8Oml19GOhHD2pVLsePVV/HSE0+Yp6h+nblgAe6870OoO3USv3nwl+htakQR6SvvM870N99xN1asXI0nH30IW195EUE2rifWh3IaUFffejumzl8If1EpXQ+OD9ZBplAfjb8D7LvNzzyJzlOnEJIsoJLwkfd6eJxEoX7fxz+Jg8fq8OzzL2DN2nWYzzqHaWCl2ZdJ8vD2V17Akw/+FAU9bYgG+ukZggbSNCzfcD3mLFmJEA2fFInm9xegu5O8snkTXvv9Y0jQAwmT3/rJL5ox0NSdhPxf/dVf4brrrsN//a//FQ8/9DCihVGbOfGEPHub/Z2GzDnQ6/7ARz6OcVNn4rEnn0U1DbMlK1cgWlRIHiBdaNzseO1VvPD7R9FHDyfCfqcaYS5Z/nL5Ah0d7ZRvd4DyHM8/9zz+z//r/xzwclS+B8WXgaxZhBnTp2PJ0qWUg03mRWkBmHf/4sPjRKcUrwiPyDQiiaxppKrqakyfORM9vX3Yf/AgCtkpWqwwZ/YcTKT1XVxcbIM1RetDgvTcitOJaXkZ8UQXysr8tBjmoqzUjz27d7IDOhklbMRPp3pRW1tIZbMR48cV4RUy6MEDh0kXEomDYtWqRfSmxuLIkX14kYL8tVdfw47tOxDr66BnNAHz581Ec1Mz6k/Usx3MlgpGgiMYSGL92vmYP7caJUUxLF0ynfVJ4I03XsP2bZttulEW8JEjdVRoJ1lf9YGUCv9XXxl0MvBjENRCCaR+ejegxT9n9VVYeN0N6GH523buwuY33sCeXXtMWej9l+6OLtQfP44UmU5z0GK5aFklVtxwE2atXY/2eApvbNuB7UzTywE/nlZ/zbTZKKagOnr0OE7QS/WTcbSsuYIKZe7y1Wgnjfbt249EV6dZlZqqiVGoTV+2EuNnzabSOIL6+jrKQTedWUOLedaiJWjui2MHy9m1Ywf20+A409yCwtJyzJi30KzdOtIyQeUp1azW0zdF6fjJmLpkFZKRElrJU8wqP3qyATv278ORuuMcYH1UZh04yXqm6RUl0gWIjKnBOioN0aaVZW7aug1b3tiGurqTCFJQzJw3HwFauyfq6hGnFxxgeQoFGiDszBDpJCEXUIdKOUUKKYRXmvd4/NA+HN+9DT7SM6B+FzsO31U5cP0p3tVfKBRAWXkYZVUhGmBhFJcGUFIWtFBc7kdxWYDXdPTTSAghFPGTxygAVRY11LmLy73rlJjK7WG6eWuvxpqbbkNvQQhbtu3EG5s3Y/ee3ag/SV5hslh3V4aOMRtrUsTpYBRLN1yHpdfegPa0H5t37cUbO3ejmUbL1LnzUT1tOgqranCSiuHQ/v1Ml0aMsqWEHsyCDRvpYfdhB+kf6+kiXfWYnl4Plft0Cv3xcxfhwOFD5M8j8m0oSPvpJddizvLlaGNfbt21Gzt37Mb+Pftw4tRphEtKMXfxEiqeMOrrToBusPGfPI1u8nH5hImYt2YdOgoCqJk6DeNZtwNUStv37sMhjgEtwY/39uDIgb3oj3ebARKurMI1778Ps5evQV1zmz0X3LFjO8s7icKyCsyZv8C8/bpjx+CTghGfkFbi63E05u66626j+K9/8xucPnM6R7DLONX/PCcxlTLuD2POqvUonDgD0apxKCXdduzeg5179uBMewfKasexzjOZTwtOHj9BI6+fisjxTBaaPte0YAKFhYX2bCpKb/a1115DW1ubyfTc6TnFlcepZeVf+tIX8cEPfBArV67CyZPusYfHHxcfWb5UeVfOYgUSQBq8qrYGU2dMR5wdGwyFsGzZMsyiYqquqbZ1+XI/y8rKzKXs6uyyOV4v/XBwNNU9PYuR0hiHaVOqUEdGrD/ewjL9HF+yxjswd95Y3HzTKnpBJ/D7x57BmdOd6mbLu7urA6+yc5964iW8/voB7NpZR0V0GNu3b6dbm8DiRbOQSvZi3/7D6OzSHDktbpYa5r0VSyZi1oxy1NZEsH3HNjzw/V/j8Sc247VXDtDj2I5du/aTEZrQ20sLhl6N2M2zdHI7zCH3twS0pv/IXBy0vuIyLNxwLaITJuFpei+baLmd3LcXjccOo46C+sCeXWis54Al0xZoEHGA9JLmE+YuwLKNN6CNI/PR3/0O2599GvV79+AA0wRoEdZMnQUfBfWh/XtxioKCPobN05dSuExesARnOmI4zMHdTxqF/RQgFOB9VIrj5i9FxbhJ2HfwABpOnkABlYSfwkddcuToMSrzV2nRvoGTB/fg1JEDOLR3N07Tq6qmhVhRM44D4zg69SCWAkLKNkFlG62dgFoKrNKa8aZEn37yCbz+5GM4umsrju3dicMUpM1U7smuLiZIoZcibQ69pmXXXI96GgqP/PpX2E0j4zTrVLdvH+qooMeMZztoHZ5saEALhUdQ07HM23GWvGXNFNCbYJd0kaGqZsyi93gt0qEwtjCvdtI3lKRHTc1QYJoodyB7/eVd029nbOigZywTJtbg45++G7fevgIbNi7ChmuXYf01i3E1w/prFRbhaoZ1Vy/ExuvXoqa2AgcPHkE8xhpmFNH51JGDngtoKpbJCosxf8M1NCam4slnXsJrjzyEugO72b8HcYx8cox93cg+i3V30OqTRV+AXtJzzLRZWHPrneimcP/NI49iKz3sk+y3I6SlvJXxM+cgEY7i2GHx3B56iElrY9HYiZi2bA2aWtqxf/s29NPACBfIl6DhQq91wvzFKJ08FXuYV0MdFZEGLsuUsjjO/tz0+qs4uHUzTrFuTUeO4PjevThx+gwmzZxrvHD80FH0NJ0hbzr0sS9Kxo43rztCZaYx/sTvfovXyCvH9u2k8bATe3duQxOVXrKLAjsVMyNjzup1WLLxFhyikfLgT3+Cw5texpljBy3+yTNnMHbyZJY5C4c5DtobzyDENFqc0UcDZsnSxbj11lvR2NSE3/zm1+ZhZOEpIvI/j1pnmQxEMX7hShRxfPXR4Pn9Q7/GrqefwAnS7RCNcH9xKaaQni3tXeyTHQilaTwqPf9ye1t9r7K0YGHNmjWYSAPxVY6tBvKzZMNgRRSw2a9pU6fik5/8JI1TPyrKK3CatNy6das5A4P592Ih2wIposuneYaB08R01XgsLSvFjJkzjGgv0+V/8okn8dJLL6OJLupEMsNcWiZFJSXsVHYDGeFsqKHqfAkRDkB/yDwgWe4Beilz506l5UBrJRVHOhlDJAx6NVNQXhbiIDqAxjNt7EAphCA7x4cjxxqwb+8pNLfQqk+EqACjDGF6NP3YsY1M2XoGleUhRCKy31W0nk2IRcRyvYgEU7TajuHJx7eQydrIuFq5FaElVYgTJzpsmtC6Q9xq3eKFXJYTPCYRMzqGVBD7aEY+TlZNUnn2xlL0ehIU4v0oovVcqpn4znbEKdj7e7ppvdMW5XW/5vQ1x19eSY+nDq0HDiJCi6kswAHW2YZ99KgaGk6b5ZqSRWyKRIsWqHD4O+ULI0EapalAXXslsBWDLfeFKGTCSFJoaTpFU6l+1qetuZGW9mHEWhvhS/QhSCEflLDr68FxekZ1tHZBBRhlnVSG2ELTaJouSzOvtD/Ctvqwi0bAyZ1bkO5tZTtjKKQCQXsbuk43mBUvfiqjlTmFwqiPHuJLr29GI/s/GOtDVDnQcGhhPXbs2oVkKIpxHPQFPFpNWaYNYGpACW7Vo1ttoFW8eP0GlFRUYg892lMH98FPQaspOaeEPAztNyF733pObdM1X4o6swOd3SfR0XUC7V116Og+kQk694J+n0JfvI1ty7zDNFwxw8LjlEyCIHmYirSPv1uotLXwJ8R+i/rS7Hu2t6MVnU0NmnpgDE0lsaZMI14JVY3F8dPNaDx0iAYNvR0aH/5YF/ZQUWhVaz+NsKTGnRWnNqcd/2g6mwG2KlW84nhYdZKXkQyErD4aMeIfxenpaMfJI4fQ3cR8ySvG3Ryv8q6b6K0dO14Pf1EFInq3i/2jelqeLFt5UDqzTHp8b2zC8e2b0R/rRJS0i5Jf/O2N6Dl5jEZEnN0cQFFFDWbR225PFuC5l19B7PgxDqo475MG5IXT9FQ0U+CvGIOaGTPp0dATIY+Zcif9JNCLiors1RI9X84ak1l4o1ZjXc9o9YxOY2TX7t04s28Pgv4kKkOM0dGMeipzTSuHmC+iRWzPyP2tRQcqs7Ozk55R1M0cmcs8GOJpORwtrS04yLGuZ0PtHR00bA7QKJfBN0IBFxlnU+pyQsypzuNR7qWIunnTZmx/YysO0OLa8vrr2LR5E9rInOMmjEf12FoTFJpbF1ufDV1zoYCDI9bnx969x9DU2IapUyajlpalnh31p/tQU12OeXNn2aq6nTsPoZOd48ijSRqtzEpRNhZj0YL5uO191+MP/uAufOIT9+Lzn70DGzesQklRKcIc2BS15DYtAWCpxjeqm1x3sA11qKfSAfQMppzCp4hKrpBCRUGKTQJdwskTWV79z4baq1IUJKjNpU4k0UsvMUzGXkhPZdqi5fZsJBhh3rTYA7wfYeQQhaamRWTpassavaCZThegjRZUoruLcZIoTMdRxDg9ZxrQ1dRoDVDNvGGUrSOhCugBrAVZ6brI+pEOKsasWw4AP3/bsz2GEC2zWiqJBQuXYvU1N+Kam2/HzbfdiY033YyKqjE2WIISIi6rATJoIGmqtLOVA/XQPsRozRZSMEXjvQgn+xCmglUvaDmw0pRWVtC7qkYXDZqe7l6ki0pQJIFRUorSinL4y0vRQyGilVGafgxQYQkqToqT4pMNSFPBkwTBKOYtX4up8xbSqDiOHS89hxgFpDwoPUNRw62+XmUN7spwUCxNlZyhJf/jH/8MX//6d/H1r30b//q1bzHw+PVv42tf47V/vZ/Xv4d/+8YD+Nr/+hYe+vVjaGvpsAf+58h+WCi6jJae7m50tnfa5/KXrlyK8cuXmAehRQq22pH97QwHCi52opa0+6IRVDBOOhimh3sSSRo20QTpTiVUxPbHW1rQcbrRpih90t4cl5qac2KXQV2ifiE/uPe39FuVkhKX4WZXMoFlk0/0rCjkL8D4ceOxdMVqbLjhFmy8/U7ceMdduPp970Nlba1NxYU5NlOkJRMxe7VSBi15hQqxo72dXtB+pGjolPBaSEcZZ6xzIdsVUVVJymhZNcaMm4L27j4awFSJY6pQXl2L0nIex9TCVzYGnX0JdMWTKK6sgo/8qWlotUces160Vxu6qIjcyk5RmrRgO6zdA9C5qyfv2LRvJ42n/l6OPfJwIN6JgkQPEl3tZLoEZWEEPi2UyaQcCZrV0rZCGjvl5eXW1yojVyHqq9Tqc63m+8EPf4Cf/OQn+Na3vmVTeYorJ+ByIFvDKwZ6EEvlQiF5sv4kWugBSZgF2ZmibOOZRhKxFYFQECXlZTSu1EEitks9Imix+wuiOHroFA4dOkElVIM5cyYhEqIVne7BzOmTMXHCOBynhXXwED2WOMUZLXqxUj8F89w50/Clz38CX/mbP8Uff/mj+OhH34f77r2J4X1Yt3YlKsvKWW/WRS+jsA1e5ztlEaAiA72pOF1oWpcpKhza5P2I0NoOZIKfwVnfnjizBg+ce3AqyP4YX0rPKWJ6KLEeHNi+DXUcdLOmzMC9f/BRfOzzX8b7P/05XHPXBzBhzgJatWGWQeGifHnsV50pYFV2khZVP61DWyBApvbznK4b+vv6KItp02YGVi6Uj6YLnILib3aE+kJxZdfqtxaMKKbRh7ED0RIsW38tPvCpz+LOj/8hNt51L9bddDvWXX8z1tDbqKqucQNXwaSXTjPqj/nqLN7Dwd7XTW+KypVKM8pjiHUMMvhFDwaNKVNmHJhFpaW4/Y7b8dkvfxmf/MKX8ekv/jH+8Mt/gs9+8cu47rrrUUwPLBzSgLenQ9YWF3y2cisWiGDuVddixXU3oaGxGU898jDa6U3JC3PPsLI0GC1s0LNdfb0xHDvWggP74zSU+um1ewEW9uu4l4bMfp7v7aUx00mBQpqq/0cN8ZFoIgueraISO7RjG04c2IPZM6bio5/4JD76uS/jA3/4JWy46z5MWbiMiqfYFhO4pE5ZBClsRc9YLz14Cs1QKo5CDtAi5llAXol3dSDAMrS4Q0pMgtajjZ5JSjGJSDldmwmMo3uiiQLL0Aq6cEkZll+1AR8ir9z90U/j2jvfj1U33oRV112Hdddci2oqCmXmp2UvJWQeO4M90lc9mE+CiiVBA03TpyG2O8K6BcjbMiBklOnVzwT1iRZDxOkZFZdU4J4P3IfPkUc+8bkv4hNf/nf45Bf/BJ/70z/H1deQV8i/pcWlpmCcoHe0VZsEW37N62pGrhIQRI1MNEOggIqBxo6f3h5oUGnM+UnTgNVRXnvCPfdiPVXWcPCUh5SfVnuqBPdC69lQPp5ifOONN/Dd734Xv/rVg/Y8Sfl7yvNS44pSRGIava+i9fhaG9/d1WnnpI5ZaHKPk7G4bfKnKTnNiWo5qyNgJpNB0EUKUDEnB1SIwqS1JYF9u47ZfP78OVNRWlJMZRTA7FlTUUjLY8fO3Th5qomdS6FJJkqlYrTGKvDRP7gNN1y3GG3N+/Hzn34D//3//c/4r//lb/APf//XePAXP0RLU4MRU4NcMEbkqQ0I1rWf4ipGnZfQ9AEZVcogrTlyDRrGU3u0jM6mGS0LU4E6GQTdcgpIpbkhrpgqVtMWJw7vxdMP/xrPPf47HD16BH0cWNWzF2L5re/HrZ/6POat3whfcQkSjK8X+zRoldhEheqcyVOjyl72I33FtCrXQXUaXC83uLIxVDO9L6UH3oqraRktTTa7OBDGojXrcNVtd6O/egJe2LUfD/z8QXzzge9buP+HP7J3xuT5uMGsOjEX0YdQOcYnFCh610UD3UjHeAPBYrpa2hJwRtB0SeOZM2hqbkFDcxvqGU4xNDa14uSxOuzZ8gbqKOn1jphKVNlaSm3GAT3MeavXYe1td6GT5T7x6CNoPLTfPDEpP8d8rJmRxWqrkwyydBkKU7ZMK+v1phs34N57N+K++66mcbOBx/U8XsXjWtzLcN99q/GBD67Ghz58HTZuXENhWZjJ5cJgwoz/Ctk5pw/sw2M/+wmeevgheusHyCtB1M5ejJW33oPbP/UFLL32Jnvu2E8aanG0vBNbtCDlZFxHgcu/JPuqX3TQNB7zN2GnLleBA7QQf6nNMkjUi7ru4ornbWWn3pfhNaVTEZpqnrlkBVbffCcKKmrw3Bvbcf9Pf4Fv3v8AvvHNb+Pb3/0eDhw+bKvatCRaxpI8b3lCrnbMhOf9NKwC7EcpQtVP5SqO6XFWVHG1riwppcHQ1xczY+Ok+KSF3hTPj5NvTjHUHTmOna9twclDR0xZqL7Gp0pPmSXI4/Da5gUPii8aZnmF92hIUcCxfv02YxBgP5gBJ/7WdBnj2UvCGaoNB/GSpuf0XpXapuXc6mstNR8Krz4mO1mGPE/jxcsIb8xeERApYrS+NV+tjtDiBS3HFEQsvV1tXcF/uq8EnqA6G7rqBTEIGYBCGWk/B91xNDe2Y/rUCaitLsW4saWYNXMCXdsYvaET6NU7KL6Mndsfx/y5k7Bg3kQcPbwD3/3Oj/HjH72AZ585jE2b6/Hqa604cqSZQpGMRKaW0nNd6hhcQlCi0YJ5S7wjqjOYPrEWueuCztyV3PoPhQZyJq3lr6NoQguSTN154iDeeOp3ePhH38OPvv1v+MmPf4TNVLD9ZWMwa816RGrH21y8DRum0dxwQYACgl6m92KnY1bWmm3Si8VO4LvB4Mp3ikr9YIMtIwTUX3oepJWAfnkjuq++4kCKM0s995kyfyFi/hAee+Y5vPDbX+PYay/ixM6tOL5zGxoOH0Q8RuvQaKmg+mTayJKZu/vjD6/vTRwwf1crgtftrXT+04a5alNHRyueowJ58P7v4Jff+y5+oXD/t/Dr+7+Jx3/wXTz1kwew/elHge42ksRtqqvnUD20l+UdrL3hJsTYzpeeeRptB/egmAqrkPwpRaQyVT9HG6/PFIZC9x3UGtVYvF5VUYnb3ncTlcyd+MhH7qG3/UEeP4iPfuQDNIAYeK7fH/7Q3XZt43XraIRJsasHJeiGK+vcEHfT30HsVB12PvUYHvn+d/Hjf/sGfvL9B2x1WiJSjGnLqfBqJ1LQU0mIX+l1pqh8xQb+ANviMzVkvK8gyyMQlGfPWpmh5PEL/1f/KCEFn1OGZAZvKpeQcSGSOb4ibzJepKQc0xYsRqqozJY3P//rX+PopldxaucbaNJCAyrSFMeseEUP2SXcRVNHXY4/8Yf4TzxpNHJ18caM+EZDMmUJ9foIFSmPbc1NeOaXv8BvvpfhlQe+S775Fn7D8Psf3o/HH/gOdj33NPzxXpsNsHHMPLt7um0s6TnRSB6J41H9qT5qu1OcNob4Z1xMeiuo/oK8SpN3I0D3ZLhJAWohl5SPHmsohcthZNgLyazz5QbbIAbJ/LpMcBY3/0i1WG8f4r0xWgU+83jEZPrTA0EFMaxWeui6XiBTB6ojRm5Dpit4XxaSnxb56dNdOHigHhVlpZg+rQTz5lXZi6VatlpX18aBFCFDhpinBhJofYYpjPtx8uQpNJzu5r0iRKJjOOjKeQyiZlwtQuEomVAPdsniKjLDRE6cZ9nBWcGMZdxL2jP47OjaL4vN0p8DaqoVoSxciZlAsrAOxekYyuJdiLQ1IUVBc+zlF/Dcw7/F8WPHUF47FtGqanvQKlmh9yDisW6NQ4QLIyIrz0knCm+Vo4eZ4UjU3uNRGebZqK76kyxRuYzLBLY8PODXS3Tsr1AUwcJipJhxhhT0BtkDgRAipWXo7OpA14nDNAY7UB5KY3ykHyUFCVSWl6CQHpseaCs/W2zCoagK2gIJCn4NUNXNLEv+SRzrpdwsnMUr6nd1d6GnuweVpaUojDC/WCdKE92oTHShMt6J2lQ3KnpaEGyqQ6izEZEkVY/KYd93J9OYPH8Rrr7zLviihfQyH8XRN15HNNZj3lAgnelvV2imP4bCu6JYAzEzB/rJpFtXZxtefOkpPP74g/j94z/H73//czzx+C8ZHmT4FZ74/YN4/LEH8eQTv8FjPL7+6rPk/W5mJ45m+RcwgFWyCTj2RQGFeCE9/rJED4o6m9B/8jCOv/YCnn/kN6g7fgzRMTW2iCUh5mA9Y/EY6UkBx5/FJSXsEhmHes7FfDXFFI2gkMqjQIsSMv2WIpOpb2zhh9wc5aV/HMMhGivqP38wTLsvxNv65aikeobId8XlFehluaePHwF62F8ch5MifhTT6SivKCW/lDEzpjDhLeHPzMXYyoOXpSCk1DIUJ+wifzsDx/k0Lovu9g70trejLBqm7OG47GlFaV8HxpBPqjmeqsk7leSVwvbTCPe02fNIcqblL149ffo02pm+vKwcFRUV1gjXIsHVwHFL9prqpxfFdV3dOLANF3/LG3c0ObciUhopH8nL8opyU4jaAs3ebZJhmVH2HiTXbMaB9deiBqW79DsrDIZPFbC3b7M9dVkgYolo2ihQa9oTtGSnTp6MivJys2q7e3vRy6M9fB4zxl7I0rYWRkB20iA5dBZ007nQPn+YQjCNXbsO0BroxaqVM7DuqlkIhxLYs2ufPX9y9qLca7IZhaoeCsvTKS4pYh2DrKNc3yTaWrsxblwllq1YiKKSCCKFQVpDFHY+KUgnJKxspu2n0NDaIRMcjrXsf9604P4Gs+lIUB4Syt6fBJEGlgZ0pKjYGDPBwZvo60VArj2VUzouH0gPnWm9Kg8KBHmZSdK76eQJWpZ9mDxjBorGVKOdrktbLIW2eAoTps9GzYQpHOeih1cz1pV06e3SjhIU8lRuWsrdkSpAc18SHfQ6a6fPsveM9LKjBpsbZVIYacQo4KPRKMJFUQrDPqR62ikEWtk/acxZsBDV4yaggIJJCylYyUyZGQGqKphS0on6Xfm6BSUmePRH2ojmMlzaW1pw7OABFFNILlq0EGUUXAl6XCnSR9O8sZ5eO68sKUZFMQ0QKTrm28fBOmHBEqy76wPoChfiwcd+j72vvIZYRwdiTKcFDpqm6+HY0RSSCVur0Uhw9XXI8IV4nvTRc8/f/voZ/OCBF/DA/S/j/u/w+O0X8P3vvoQf3P8Sfsjwo++9gp888Cq+/52n8NQTW9DTFRvgoAuBlcxEBfRyA5EIFS77MRZDnLxSoGeCiV7ySi8jUBCybvIKtYRaklrvaNXXH0NvTwemTp+Gktpx6CQfdKfpRZBnaqbORM3EyczfKR8FeSJaMNDX02OvXJTXVKF43Hh0kwmbezmGSTwt+R43ZTqNFBoxGV7RnxZNaDsmPz314uIizX0h1tWNro5O8gIwf9FijKmpYXy/GUvm4Yis1tIMvZmX9JI8H2u7d53BOxdbhalIOlvOkFf2Ylx1BVYuW4SiSIhjiF6OHgWQZxJUwiQUxpQVoqSQ3j7HkrffnYT5kSNHoN1gamtrMYm8b6/EmCJwNRLEmtYBVrYOlDHkX/GOonn8q+lGrSTUC8Yef48Eb3Xc5EmTbUca7axQX18/qFwPNsNAvpPiuv766/HVr34Vf/mXf0ljfB7vkeqyMi4D/FetXfe3O3fuZB+LqJenEoKI5p4RpcxVHEOrfRyJKoElogXCIYzl77mLFqBm7FjUnziBg/v3o1fbijC9+PfccBE0L6q20rzC7DlVDGSaCdVobu6gJfoajtV1kZmLWB+3hxX6e1BcVID5C6Zj8uRapk/Zmv1CKp2FCybinns2YPr0SpYfN8tox66DqKtvI+OEzIoJBRJYtnQ6Jk6oxfad+3DwcAPiyQiZTauzjP00FKx2Z7PN2TDRo2rxXINL6aTA44kUIiVlWLvxBtu+JhVmGyJF8BWWoGzsBCy9ah1mzp8LvRuyd/NrSLTqTW0ppjT6WA2thpIQ0RY68VgSBRS+k+bMx5JrbkDJuCk2oI7v34vTh/fbez0yXhIcRGMmTaUAmk6PMIJkPMn0pZi2cCHmrb8GgapaUzx1+/ai5fhRBJMJE1JlVDTjp85AtLjUdmHQtk2FlWMwf+16zFy5HolQsQ3wpvqjOH1oHwKaAmFdJZQKq8cx/6UUxN04tncXEh1tpLR74Cyq2Bg3kFLkpx7SpYue89jxEzBjxkwaMVXMh/HYvlDZGBSPnYhZy1djzTXXoI8Kqam5NfMS7Fisv+P9qCYt61qoKLupqCdPw/QZszBtzmxMmj3HXuAsr66mYUOe0YNl8rD6cngMVCwD91v/y9sU70sJyiO2lYWkrZR9gUkkHtlH9qSmP8AQ5jV6rzSY5FG7XIbmPxjeXfcekdsd4eqbb8W4WfNsGg7REgRLK1BYOwGL167DjPnzzcLfu+kV9Lc3sSRn8HXSOKmcMJH8PJHjooQGYpxKLYLaaXOx+rpbUEkakRlQf2gvTu3fhVCa/cu+08Lr6mkzUT1pIkI0QPSMLxSKYAqVvT2L0lJ9Kpyju3ag9fhhBMg34s2K8eNRNWkKooWF1AExuUkIVVZj3lUbMHvVOvQW6IOFEXSfacDxXdvsQb+PxOolfxZXj7WdFNo6u3Bw5xtyeRAkIbznRB5V9FN9EGcfarunSdOnY+bsWeTPEnsfKcgxFKCnVz5hMuYtX471112HJhpOzc2NRs8CGp3aa1J8MHnyFPssw8mTJ7Ft+zaWQOXIdnheq2SKgnzpOI3aGYtXoow8rd1E2k8cRaHPLfLpIrkjVeOwYMUa5tuDffTEffTCVH/JSpeb+lMvN2uWII1rN16Lq666Ck888QRefPFFNz3ItuUqJK3S1D54Y6qq8Md//GUsWbIE8+bOs2m91157PeMZZeNfPHgtcPXzb9y48W937NjhtDeJerngtDErx38ilOac9RB3wsSJmDx1CqbPmoWZFACV1VVobGzCrh070dRwmgNUdpBLf27oPjuQHadnG7FYO626asyfT+FUUYktWw7gyad2o71DdaCi0OBn58oT6qDnFQwVUGlNxZKlC7F27XJs2LACN920nh5QAV566Tl6VykqzqnYs68Oh442Mr0eOPqoiNJYvXohpk6bhh079+PAISkiPTuR6FTds0x1IbBhpKryTw/VtQNEiIJh2boNmLvqKsxYshyzl67AvGUrsJxKaMrMWbZb+abnn8EZCnftn6bB7mPaLnoFvVQilTVjMWfefHt7fO6SpVi0ag06qLO1p1tJUZEtl244csDe/VHbJORTviDGTplKAT3T0i1cuRLTKcQOnWqwQV1bXoqGA/Q0jx1ChAO2j55sFxVdZU0tps6awzQLMXfhYixevRaTqfh27jtIy/IYpk0YC3+8G/UUZqBVKptQq9fKasZTuKykpdqDo3tpQHW2I0we0OSG/gaBdWQT0dXZaYsVKqprMIPKY/rCJRQAyzGPg3wRBdr0RcsQKS7GIXpOTWeaSEsKQAqd+bwXKqtEcVk55s+ei4VMO2POPEyftwATZs7GPNKolB7W0YP70UdPyfaas45xxZ8bXiRZ5BQ9KXrS/YVMT49WhlAqyk5mSNNr5HUFpBX4G1HSXy9Muz8vn3NhIBaZRotlCuhBLCavaAeB6YtXYc7SVeSVVVi25ipMnDoNXe3teO3Zp3D6wB5EU5qGpLANBtHBPu3u6UMtPeAZcxdg1rzF9EyWY8nq9VQ2PttvrriiDCePUBEd2EXjI4YQ+6E7lqDhEqDnMxkTp00lny3AspVrMIO0P3LqNJpIv/HjanF8zw40Hzlk7zRpVqSb3mclDc/ZKmvBIsxZvAwLV61lHyzE3kOHsX/ffkyngRokrxzdsx3pPu3uQceFvKKl18vJV92ss16cTne02i4ZnkfITjUAAGRwSURBVLHg0W7AeCGztLa12cv0tfTa5nP8zKbRM5d0mcu6zuN4mL14Cfz0lHZu347WxkbmR+Ui/qMi66PXpA1Or15/tf3WS6U9vT2D5Kqe90gd2SpVyqJFq69CLY2kQzu2orXuMKJstyabe6gPiqrGYtVVV9Ob7MO+La+ZItKjuUGKiOXIsC6m0vzIRz6CstIy/PBHP8SxY8fMSxv6/Edt1uo67cKwdu1VGD9+nI0byf+nnnrKjOxLA68Frj3+66677m+3U3NfbkXkweZCySea42xubrEpObfCjK48r2nvud3bd6Dx1Cm66rIeZGHkNmskuBieqEqk+qjwutHa0on9++vxwou7cOQYrWHb600zv5RgWsXDQaTdiI8dP45TDfW04Omm98fR1dWKnVSGv/rVQ7Q+9qKppYdM3IX9B07iTGMPC9Imgux2eg8FzKexsRW7dh3GmaYeVpsWLfPVddUoK0xGD6/NtoMyBVk/FYp2V2hoa8fJ1ja003rUw/U4O7mlvQO7du7Ay888hbo9FA6xbno1FEYcrJYL82huajEFr1WK2glYz3P2UoE89+zziFDBTaSQOHFwH04fOWiKyObGNb2iz3Fw8GpKtZdpm1tbbMf0rc88a7si9LU24vTBvYjzqGlCeSktrN8J9p8EGkmLPv7XcOYMNr36CnY8/zxaTtQhTeu180w9Wk/yXNNGpJOm5tJspzaqbKg7ikYGsNyQjBEaDDYl51pk/zM6PQuekbebKTROnKhHY2u7vfgY4/1ODro6Wv079+zGSy88i2OHDyLJspRQ00Q9HLANDSdx8ugRnDh8GEcOHcLho8dwiIpS209pVeLxQwdx+vgxJHu7TRGpngOCbdTQMwA9DyPvqS+td11wS23FK+6+O46O43MxwGOiE5Nr4cip5nY0kP/baGj00NPRdLf2LDuwexdefupx1O3ajhAFfLg/88Ku5cP+I6+cbGhENxV2gfbsY52OHTuORx591N6tmURFc/IwjZYDO205shQRI5H3G9FKBacd2/Wl5Q4qrU2bt1LhPYemxtPoaWuiF7UbqY4mU3xaBSfFcKK+3jYbTflCiNH4aWlqxqZXXsbm557G6WNH0E9e6W48hZaTx41XVFdjbXoc2ibo2JEjOEPlFuTYlXeWpRx7iz8kiNVv4hWtDmxsaMCRw0dplHbT+AHHEWg8JdBAHpKsfIU8eorlFsRcfvaeHNOKt/XC/XwaYnPnzqXhucO2zRkwsq1Erd5zXqmerbKV9opK3d7dSLY121Ju+lDQW1zauogshePky6ajhxCI9/CqapuFZLYM94ULF+JjH/sYNm/ejN8+9FuOYyfPc70hwZQY66Jtfjqo/Ht7+1BTU20K6PHHH79sisg2Pf3e9x6wuX5p16EVv9RQ9UQoW/LsY7fZwgQORAa5jdL+4jIbimqAd85w7pq7GMaGYsZ+Wi+BOML0WJRPKh0wBaFjOq0cVQ8pCnkcEgZ9TNtBSyIJGj22MizeZ7vlMIqmVnhkSNETSsrjkUekC/0x228uQFOGcg3J/hCZjOxm0spqw/Ltf/s9Wii2Wd/uzFY2xXnslULSi7W0XvVODFj3tKQ9hXGQzKdVdSHWyd4L4p+6W/PQCQl45tEfKYQ/qnecqMR6ukkLPzbc/WGsWrMWL/7+EWx96lFEYnpXhG3hsEjQI0oGKYxoYYswUmRpvVXOP21mqu2AtIOBjwJJj6Y1361NLmMsLx2mhR9yzyn0DAsxKhVWKMT77HrWjYpL6SSUWB+JwgSFUTxA+rLVmoYJkyf00FhGg5bDG0UydBF1HVVpTLA80SYRiCIVoufBuqa1aivJDpTVmGA/0fKXUpOvql0AEhIEEqIm2MSPEgMKusa0ab2HwjrQ6g8zj6CUO+/KaLIqjAqqoSAG8s4F5ZAbdF9BGHrv/LC+zsTXKwPagSPmo8UcJP2DUQRCUV5hLNIyTW9TxkakIEXjgVyVZj+I/kxum6KyD7r97IOiMsr6CO/LyqbHQ4979Qc+hDU334pXn3wIWx/5KcLMK8p04s9eBtE+HSZ/qf9J6xSFqOivBUhkFwr3HnrOGW+dpSYZT+JX04fpaAkrIM1AQ49KRVOyUgJuRa1e7egBR7Cl1QIA7YunttnO8uyjKPtLSsrRI0O9jDFo1FUfkz+TVPh67UF74PmL3KantqiAskd8qneQwsxLIaDnRKyH8tKXA/Qy6y233Io///M/s4/ifefb3zZPSatIbWEVy1DZomiCvJUg/cRnAQqSiLxHmki6q9GSDBbZjIP4WO8ZhW2LH7e6TrBnvKSdPJy/+Mu/sGc+//Iv/4LHHvu9yXJh6EIFwVNGMmhqqqvxd3//d6aQ/sN/+Pem1C4NBnqAXZq6sj4DIQwaivxhyod1S1LAFZCh7ANajCUF5ETN4DQjIxOLB3WknlWAbJtIUjGkJNgodIylXLlOmukXr9k8vJZTUogm/LTkC+hyS1wVs8NLGYuDiyGV1so5MRytVsb39fthb+rzdzKpFURiKr33xAKctGQ89zdQv1Eim0L/My8pV4agQooDhAM1yIEZ7Ou2aYsomVzLdUO0biVsHMSMGoRa/ZOi5ZqmcI+hv6cD/l4qGyoQ6eRp+izHxAk4SsvstCwz5iVxrJJlEeqZUTBB67C3E2GWq5dLS3g9xHhB5hHQABpgfqMkhVya9/vg6+uEr7cNkUQ3SnmNVLSXJE0Ash3aYFVp3LtTzEOChwI/SCEQpBCwlydZlrE0j/yXoYiEitqo3/qVtpdfg1TEQVqy/p52BNnGMGkTYZsLeS/EfEUHvXQp7ybM8qOsYyHbEKEHrbfeJSzC2k2Av5UmIgWkgSReUT1UTVfsKJGp5EAqa4k7HTh6cYTc+28Gjt808yBekWccppAL9nYh0MPQ18W2sQ8LpGSppEnjgVTqCB419aWdp8VjPnoj/d1t5Al6t6TN1PkLMHn2fHrP+3HqwG72I/NhMqXX6w0aaaEY+5ceZIBlFpI3in1JFGVoaXvh81yGkkadK4upaSgUsG6heAeiqW4UFegl5jiVFvlIPJJ5NmSryo0nqMZIJvGKn4La9e3ZQlnGpnhDRp0LBTZ9F1Y+7GdtXRTo6yB92hGJd1GZxVgm28QyxXu5/SFjWTTSNkdz5szB2qvW2gc96+jh6xmMrRxkvsanPGqfOvm/2s1eYyjAOqouyk2ep17M9nhWKzQz0snKEmxajt7lwkUL8eUvf9n2ivvpT3+a49Vk4w6F6qlZjBUrV+B977sNTz31JDZt2mzPay+NM0ICZKDyBisiE85XBhwpJECkCsT87Bids9ImbBQh05Zsk84FF0tCyZ2K4FIMIf4O8Vws4Qk03SfsqBRypXWkgvHRcvTrYboWNNCaTLmdEaSklJ+UjquxG7guX5ZFKytFy1FWpYS/l7fzhtz5hSCTPBtYimrohHy/CfoIhQhraFaiBI4Eu3uzXa10UBoX3EDVYAjzfiFHpQaBvJXpc+dj/ISJOHb4EBqoiEJSAErDcqWQQownoaWtgTTgFWQpykOQsJOy8koTh8kq1T35hjQFQPXNIIFCgUBhVGD1VH1Ur2wTVZ6oqbLVc8rH9Zpa7+qjeIIdLZFOVE+WKeXHeHpWVST6qHzWOcy6SmC5xQLMU3Umn4V5rntqn2ihaRO1zc4zv7WppxMQqsNbhWtJNghei4Zef3MwvuSf6Oa4X/whGqSMZ7QRqQlE9gHNwIE06gnJB3mq8krUv+ItSyP6cHDGmEbf05k4bQbqjxzEKS004TX1k33rh+m0a4eVxTSRAtGRBgWDpuK8/Q/VRjNaVLb6I8NLepCvPQLNE6HikZGi9WZuAYL6zVHLWkgymbyQwcoyHQ8O4ScFXlfrbMSyTDsqjepEukTpFUZlwFEZWDvZZqcklU45OP4TJL/lZWiZu3belpI4deoUGhsbM92mkpwy0ThQ3cTj4mftdKFFD8pSUU0JM0OVJw9PCmooVJ5K1wo9eTKPPfYYjh8/bt9Kyl0gMRQS/JryXbt2LT796c+gtbXFPuKnpeeqv7yokdK+fcjmb/VRY3TREfXKgWqTtVL425hDlFdwncmzC4AXmy2l8Lc82bnyBkAGs+XWVBTyVizwrthFLrk9eyBnSGfo43WppL42ycA0WuyrFStesFplilItbecEO1cezIAK1diQCiqrhIRMoguAUnhBUI1tGokDV+4uz1hH/XZHxcudNrL4Ob+kJMUUWg6qpbNSnMYXFCZ6eByybzaRVszfXH7GVR5qodquLVncst0MbRiSdu7yd611ZVp8lsNirBzNHlp63RWNrJ5uAKoML0jo24BV4G8vKG+TNTnQbwvul6o70E/uq6KOh7xk6h49JzBjx9rE+vMY5z2tctJ+dPYFWKbQn9rnfr1zkFtX9bdWelofsF3aIcF2/VCbSAzjU40BF93o5qZ62HrFp/BMJckL/BO/iW/CJGBhwCk0UwQZ6uu+CVNeF1X1Z7zJe7rj8Yx5C5bCwStbteGgsylxm1Gg+FbQbIX4SPFcf+uelKbGOPNivpqhHspHA8HSqI36pfFBelgd2SZmpf7WIhmpHpkc4lNesvaLFkrjwX4zaGZp165d+NrXv2bb6IjztbLN0U71E11deVr6rfHEknOEvzuKFqqHgsW1q1l4ZW3dthX/+q9fs2fWgqbrhlMk7lmj9s2M2zTeX/zFX9J76sM3vvEN++q1e6aUW49LB//GjVmP6HJUYCSoJkPDWeDFYa+fE064ujy97s12sd0hHbwY7orY1PuVm+bsYHEy/5kC0w/+82I4uJyyZbw9GJpTbq0VcpWQ4N1x1yT8+StzUcNW7zGk9Fwl2Y/GU/WoP3wQvW0ttOQ0TaDB7qIrB1PS1mb+yg12VwMvW56D98sJOwUn4pzgU3Bxc3vibAxtTy7OTud+ubrpmA0ecuOLXmqTnhMpZOMrvYuTW/47Da4JbA/DoL7LXPME5lBkr/BM6XhmdKLqkWJrajiFuv170dt8hp6MrH4hSynjw4HgyhqgK+/zcA7obpZnXF3dVRe8s8yBwYnxgZ/DBO/MlT+UDq5uKssFL965IFmq4KbjlLeXwiuLQWXoVMhcytbUnXvhXJByEWQoCPJ2hkul+khB63HH5MmT0NbWiu8/8H1beejV99IhW5aUemaxwvftcwvDrbK4XBiOJG9PzXJzzs3xXJ2geKPvJMUczPxusIxc/5HvXCiGts77PVIJrq4KPLPI+qXB4yxALbnVq5MSMNqxW1Nb+myDPEqX/8Bwtd/DwyvlbDgh4HCuHDxkY4+U45tDbr4esvl7d9/OEt8JGLndQ+mlxQhaINBHR1WfLtBUnXlFGU/orfbb4PLcr2w+xr2DztyIG4yRy82mHhm5NTh/Czw5erZw9+onDJ+Pa8P5y/DgTaddKFRHKUo9a3qzebx5eG103rRTpVcgXBUHh7cHI+WYvZ4rXF0Q2dx5bryRwtkC9ew4g8Pbh6G5nq+E7D2v3u5/TVvJodP8vtbQlfr19oqe7TglpHhOwGTTjIyR77pS3d9gOKq7kIUr7Vw5vjnk5nt2/mdfeW9g5HZ7d7ygaTApnSJKlIpAAYrFKyZgXPrcuG8Guemz/OKFs8+837lhZJw/xmhz8jCyh+HyGNqC3OD9P1rkKhA3ZXju9N4UnW3fFXZfqL60SuhsXLGK6HIilymGhgvFm0136ZAZLNI6FB6urjbxZsyhZdraKl8r1Gyahb+zKsKlcRhu0L07kG3vYLx7W/xm4AwTrTq0d+fkCZlwcxyVx6XBaKbYPKVjz4L1jO8yKyHhilFEuYP9QsOVDg3FK3042uMsHb3QT4bmNXlEfiohWykkL8kETjZcPHhUu5hljA4j1eTy1+zKgccPEmpa+DPAUHlckVA/aQHFlYIryiMaJAhHGfJ4q/DEqRQPPSFTQAwZweKUjYvjTSZk/3J7wcvn3QW1yi1acMFrpXf93dnqC0eWDjrz+COPtwJvZL0XkFFEZJrzzCvm8W6HlI/3N7wS8v68a26ovDuHi9cyC2yuFzRgBoKu8ZiFl+K9CXHFcCGP0WCA2yxo9L2XJjZNEZkOuowt9oauV40LCcJ7d+i/vRiOvl54L0J8pQHi3ofJHEkMBT0rU7ABlEceQ6Dtd7QYQAsB3gz6yXzeMvfzwStLx3cqrohxJEGnwF7jkZTXwzZ14DmCF28g7UWBuGC4cC6MLu75Y4wWw+WUey03nAseJS+EmheX+lcSjHpp4zp7F0MbVyq4vcM82l4Kenh96ZX5ZpGbz9uR39uF0dZntPFGQm76kUIuznd/MPTl01596yrltkg6G0Pzcryjdw/1Uq3JwEH3czH4nl5gVVkq850KSvXLD2l9swDYEXqzO5ZI2LdhcoO2zcgNIro+D3zxldHZUPdfCLIsMxgXms/ocHFyfTswEh1Gi7eafrQYyD/H8BGfyULV7gO9sQS6esmHyTSvOX/J1SuXEy+8li6PCwtvBW9XPu8WvGV6ik8IvTCqbwFV11Tbp2xGWsV29lUqocwigjRlYJp8ZlsU2a3h+UqLDkpLSzF23Fh7H+id+ojlsm96akM3Q1t9AK+ouBhjx45FTW0Nqqqr7ANOQ0NVtTq4wtJqZ1sdbdmi5TIcdOfNhKGdqmveUcETQLl/w6U5O9ifGj7I8rkQeGlyy3O/vTsjB/c3+Oz8IRfD38/+yr2uMByGxhkaRoPh0nlBGO760JALEyYZ48b1jSBLVR8zA4IlJRg/YxZqJ09FIBy1z5SAwsD1g44j5TxaXEj63LgXGrJ8c/Zd139ZDBdjuKtnBw/DXRsNctONFBzOvjIccmPlhqEYLo4XhKG/Badw+m0LnZtuvAmf+9znbJ+5E3UnTDHZLgsDqQbLCdvaiCHMe+XBMCaVlGFSaQVClDH6LpO2MVFqD1I4Ab/uJbFi+Qr8+Z/9uclwfSbH9pojT55vGfflRbZuasuVsfs26ySi6aufEydNxNUbNmDR4sWYNmMGZs6ahRkzZ2I6z6fPmokp06Zh6rTpmMB43d3daG5qMqvAvmM0LEbbGYqn9uvopRGzDGEYBZVFgeXzrGFetFResrPSeFOJ7rfFVSBz6W9w7NEiV1goB5eru6bSvFJdcPBKFlzZ58PgFIOPQ+HlOFK+ZnBkbnmnCuo7HYfSITeOkHs/97qg84HFA5kbtgOz5T0052x8L64H9Ynz0Pmf/bOeQ4p5xQsCmLl8JTa+/wNYtHINEjScjh8/Sus1zrGjxIyrdFacUl0gbM8kBacMXeD1s34rZH6f3bRRw21B5c51GDTNyLwzZ4TOvHtORrj47sR5AueuiMvBBQ+517LB41md638HnWVI7K7qJFOmq5mMQpfiXCELl94rT+emDOy34PISTfS1YEdqZ3C4+O5+bq7e109lSH/hC19EJBLFQw89jLbWVvvMRVYRudK9xuiKeE7fQiqjTFlUMw7rJk/H3PIqaNf6M+1tNII0ZeelZB14rnopT718fuddd2LKlCn2PaK2tnb77ISnGK9MWGMMUkSOqy4jVB0X+D8rpG/bN5w8hSNHj2TCUQuHGQ4dOYLmtjb7lkyC7mtXTxfJzEbYQBge1heDOs8HfdHUFBfL03WNfwV37jOLwglH3qeSM0IxQiCge34E/UG6wUFmzs72BeHzh3iUUrJMMum0Rp+Mx3z0GWJ9bE6be2qrHMVV+gIynfaFCti5DTNLPzqo5a7+A+9uWHmuLdpyP0jm1zeBVGcLLMvRSnv+5qoplevoICtLnz/20qjdlhev24BUTDWPZ6qzn5aerD0zYnST7bX8eE9t0319nt0pBddGCXt93twrQ5/10P2g95t5uRrlBOWri6qLylTdeC1MXlCwa/qmDfMNsjw9v/HooworqdIonspRUNyQ0rE81cwZMy6N9SHpaa3hdX3xs3b6LMy/+nr0V09ErKwKyaIy+9yz+6SIS3nhUJmOZoODV5Oh4ey/4WKdL6jKssD9fvJ1SG/Zky7BIOlBegZCCImGxi/qG8V1KVVbMrGJfet33pCtrjiio+7rmvrQCuEV4znSz3bQz8TRda+tgut/xycab1ZWJr3xmerCc/GwyvV4wFFK8CihMaZJfikQ9bce4rsyFTweU33F1wq67tIy8IfGku0Yzt/aNdzpC3kg4k0XP1uug+qoF0SFO++8E3PnzsHvf/8Y6uqOG79rk2Qh2+rBfRcUbZIpTIwWY3llDaaz9OmULTW8re85iebK3gykDGS46/MS2rD0l7/4JebOmYtbbrnFLZLgfcfPao8yOBuqs6Px5ccV4REZuSTsSbienl7byvwIlc7xY+6oL2Ee1pHXw5EIxlRWop7EP3zwIOKxWNZKGhbqBBeSqYTN30pIqY80gAYxFE+175F2FNYO1vocgFnUDGJmWR9JWr+iVTKRRkqfyhaDMS9ZPK7flaeuuUqpo22nbpUrIWmWkfvGkj5olbSyUq4+GjCWx7mQjeC588bYqievKb0Yz+qaSkKfME+m9FvxqSw5ODMpFNsNvALWWQOM3S+e1WfH5fIrRw1cfbPFdgm2Mh3zqq7aJVvtUlA+5k0wjT4/7ucg0lSrhp8LusN7PM9U0gSG2p9g0O7Lev6iKQXbtJFxTCBZ/RiY1npK6Rhf+bg58TTiel7ItjoBpPxdmVYnxWM9FZRH3Oju4qpclal+MesxU6adMgeVaOn6SYPCEqzaeBOCtRPR0NePMH+fPlGP4/v32Hd5tKOAqyUTe5UYFRRPwdFV596VbMi9pjIc3DH7+0JgyoK8KB5KkHb6OmsiLt4Xj2unaEc/l7nrByMM6eUUtx6Sk0/EywyCU1wcJ0ws6rEj7bf1I4VmiuNP+YrRVGtXc0dz7aotfrE+tA7I0IJHzTwkxcesl+0QznjqR+UlmaXoytbjFR8VmjhN9/UpBvuGlSk51pl9Hmc9xDNWFftTevY4y1KtrH28aB/70xhimRrDpjiYh3hFaZXag/hEU3Jjx47DFz7/efOMfvKTn+LMmTOZbxFlUyi1/XnJVT/mX06j5qop0zA2AUS6elEejeJkZwcOdbSgR8qMZShNlhvcGNBY1yfJ9f2jcePGYevWN+wL1/psue4Zbw8DGW4KoqFo5ah4qZCtk/r/ilFEFnI6WUwpplGQoBPjRQujmDt/HsrKSrF3716cpCCQpWAsexax9dsNbt3y+VKorCxGbU0F846TafTxKMfsxoYm0JMoLgqjtrYchVF9aZUcwco4puxFYSEwcXwFZkwbi5nTx2LqlGqUlgYQi7WTETrEWszLwTGLygXGVJSisryIeXQhEWtDRUkAs2eNx4wZtSyrhPlzcOhZlyX3+sClHwovXwkQVx7rzQoqlQSANpzUVy3DZZWonDgFVZOmoXzsJEQqquxrqvost/ssg4NyE+1iGtwcrMXVY1E9ZQbKaicgHYygoy+BNAdIEfPTxpZSbGbhka7+UBTFFWPgC4acErHt7FUjKijWI1xchkKmk0qToLOWkSAJ1ZFWd2RMFUrHjkfFhMmoGD8R0Up6GSyjh8aFhJw6js00AaKKamoiEImitLIagWgROnppFNAyLh07FmMmTUUJ6xwoKqGgkXKSISG6iGIFbHcKfayzyqiaPI3xp6GoehzANnT29pnAUlwZH0ZTBlNCTNNNms1YtAyL112DLQeOoq8/gLG1Y3Gm7hhO7NttHwXU947UH640CTLVmecjBt12gtqOUr7ONxwShlxjXBGDyTNQmaOH6uWy8KGPgr2XGruIfT5m4lRUM1ROnIzCyjHs+wBpxr5nP8gQ8doTIG/JsImzn4pqx6Fi0kSUjhuLgkghWig8+8kzkdJKdlQQMQpmp9hZbwrjwooK+MIRCndSitc9paXPOBSxzJIx1RmhT44hPQpYlnZ/19dkI+y3MROnsbypKBs/CUWMm6Ll396trwhL0bBRKos0Ei01+xAij5SRVwr0LC9Ow4N5FdfUckxMRhn5rqCwCL3kyxjvmRFIsqj3+6SsmEfx2AmonEyaMBTVjOW1AHklZnV2sbP9IIWgD9LpGz+33347Xn/9dTz26GPGE2qr4griK6eIWFYmsY/0iJDHFlCJLawZh866OoSlmCjnTvS042BbK3rYvkSmD7ycXPlUoKRZZ2cXpk2dhlUrV+EgDfS9e/aaAtR9V/7Z6OuLoYvppEClkMSXlw7Zsq4YReTBmJZ/YlDHEg6OQP02BzqfikiftZUi6uroMGtH922gDILysBFnykzC/vrrV+NTn7oXJaVBHDtGgdKXYpuDLm2/vjgTxw2M88lP3MM4UXpix9Db00OB1I+Vy+fiEx+/Ex+690bcddt63HzjCmzcuAQbrl5kCqW3txNNjc0cRGqBPtfFI7MNh3x4/9034+47r0dr01FMmlCMP/rMB/Cxj7wPNzIPlTdr1mQ0NJzG6dMtpIG8gew031Ao98xJDoVYGn/oc9bB4grMXrUeG+64B6tufB/mrl6P2cvXYuaSFZi1cImt8mpuOoP+ZBzuey1KT0+tpBwL1m3A+tvvwZINN2Duiqswff5iCu8gxk2bjXUbb7RPLp8+3WDlSWBMnjkXN9x+Nyo4qE+dPIUkGVvWpARV0h/Cyg3XY/0NN6GnL84ym1lhpqN+KeGgXnHdjVj9vtuxZOMNmL+WdVyxBnOWrcLUufNtEUB7eweSWjVktePA97N3KBTHcrDd/IH7ECwfgzMUfEuuvgbX3PF+LFp/HeasWoe5i5eZp3amoQFpDjCJcT3LCZdXYuFVV2PDnfdg+fW3Yu6aDVbm1HkLEaSF0dpM2lOQ6HtEGaLw6EMvBUQx67vxtjvQQY/h1ZdfxZjqGkyeMAGnjx9B/b6d9Ii6nSJiWtc/A710HqgTXVmy+FOkm753JeFv3uTA79xgrq0JTgeNmdHDDRPRpB+honLMW3kV+/z9WH7tTZi7ai1mLV+NmcuWYfbCheSnNM6ov1kfe/7GxOo/X2EpFq6/FmvvuAtLr70O81avwfTFS9EXCFNJTMGGW25DAZVEw6mTZBUaBTT6xs2YiTs+8nEaHBNQRwMy3ttrH7RLMO8UjZJVG6/DuptvoaDvQeOpBhuTfTQOohWVWEleuZp8toQ8OEf8vHIN5q9ea1+D1afKW1raHO8xjdLpY5S9pOcYGjd3/8HHaPDU4kRzBw2JDdh49z1YtOFa5rEac5etpGFThOMc5wWsZ5AGlgyyEimEDdexffdg6fU3kz/XYebyVZg0dxH85E197E59FJLyYzpHUfVJAe69917MmzcPDz/8MLZv346hCwe8vhpQQqRrkHlMLCrF6mkz0d/VxfocobFdjOLKMhzvbMfhjlb0Mu9Epsu9PDxIbutrqxWVFdhwzQb7XPkb9IqkoHRPx6GQ4aWVdkuXLEUFadzW1mbxLp0yypZjRknm/IqAp3D65epnhKTmhNmTiITC9EYmIESmPVlfjw4STpJYac5FOg1uWSvJRB/aW0+hekwAq1ZMQ01VhHdlwZMEzCNNd724sIAKZwamTy9Dd1c9QwvL0CBMYt7cGZgzewoFVj2ef+4xPPSbn+DRh3+GE8d2YvWKqfjCZ9/P40yEgymbSw74nDUiBVhTFcbMqaW4ceN8fPpjt2LWtDE4sG8TXn7xMezjsbw8iJrqUsZO2RSYaRiFc0KtdsFfoNlsPwVw0Cz3tbfeiaKJ07Hj6Cn8/sXX8MSLL2PLrj2IkZlLqipQoOlBGxzOMgtSsKy67mased9dKKAFuXn/QTz3xlac5uBezMG/4Pr3oWLWIgQqamgV0t0nveQd+QpLaC3OQKh6AnrYXnljEvza7FIqJFBZgzJasQV6lqLrHJS0r1FCL2rKnHlIhQux7cAhPPniq3iKYevegwiUVeOq2+7GYiqxQAnrSoVGGxd+5q3hlKblHayZiGIqx2U3vQ8L1m9EcxzYtPsgtuw5hJa+JK3ranppEbaP3ipZKVg6BmtuuI0K64OIsK5b9h/GY8+/gFe370QsEKHCpkKk8vWXVLLe+oqaVB8NGFrVCQrX+WuuQlFVNbZs2YLOhnoUFiQQ1Ofy7Lmc2If9kGHC83bbAFwC9QANbZSUBVE2pgDlVWDQ0Qs+C2U8dyGAwlIJPZXtvArlJQFsY2GYIGR/Kz69obQPUxcuJ01omI2fhp2H6/D0S6/giReex+s7tiPGuJX0NAvo7WbmHPhHT4Pe8Xx6hldR+YdqJ2LLwWN45rWtONbSSeF9PRZScFfMIa9UjiUtNfVnXM1+i6Jw0nSE2Xc9pB71u+6y3kBcfMM+K50+i4QoH+AVfZSusKwcc5YshqYjtuzdb7z8JMPLO3YjHi6mYvmQKVF/cbmrJ8e7RoP0dQGVTHTCJITpAS+j0bP8hlvRmvLh1d378drO/WiLpVExbiLjRTl2ZEqQ06IlWHPLHVh7+weQLKlm3IP4zVPPsbx98JH/r7n7XuO5FPmQRUk0WR/Iq6gij8yeNdu+dKpHCpqqNOM60weC+MMLuq6NhCtJ48X09MrJ60frT6A+0Y3OEJVigfu4pfLQFLRLJWRz8RZqKc7Ro0dNoegz5VIuci50PReqk2aYysrL8Ed/+Ef4+3/4B3z1q1/BkiVLcvjj0sM8ImnuK8EjOgskoogs60Nr8ufNn2/E2rtnj62WkxWjLs7t6KGw+7IKUlpm24nZs8dj8uQx5u3U17XSEnUuaSrZjYXzJ+H2265GZ9dpPProszh5oo33AkaXOBXZ9m1v4Kknn8ZLL27F5i0HsGnzAezatRNFUWDxwrnGjHv3HkKP5js4HPTQMxxKYcWyaZg9swqTxtPVrjuOH/zgF/j1b57Diy/uwquvbsbefYdx4kQT3WvthKspCfaDNWkwE+XC2sU/9ZifSoFOH8IcjEs2bET5tOl4/pXX8MJjj+IILaPj+3bj0L4dOHJgNxpP0Mtro4KVt8BM+jiaxs6ag6XX3YBeDognn3oSW555Gkd278CuPbsRKq1A9dQZFOxBHN6/D6eOHbFPQSRZtdKxkzCZXlNDRzeO7N2Ngq4O+8y4LKsYBfj4+UtolU7C4YP7cfrEcSp09/FFfXDvRMMZbNq0Cbtf34Tj7M+6gwdxZN9etHR0oUrTRLVjcaruBLpamhEwSw2IcdQXj5uMmlmLUUYBEghH8PILL+K53z+OfVvewMHde3B07x40cTD3tbON7DP6fbTy12D1DbeguTuG35Emm557Gsf37sShXdvRSE+tZsIUTKQgkLfX2nwm8w0dCmvSZvL8RVhz082oq2/AthdfRA+t+2lzZtvnmVU/m5pL9pGWknxuqk3dZt13Dui+pv5iyRgmTBqL++ghX3fTEqzdMB9r17HMqxdi7foFDDzy92qer7pqHtZvWI6asZU4XleHOJWu44Jze0UmYDLn4mX77D2Ng4VXb0TtjNl47qWXySu/w9E923H8wB4c2rMTdQf24wzp2N3OMUCpLh6L0R0qmziFSuguJMNFeOzJZ7D5mWdwlIprD5VEv5Ydz55PRizEiSMHUU9+C6U1vZdA4dgJmM5+aOvowX4aAOnuDhT6ksZH4pUpNKCU977du9HMMaJPxesLuf0BH043N+PlV17Fzk2vo458Wbd3Fw7t3Ytm8sr0mbNQXlmFOnoRXc2N9vlzPQPuZZ2j5KHJS5fDV+2mcl998Xk8+eijOMAxcXjnLhw9cAAt4pW2ZtoUCcTZ7/PWrMOy696H+jNt+O1vHsbu55/DKfLnEfLWyTMtGDd5EiZNn8bxtA895M0QNamf9NXMiYT5bbffZs+Ffvub39pzG2fqCdkekjekq5JthfTcZpRWYh75ueNMEw6cOo4WqvAJNVUYz/Hc0NGBw62t9owoKblg/T0YUh5a4i2De926dZg8aTJeefllnDx5ysqwwZOph+L0dPdQDs7GRz/2UVvMUVlZiWbSWF96FZw89ep9sZBtxRXnEeXCsyR01FLEiRMm2CIFfV+98UwjknEKNdLKQibNYCg9G2hzLbSKOUjOnGmnB7Kf+fVj0cJZKCulV0RvRxmEwz4sWDCNnRLFEQrOxoYWejZhDlyxdoDpjuO11/bg8JE2tLSlQf4Axyh27eijMNyJzvZGTBxXhtLisD3klMfhGEBeTh9CQU1rnaQCegavbTqBM01ptHcCDafT2Lz5GI4f42BgEuM1WkEujMwMTgm5YIwjIcg2+qOFtHbTON10Bn0cmIj3IJDsQSTWhe6TR9F+8hh8FNABHxWG/kIhVFLRFI6pRt3xOpzevg1obUA43gVKWmx76Tk0nDmNhJidZdn8OAP/sWX0KVlhPZPi8DchLI9I0GBLZUKS1+VFqT36YFp3WyuO7t6J1qOHkepoBbraGdqQbDyFvW9swQkOyEDZGHuGE2dawc3Jy+sLoz8UpaUewd5du3Hw5ZeQOF2PQFcrgu1N6Dh2CKcP70eqr8+ePWhKbvLiZYiFo3h5y2YcY/5JCh4/6VHQ3Ypj27bgDSoxf0kZambORSpUSEVJf4ceQ3HVWKy8+lp7xrVl82vo6mhjDfSw3vWTozsFEX/oTwrhXH12FtQkwhcoQGlFISprCjGGobK2CJXVhaiojrpQE+V1F6rGFqOyqpg8rPQXUNYAnNryR6OkMT1/KtuGM81ItrQgSr4oJL9Ee7vQXncUTXXHUCADlam0QEAe98TZ80ypHDt1Cid2bDNaBpmuoOk09m7ejCYaGHrob/6amET0MMlLL5PpEzzKENEluRM2fqnkdC9FrzpFVSJFKWMmHKRH29mB/RSQzezXdCd5pY98qdDShCOvv4aDh48gPKaKHmsN0lqQoBkUKjCxjbycOPtHzw330mDY9cyT5JUT7PcOBHo60Hb4AOr37oA/EaOXQC+3pBQzl65CIlSMF19+FW0st7+3m42n98t61G/ehF07d6O4ejwmzVlIxRtlfdUQTZkmUTlmDKIcf5oa6+pmHb0OzkFWCfkQIO3H0CNfRAUcp9Laz7o10dPtoiyKse6Z0a3Ixmtn5+ZKUBAPaneFlmb2I/u2jH2rNLYgxbypLHStgwKsicZ8KByy57ENNMJs2pcYGv9SQMOJBzWSxzfD1xcJqpU6SwwZLeIApVWji2dOn3HPbXhP2t40/gjQQPCCn0olFg/g4MF6dFADTJ44ARXlxVRU/fQm4hgzppQu7RQkOBD37j5sD/HMzizQsusgOyuAUKgMk2g5r1q9FDfdsg5337MBH/7QUixbOhURDhq/j5ajmIYpVS+TE+xUTU7I49y99wgOH6XQ9ZUjFK1BIDSWjDCe+Y5Fgb+UTCqBboms/ueDJ4f0mFxBD0u7OWACFGwLF86npzMThWUloJdP5RNDhAxXSFrIowlRQWsaUNMSRVW1JgjayYwJCqFiei7lKQoltifW2oQeegkFKQ5GWf2qm9rEYIMq00ZB9bHfOmfeAVqYfidpLFBM0Nsgbaio9X2jipJCTJsxFYtWrcSKdWuw4rprMW/lSluRlqAiSFKw9CsM0IOU5OCVdd5FC+7MoQPUs+0oK0ii2p9CVYCBCr+MQloTSlpoUCQhRW+6mcKn4cxJChkfSkpLUMzBqjfS/YVRdPZQSdPTKays4Cil4UFhmWAZM6nAxk+dRmNjBxqPH0MhVVKQQi7AexISornrXw0k4xYLglfjc0ErsfSQvaGhAT/4/k/wT//0Lfz3f/wmw79Z+Ef+duGb+Od//hb+5Z+/jX/+79/Ar3/5O7S1dnJsjKaUoVAaPbfpozBqt3ddFi5YbF5xpLAQEdI7wkboG1TeMZhJp+cjxWMk8MNobWpEqqeNtI+jgoZWKWmeplLqaKinJyo/1NHCic/MmRQP85Gg0xXxhAlbVyUeXWw33cSu4HU/XaYw+6OsqBSTp03FwmVLsfKqtVi+8RosWLsGkeJixJSOxglZg0pQmYlj3KpMvWrR3dKO4/RokvFelNEAqyR/V/THyS9plLI/5bWJccuozCrHTUAz5UMTFWuqMIBwJICicBDF5RTsPG9taUWcWra4otrooOlosbfqXFgYMY9DK+a0IlZ5DoXVjtd9HIsRpp1FT6iK3lrdmQacSPSgNxpAQopaFLTZGPG/S+f+GwbMT0pHOzL0smwRsaREi6BIbbun3nAQz6nPZcz/8Ic/xNNPPW3HF+ntG9XYjssB1tVY4sqDiMiqpUjIyjGVqK6pQTddSg1aTYGdv9qKkI2kB/kFVCoHD9XR+zhtyxynThlHRtWKtS6MH1eNKZPH2YKDw4da0BfTe0K0vmkDp8ioWkn34Q/fga9+5c/w1a/+Gf4/f/EF/OmffgZ/8qd/hNtvu4FKjR2fwyle6VpMoTPxZUtbL/qokOLpAOJJrR6K8EhmTkfYTleWG6rCSFyXAw46/Wn5rFbR9fV148CeXeg4fQpLF8zDxz/1KfzBZ/4It9z7Eay4mnWsmczxriWdSkXacqBqYUSYFqP4IN7RCR8tswgFSZhKrZAKw9fTjTQVfwEHjkSvWZsZZlUeUoGujQysg/rFrDce5YyagDbhoPK0XF119WPekuV4/0c+gY985vP40Cc+jbs//FHc/sH7cOc9H8S4CRM5BoP0FELKjIG5swxbFmzKjY5eVyfi7a0IJ2MIcQAHND1Gy9zHY5D9ZVNlLDtUVMRujCBYWIQbb74Fn/6jz+GTn/lDfOqzn8Mn/ujz+PQXvoAbbrweNdWVKC4psveeYukCjJ0xB/PWbsCxMy3Y/upmdNFr6O7sRqxX20+R5lSrmirUgog+rfKz0tR3rNwoYYaA6B5P0uM+hu1bT2DbllMM9Tw/iW1vKNRb2LpF5w3Y9PpR7Nt7nELV0dTofgFQV0nIJ7o7cXjnNjTVH8OSxQvx8T/6LD70mS/g+vd/CPPXXIPycZPpvdD/k/Jgn4vutLIQIa9olqCXFnV/rAfBZC+CqV4aOXH0s08SDFqE4L5dJUi56M+60XhI+TkOdHawGW3efZ6rfuIpCU29zTNz3hLc+7FP4xOf/zLu/SR55Q8+ivd/6MN4/wc+iCnTpmu6g0qS3hT5UjMRLm/2BVlAxk+cRmVPcyMi5A3xSjjRixDPAzwG0lSaGb5U2/oDYURpoNx5zz347Be/gD/87Gfxqc99gfzyWXzuS1/CNVdfjeLCYpSX0mghH6scTXeKP/U+oJ4PJ7XSl3kOL1vVPh9C1GbTiyqwaOwk9JK3mhob0Ule7ouxPn1J+HlfbwMFSH+/5t1tBkh9kclmCERB1cFW+hJaYazyvXebPEjRKKh+L730Ev6v//v/xv33fxct9Ijd/REKuMhQv9tYv9IgIupdFr2cpTeVpeGbaAW3a5GCBgf/zg/FYUx1COkbCIZpCfTQMznKaz5bfFBc6EPYn8bsmdNQVFyIffsP0XJuYxFhuvdUFmSCsvIIPnjvDbjnA+vZwZ144YXf4Hvf+xf82zf+Cf/yL/8vHn74QbS3N5t165jPqxsL5akrn+42GcypDpsUo0B2gWxhcdUqb/iOBmIZKWul1BRkkOHo/t14/Fe/xKvPP4dmCovi8VOwYOOtuOGjn8Wdn/kyZq1ch/5wkT0sVr1kwekBJithz+I0GeC9D2LXWUicg8NOrEClcyrXMbUuuRtSFB6ji6HNQnVJCLaTglfTMrPoaVx9xwdQMXMx9pxsxSNPvoif/fp3+NEvf4uf/+a3OHnqlFFCfy5PHZk2I8BEvwS9WE2nuOdppu4y039O4bExDFQXvBbysS/7nWFRECpCOkTfJshgU3xh9HZ12bOllhPHmacetoUxbcEiFNdORGtPCmXjp9lqsjkr12DW0pUoqRyLPiqrYnrpk1asRO2MWcya+bEeGVs/8/+5oRczRZuS4hKsWb0G1117NW64bgPDNbhhI48b1zNcxbAWG69djWsZbrzhaiyjVxCl9+IzQTg6uD4gXIchSmlfv38nHnvwJ3jlpWdwprUVkfFTMfuam3HNH3wG7/vkFzBz+Vo3DSr6Mp0v4F4QNSWRYB9zHFrfMFsL7CPxjRsDDjrLDQYZMyyfQ4LpxCeuX5XO5cE4DOLtWUuWYMPdH0DZ9FnYeaIBv336efz4Nw/jB794ED/+xS/sRXfLkn/sEjNctUBC8tdeGGd9En0xpCXgyRPiFNFCQX1lkoTxNfVo02zkp56Y3jNifvJ4glF60VH34jLb3qNVbfv2op3GXkCvK4hfCJeH3k3SowTNm4oe/JUJrkQXTzZSGY3i+ZW1GENVWdAXR21JOaZVjcPsMeOwoGYiasinvlgSlaEIZlePxeTKMeRjvR81DJinaxU92GDIytBzIOszrew7B8Tviqc0mtbU8XLAmSRXKCRQysrLMWHCBPOCTtTVobe3lwJSxCXhrYPPBbXNtU8eETQPnfZj185DaG5qw7x5U1FbXY5xNaVYNH8aB1cSW7ceQGt7L3MPM42WXiawcNFUrFk7hwJyD7717W/gf/6vX+JHP3odP/vFNvzil0fxxraT6CGzu9rofw4vs8i9wKscJTJsNA3rXtgT60gBiZE1EBVGD8XNBq8Pk2TeHpzeuxvPUxn94jvfwk+/dz9++eCvsHX/YRRS0Cy8+nqUTZhi7+uYsmEqzW+rNtpxQvRS/ew9JQYJn3BEzC1hlKGnV5yapp9UZrIOZRzoT2d+ejNacZWitKFscUqN/RYprzSBHqyoxrOvbMLvfvVbvPzoo9jx3PM48OyzOPzKq+jTA3J1MfO2Qcz62ADOGSReu11gGaozzyVcpJzUHi0WSdED1cPkjuY2PPbbh/HAN/4NP/ymwjcYvo6ffON/4lf/9j/x0Hf+Fa/87teIdbZYmyPFpfBRCCxYvBwf+fhn8LE/+hL+4HN/jHs/8zlMm7fQnmfMnLsQf/Cpz+DaW29DpKyCPSjF4tVRNRwZ1hb+0zLaaiq0++67B5//4ifxxS9/El/640/hCzwq6LcXPv+lj+PLf/KHuPPuW1FUFGEJjrcEtVmW+fmCaKmCtVqrkLRppOHy7K9+ip9955v40Xe/i98+/Cj21Z1C0bgpWH4dy6mZYCsglS5Nr0EPxdUnGoPuxXA3RamgaTZ5lMo/23rXU+pGKQkrXpqGRomWLls+pLdo7pkZiqTXA4KFJZi3ai1CFMSPP/8CHvnxj7H5kYex66knse/Zp3Ho1VfopbYzOvMjfxkv8NzlYjlleJpnqkAGYmMZLXqWZUqL16QYNQ5CrMeZkyfw2x/+CN/9n/8LP/j61xn+F3749f+JH3ztf+CX//Yv+NU3/hnbnnnUPCotqhA0Bvp66RmzPwujhWZAq9yzBTvrx7ZpCrQsHIWf1tqE2nFYNWchNs5ZhBtnL8Z1MxdgamkloqzYJPLVVbPmYcm0WYjqGZhysMHhIGUneqp1UiTFNNhl8LV3tFs/uZDlEw/KQ0HvGtn7RqLFMPEuFehBuw4y7W3NufxQ56k+6sxx48fZBqd6z+PM6dNukYIiZap6/hq7GMpTglTPDY4eP4VDh4+guqqEnlAJFi6ospdTT508yeutiMU1TSbHWCUlUVEZpQXqRz0Z9MD+DirDYnZeLQ3nKkSLQhhTMxaFdLPlXdjiCPnPZAb+Z9ajm7oydueBuXoC3ermhQuFl8blZc8LNHh50ELw4t5upOuPomnHZux56jG8+Pvf4QjrXzxuHEIVVYhJeDNlOhmjp9ZtUwqFRUU00/30WljnIAUM2xEMB1FI61ttI6ezKJXHA9tk0zUqnwNEU2maWvTZMzV6mdEiFNLK03tLGuwSlPaSaSSCKK27zp5u1B/aj1jTaVT2JzGuIIlofxylJVGWRyucOUtIeYJF6W3w2B0NRC+4+rhBpMDYpIViStH2dncxdKAwREHMMpMsz9/cgGDzKQSbTiDSrHAcvjMMbWc4+CloE304fvggtr/+Kna8sQVbt2/H5u078RrDG7v24gyVGsUoWts6sGvPfhw8TgNJHsKQOo0GUg5d3Z300rfSoHkOm7Y+ide3PcHwJDZte4rlPsNrT2NzJry+5Wns2beFPNrJ1E7QmYIZJYyerJ5ShNmH5Twv0lZZp46jedcb2PH4I3jhd7/DyZMNiFbVIEKrPUbjTc9K9VJyV1cnPRnyV2kJecJtAxQgnUXvUChsD+t5UQyi0vjnypTg13mAYzqk56lWB41JIMh04WiYioiqiNcV1wylwiJbQNDW24OjB/Yh0dTgngdSxheSR0vKSlBK3jQlTI9F223JIFI5XvlmBfGQqxDs/hBoi6MuKrW+zjZUsS6BeA/87U0It55CuLEOwcbjPD+JwnZ6Qk3HUNDegEDKvWMoz19beOn9ojYaUVoareePnmz1joLObSzw/ERbC440NqChtQWtp88gfpKh/jRipxpR0EWDm4o/1dmDntPN6G5qsfHt8nBHQ4aummYvY5mVlRXo7Ox07+1lmzwIGkcau3qmrOlPPb/2pvQuF3x62UzEcfO0I9T8EsPqQeoWUzCOp+AMkEn0bMim5QbqOhqoi7zAfiSXBwKFdFv7sWfPAQqTPixaPBErV05CcXEae/fup3Bp5WCQdab1USpOAlcPM/VSLPPhv3SSgyYRpTWWRnlpEebOmYWImDdEYU6FpUULPnpEJuqZJq33AWg5uflrgfXXLTvXldwwOiitBcuHfxQOBbJGeRSDJfs0bx9DuS+JYFcr2s7U02vrQS/bEyugp8dBK0s0znhnTtajl/eqJk5EiMzcTebsIa3aEylem4zy2rG2aMBjfxsPyqenl1ZgL4ooLIL0ILS/QBeVUDcFVwUt6rKxE+zNePNYtCydwiLN3wl1r+pLKhfo2U6sFwWsh6zDubPnQi+Mylr1sT0SdiY21c4MeZzRdDa13AB1V/V/kGV1UTCcqjuCMeXFWLBwPj2JQlq+CQTZPyEOxgJatf0MYRYTDQWYhmkTMezZ9Aoe+8n38NgPv41HfvBtWsjfwUM//B5+97Mfo+7wfrY0icN79+CRH/0Qrz7zDAVYJ6+5PmHTBsE99xgcBFnGYVqjzRQyv/z5r/Dtf/shvvVvP8Y3v/4jnv8Y3/rGT3j+Ex5/xt+/wHe/9SD+7esP4LHfPW7PS4cUM0o4+shw0FRiT08f25tAhPxZTj71x7rR3nACfX2dSJP+2r1A7wP5AzTOSK9T9SfQ29OJsRMmIExDozueIiW0G0YSleST2vETxBosRbWTopHg9SNBOaOH+JHCYkRLx3DksW/Y3x1xpptAHqsZZw/+NXWrXTt0Lt5JZzzrwmjUTa0xD5++88Mwa9Yc1I6baHH13hitHJYr40X8oRpw7GnaTwxLmqvlmdZngoMMlxANrbYzp3Fs/15MHlttz820D5+WdZcECxDRDAcNlESsh4qXeYsHyW9OqLs937QN2bFjx83DnTp1KoU868v7ubBSWZdOypSdTfV49ug+PHVgF146uBev79+DLSx/895dON1OOSTvjMpq297d2H/kkHmjXgu8+kupicZa+aYXVMfQyDt65KgtIR/OQLGZCUJp1q27Cv/+//g/8Cd/8qc0xKfadbXnUsOMKVm6jnH4X7ZvLiuMiVg5LYccM6bKnlGIsPKGZCWbQPL645zwIrrINqdNQZlK+nDo0HF7FjF3/hSsWDUTvbFWHD5Whz4ODLnZ5G1jaAn4lpZOG7Dz5szBVWvmoroSiAS7MGt6Je794E2YP28KLYoeWlUF9JI0z0qmFVFzoPlreRj2x8w1TN4qwb0cRBNtvaMH8ys2XINFV69HxdQpKCgpRoL1L62txvKVyzFhwnh0dnSim1atFjhIbOu7JyePHaYwbETttCmYvWo1wmPGoacgiupp87Bg1XoU0oPS/LmrLf9n09QHvcynraUJlVUVmL9iOUoncvBRyIyftwgL1qwzpSaFImK6h6Z+E6DaGl+f+5i/ZCkV3SSkqRxSJRWYu/ZaptsAf2GJvV/iowFic9wmuF35RjmzcuWNqQW5dHY1FMwr4qDro7dxcNcOtrsNi9asxKqbbkTx1OmIFZUhWVKG0NiJmLx8FTa8/4OYMG+BvQsjmzpqKwd7UZnuRHmyDeWJNpQk2hGMd9CT6EOY4jnUH6Mi60E0FUeYnlSQaXwZa1UDOlfpnA1HRDMC9bCEhk1/H63oHvqzfWUo6NWxBFCIlaC/t4ihmHFKUBAvhi8VYd6aBL0wqD4UzwgXFWPFNRttl4HSSVNRUMS+8odRXlGJ5csXY+KEsWjraEaLBKKNB42bJE4dP4rmUycwbvxYLFi9GpHqsYgHoigdNwGrrrkWxRSE8hCst6xyeuZI46StHe3sd+U/b8UqlIznmGEfjJu3EAvXrkewtIy8IspTsBqvME13L5qopMORKBaQV7TVToqKLF1chvlXbcCCtRuQoKJKiIb0qlRP5SET0JXsFIaTrTyO2BVpBBivn8bQrm3bbFpr1TXXYPnNtyI8fjK6w8XojZYhUDsZU1dejY33fhzVM+cjhhANKhpaTKsZhXYaPdoXs5SGmd7l0RSZo0EWGjfijXjAh2Z/P04F0zge6cfhSBqHw/04Hi3AiTDQRGO2j1ZRdyiIM/40umkoJXlN8mMoZJiJxnq3rai4CAcPHUQLvSwpIkfLLCTP5P2MoWy95557bCeGO+64Hfd84B5TppcDop//+uuvv2K2+BHMhSbttPfR/PnzzbI4dboBBw8cQIyMIgZXZ75Z2MNUHhOJbsyYOR4LF89ETc0YbNt+EE89vQvNrWQeH4UChYPiFdBKbG9rRnFhEEsWzcGqlUtoSazCdRvX4P1334Apk8Zg+7bX7HnW+InTsf/ASSq5M0yvaQLtMJ3CqlWL7HMWO3btx/799WQEdbgskzffENVNc+w6ERPGEklTROtuvAnLKRBmL19uW+YsXLUWK67egFnzF1L5pLH5xedxYs9OusK07CjMteNxd0+MYrUfNZMnYcGiJZgr4bB8DVasv47KrBwd9Iwi4RBO7N+PxqOHENIiAcbvZZl+ConJM2fapzrmzJuLxStWYtHKVWilV9bVF0dNeQnq99HCYzof08VoTMRI4vGTJmEmFftc9vH8xUuwlIJl4ZqrcOTUGRoExzCFgtAX78YJpi3o6dYcMvpSSZTVss+WrUCytxtHd+9AggomQEHCIcc/UUV9psFJ6vJEx1Z60nGmHUvhMHcR+2LBQsxespyKaR2WX30NlpI+4yjkjtCS1PYyeqE1TOJK2YRpuYb7qWioirUMXm/8zyYtp0+ZiOYTR61tUdIyZIoxI/RY1/OCTCxeV9BydH9BiBxRyCMDihii7vdZgQqIApAjhK117b0QaIxrCXyAimjt9TfRcLkOs5aSV5Ysw5LV7HMaMXOXLEGcXqEWvNTTGg/zXA/l/UF6Pnrwz/ZNnjwZsxfMx9wFCzBv8WKsvvZ62zuwmbwUones/m7QhrC04rV1Tic954JwGJNnzCS/zMHCpcuwjOUtYR+0kU+6aOiNra3FURoNTeIx0iVBXumjd15LXpk9ZzaV0SLWbRmWr7vGlNeJxmbsOXgQ06ZMgp8e/dGdO9DPvtBOKAnymDy0FVddxby7cXD7FvR3tpJqbjlJhlPcUd3FOsq7aG5ts+dTk6ZPZ7uWYc6ipZi/cjWV3noq7uuwZO3VqKIHt2fnHrQ1nra2ySjSzvSaiQizjVdvuFq52n5z9kybSioLlahZEiAuZUN+6Q0UoIfel0IfDS89NR5PBV9RWo4jXR3Yw3p3MIs442Zrr+D6MxHXXnEBfPSjH8HEiRPxgx/8wDyzEJVYUg+mc6C66DmWNo++iUaZnr/rmt4hevbZZ2361RHkYsPVXzBFdO21G6mItl1Rikhk0FFTc1oaq60r9P6QLDLdHM4qOD8yHcd8FVLJPmaUIOFj7LRTeOHFndi3v5G/aVn1y8pRfL1Rrs0B+3Cq/ji6OpoQCPajkFaLz5e0Z0YPP/QwHn9iE60oLeMFDhxqoKfVQQ9FcajM6B2VlhaityeO7TsO4GRDOy1G5a/aWEt1knMcHbzY6jFPIGn5aheZsoVt6tZCixAt7GgJuqlIDh8+jJeeehKHtm6Cr7eTYo7C2wQ409Kb0pvVLR2sNyV3iGn84SLWtRFPPf+STeFMqK3ByUP7cfqIU0TaU06rnVoo5Lt7+5gbe4VWXl8yjr379uOl555HB/NMd7XZG/a9rY32Do4WDnS2d9gUqPYZoxtJ9zLKesewfetWvPz0E6g/ftiEf7ytEY301vopZDQNoiESihQiyvgtJ+tx6sh+KqSujHBxfCOIP9R98k2Mn9i+U/UnUV9fh17Sp59WtC9ahFQwhA727QEKs02vvIKjVLSJnk4qtqRNA1knsVx5EPIIvWcXml5KMt1RCtrmY0cyiplRvU5RTXR+jqB6ebD6srIakLqntrrA616gcLSjxX/zcEZcAeIsr4MKoKWnFzFNfxWSHqEIOimI9h3Yh9eee5a8sgUB0lfTdhK2ctwkIpobTqOpuQnaDTpaQl5hf5xqbMFjTz5tO1lMpMfZcOQgTlFJa9eJoHqC6U6eOY1uKbJQgHSk4Gab9u7bhxeeeRod9MhpaVJ57UVv4xl7f0nPnpqbGy1IcCcpbPvp+fTSXd6+fQeeeeJxevPkR/JKV+MpNNYdQ1pTZyxPfR8MR8yb0jejGsgrBTRebFrNKOD+t8B/Ir2gZydNrKc+RSNlpqnBdIiGKctt7erGoYOHsOnll3Hi4H74WF9N4muK2TxfBm3vM2/uPEyZOgW7d+8mz9WbcjLvyKAyBfVlpj/5n44Wgyd64lYc1KsdadR1tqOurwu9ehZlPONGvJePlIimAOfPm4ePfexjVuZDDz1k32qT/MmW6+DGST96eF+78+s5vJ5n9fT04NlnqIgob40PLzo8Oqj97JP/9J/+U//993/PpkzcNN2lqMT5oWqqPvqWjywwIyiPNr1m3XbhsO6jtLC8C/poMfRSscTZtykqID+VcSHvFLJjNe+q+V/G53+2M3c/hXe4F2VllJsRMk2KArWjn3QTY/sRoPWh7edjSXoncQ6FlF5GU1kxdjatSVo02iIlkdb0Ay1abW46iKkURt+ugVTGuGJiCkmW18vB2kvGT4aLURAqsecy9mY4rcIABXohhazesylIJ50wZHrVv4dM2820mqIJFZZSEOtBf48t073qzruxau0avPTYI9jx9GMosU0+2Ram76VgToYLEdA0HLW2NipN67kDB1GY+elZSiAVo5dB4c4BIwWfKgjSEiSNKfwQ1U4GpAUNof7uLqajQcSf9h0ltsoX63X1ZRsTrGvSF0IwUsx6p6kMWA/mq+c6ooGoJ89JkFJQz9hUD0OKfdMjPooUwVfMTqTQleIuoMWepmIuoMANMy+KDKcwjS4qVdarOE7PL/zuwX2Q7Q2F2NY+BJIxROk127s2JigYl/m62oyMkebicxWUajAULu+3ALmIpL3eEZIYTUapVKWUNbUlXqdwSvd0IUhLvpD0CJFf9HE20UAetbcnWx/pmaZXFaBhQCZj96WQbGvHijs/iDU33oKt5JOtD/8U0b4OhJiPnjH2FND79ofhK6s0+sv4VZ8HeJSBovHuT8Xhp1Gi92dUTz0V6SUvpPWODw0AvfQtDdHfSYOBvOL3q060qFk3Hw0OLakOsT/03a90wBk5cdWbvB8lH2kKTlRV37ozB+st9bP4mdcpGZCKlJCvyzM7h5BXSAs9y+SgR4TGhwwQxdboMwOX9ZdAv+/e+/CFL34BP/7xj3H//fezz1g/tt/1neORbCB4SeNXv7REKkStW0qtL/+3l15TKw1me67qRc4czchinjKU//RP/hT33Xcf/se//A/8+te/tnuDeclBfKc0kqdaiq8vYX/lK1+xOv75n/85PSiN0bfIY6NClg72bqA8oq1b6RHREroSPKJcaCWItL3eb1GdSSvCdceFQs123SIWVDvJ5DSxe/v60RsjOyXlCYWYO+9ZJ3oJ1HF67hOgBS+Lh15AaxptVEJ9MQ7GfvoW/YVUMmH0KB8qIE2bZCamLb84JWgsLotaL2hycFj5rjbuOFDYm4JSuhbxnETSw+d+ein93Z0csG3op1cSpPIo4kCSsNUUmQS2ZhXMPpLFK8uODJGm1ZjsbEVay5gp6LWoYNq8OfZ86TitwDNH6a1QWChukgwrdVpAgZDoame6dvip8PQibCHvB+N9NgWoXRn0XMdTC1JiASkXWq8ppkuzjn55abRso6ojFaeEUQHT6wNlboi6fteODWkqJ+hlRD0mZxsU7J5C7rmCLRrR0hM3tUaLA0kK2hRp0t/VCn93OwpZTjHjhVmWKT9Gk6eoaVwJpoFvMPFPS5bJLPY8QVObIQpBT/lZgQaPRwdqMSiMTgkND0/AjCRozgsrm21jFcWJBaRzKkMPea++rg5Eea1IAl28QppIDRsnU1BTJTA1+10ekvFKB1JUCtotQ++kTJo5x6bfTtIDqT+wk0YIfSQpM+agxccBjmXrc9K9v7sDESryQhoqQR4L4nrBlIaFymG5xqMM8qjSFLbJLhoqeumaiiDKNEXpGJVBzLas8msKkHWUmhSvGYUlO8grPuYdYZ6awnUUU0+6M+upDBl1EL8FqcQGaEN6GG20vRDrHIpxHJF3aYYwhsaNU2fKR3nKUD59+rRtPLpy5Urs27vPVtNpmsx5J5nChsL6kkEZccz1cfx0sS3sGSTI4GYkDEmrxxd6fq5py3/3p/8OO3buwAMPPGBThCPzh7WYsp5Kk8aGPKk77rgDL7/8Cl555WVXjUuCbEFSguZRXqnwiOkq6QbDWwazctM2FCy+KDuzAgF/JTumiGUZ+zHklGOntOLTZKT+YviC+v5ONQoC1bSQx5AdS2hdUhkV0DL0yWLTyh2Xh5JKVPsChQy0/qG97ViG5jhsqDih8GZhFLG2uHMpoSAHXwkZfgwZuJq1q6JNWV2QAO06ChYyKAeuBIkJdw0MDjyl1gCOME4p41b44qgoiPGcXiPtZh/T9HMwSwgpvhSXvMQAy5aQ0NY35ZRsY9icSl4v5kAtZpoSKhYJ+CivKZ4rV95GwpVFAVVF67WGHmk5yw2n+ixE0lRIvB9lnkon5SUqOV+S+dFKjDJfmQ2y1lV/T1i6o6Oq2ugUoMqkYqQCpv3POqYwRsuAGcbwXPUIS5AxjvLLLq9XENy5ekuKSiuoCilZtTOaaCJvQVNHrmTGNH710rrfueHyQ/TUW09JFIoGpGdtJlSTHmXsn7ApjwxnsX1SCKKNFIQpdd6nD4wqEkX9XqqFGjIcFKiQZKjIu9VKUfF5AXleH3+Tl6U3rirZx1Xs81LypBaGREHjhXUJKR+mtT4XP0vZMx9txTOGdK8ir1QVxJmujx6OQhxF4gnxGOOofkqno/GK+sr6XkrV8ZHg8UtuEL9IQavdqkcx61TpE58kUM1yxTelUkJa6clyB8ZRBpq50fJ0LRT4xc9/gZ07dqK4pBh6t8qmnwYZILk8wmMOz2mxhxYz6NlRgt6g1Zr3vT8P3kKE2ppa27D0wQcftN23bb+9EeDNePXRkJpDBfaxj38Mzc0teOrJJ0WCIXW8dLg8pV4gsl391qB8XODgUN/yP/Wlyz/bwYNABjdRTw51D78perT1iZ7zkGXNwuS/NBnedkpgXBeyrO7KcEzmghhFpM8t09VitLC8mdw7ShBqg1HVUTlrx2oNvjAVU4gCwE1JcNhoSoxxjO8NWQZXU03gUBAE2BbbJ47CWxuVFkb0GWnmTTqYgM8NypvlecEEFmkgT8QdnSCzFvNopaos7zrT2NHq5OUrgZKxOBlX9RN0T1ZrdurM0SB7HGiYwbXMXZUSUB0k6AKkjZ+00ZSO1YmFe/m4+Prl1SVbJ7OCKZDSFOKuv88WacJoFc9o4719cLWU8kyw/vqzh+2kiYwY4xPWxWutYP2rowXvf0dL62+jp5RTP4pCfkQDWg5NktJiV697QWPFeZbqe5WpKVevFOWaLcegjuc18aHzouMMMfa9jCJN2ok/FM3VJ/OD/eL1hJ7fsCy7bz2fKSELK49Rvav2LIrtV62sPvIKGTQFrHYaNIZ414rJgaa0tLuKnglt3rwZ//TP/4Tt27azzawJ6eOmvHITqVSjov0SvJoLdpc/bM+9zG8PUihaIKVXW/T1hH/6x3+CnvWr7JH4yVMyqstNN96Ev/nrv7Eda77znW/bSjutUNU0maesLiX8GzdmpuaukMUKlxLWV4O4yS6cHXQgXEz98Jgnc2NgMCkGg13Ove/BuzY0vEnkJM2UPHDNy9nrUU9ZZRUQod+5sXgqcljreJSFp4UKBaEwulpbceLAPvQ2nTFrWYPUK88JkEyw/HmHGagsiyPYdQeduuAuKo7F9QZP5qDriuPiuYtZyrM0xjeBwOPAX6ZAxbF73q/MIBRc+mzQf14L9MOuEZ5BwZE5EFyreWfgnCm8ehMuh/NjZGHhrg8NbzdUc/GDwBJM4LliMnQwxezamhXf+t/RfYDOmbpp5aY6xx8Ooq29Bcf270J34xlTbFpkbrLFkvM/JdbBfuu6d0/XnLLSTSufcXXL7lld5IVwvPH3QP/rjn5bNF6xNC6du6vE2StDkXvFtZgYGpXn3s9szmdDbKLl0XpfRyvQYrE+Fj1cTJeHF1wdreScq1l+t0rZiUNunpqK69WzK8bRO00jPeNRGikZ7VKzeMliW679ox/9yD7HYtPQqnwGF4PnBiObv8q1xQrf/e73bG8it2V4tjLvbgxlpHO3290dqXOGptXvoXFHm/atwStlaGkqZWhJLo4GqEQN/zSA2f9mxzKyPLmYPwBtaK8veurpVyEZNMr7evZiq3gYR/kMLU+5evDOslcGpxl6f2he7rquZkVJbppzTSd49XADKzel+5WNMVqITplTYmjZLrdz53iuQT7cvXONyQsfry5/KVIP6usssvTw4mSvuLTuV7YvLAYVl15G7aK13UNvUy+IRvlbiw7oIGWm1736evnp6K4PxvAlCt5vd8VLOzhWriDO5p7NMze/kZBNdzbOl9oE6zn62GG4+2fnPJpYHg+OdpGBLd+W56RnUb195lVJcdoejZcMaplaQqOO5Y48gt/1MNGbIYWCGHWkIJyLJXTPu6+jZ8fkBiFbWja8eXi55sLLVSyZG3QttyZCtgaZlmoAWQwpJraBjKpnNGU8rQr7UR4oQJgKCDYlxYPF9yjkgvc3tGyLnwmCfufeF9x9L8dscHBn+l82sbvn4OXrhVxk8/DuZGN6eXj5ePCuDb3uwBpSEw0Eu5IN58P5BJSEmBe838PhXNfPG0j03DaYj8F6ObqyTxhBQs2jkEdD3VNwbXXXXB8qX56lEijxA7XhgPGMPoEto0bQfbezSG5+ztc6O3gludi595w/5PgzN/7gWIKrpbvicvLyHA1yYw8N58P5lZBwds7DpTo71tkQbUerhAQpHvPoaSQEMy+xXloldDbew4potPC6figLnO/3xceFlqj4w6dxV72BoF8DD9/JsFp2XUB33nuIbJftfwede+FcOFcc7/q58jhf/m8WQwWAfnvhckJK41w43/3RQu201yKYX66n5HA+Krj7mlXS59wLEuKVFPyUa/Ycj9eE4cXsaHDh6d4eqlx6XKp6ex6UlI+8kSsBeUVk3X+ukIvhro/0e7hwJSJbP09kZP+cGBCT6D0PTyR4LXmzomUkuHyz9cmGXJx9PfdK9uq7E55XMxQjXc9i5HtuZZtHPRcv+yv3ukLumQd6HSqbykwLAyzwmvvLhX6Nhmu8eKOJK7i4zvvx0ni1HFzTPEiRHA9qdN7bxUdeEeUxgJGG7EjDOT/ELy1GUjROqHi9NFIQvKN0hrwfN112YcjmMRTyonNrkkceo0VeEeVxTnhCJTfkcWkx1NvxfmevO48gTS1w/uAUkEvx5v6G44aBK7xtIedaHnmcD3lFlEceVwicYtG0iY76rSkvCX4NU58tMjAHZkDau+ApGU8hnTtkkatchv5lViFYGHT9LAxWNQMK6II9rTzey8grojzyeAuwh/y5IeOleAplKLL3zw4OTth7+Q0+d8pEp7nBu64sRgpenNw/KTFbTJAJnqJzOsTFt3yljAbi8VJOcPkPVjoDt3n9YoU83l3IK6I88njbITHsjlmhKaHuPJvzBZdE8ZmD0zQG91wn+9vDYEV2PmSUkJe//e/yGIrcawNnPPGWfVvIXM4jj7cCcX4eeeTxtsIT9FmBPxSelzNc4L8BpZMbhoNTdLo3mpCB59mMUEX72i9D7vWssstNlPGieNkLuYm0IutcLxvnkYeHPJfkkcfbCRPyQ4INMx0dpGzeLkjQ54ahyL1unypQoJKxT5ScZ+nuaPwdy49t9MLZKd6+tubx7kVeEeXxnsZwnocX3jwkjnNDFkOV0Ejl5j4P8cJwGFAumaCtWoYqJncvO9TP1zKvjtoEc2jwvKWBwHy12/NAuTl/Qx2xPPIYCXlFlMd7AkMFvQcJ6YsNb8ptOCU0HEZSOrnwFI+UwVBF4d3zgpBVHNlrIyE3njYzPWdgmQoqW9/H8ZSS3xdg+sEKcTh4988VJ493P/K9n8d7DiMpgEuJ8ykh75mMt2DAE9Sed2TpqSjccxgXPEiRnAtKq49OplPMy1OSyjOz5Ys+S64ctGO2FMvgoGvZoC+P5oaA388QNGUU0DWLI6XlKagc72mI8vGuDXdvKDw6DBfyeOchr4jyyOMyYCSvxBPAQxWMJ2A9Ie0UAb0WHr04ufEFT9np6CmcQQqIeQ4onwGFp/TZsgc8qUzQ57C9oA++eZ5QNlAZ8Wif/ZYi0ufiLa4LntfmeVJ55CHkOSGP9yRyhfTlwNBycy36oZ6QgvMw/PbJaW3hHw6FTNALXtyhRyHbTudFeQpN8MrxgiDlY1Nt8lqo5IQBr4nBg6fwBqb+Moor6yl5npCrv3c/NwhOaZ1bKXk08EIe7z7kezWP9ywuhRIarozhruVOWwWDQftomQs6DyISjaCoqAjFxcUMRQhRGUnIe/AUSVpbLPDUK2Owcsse3T07uLgZ5eA8Gee5CJ7nlEolB9KNBp6iEaSsnPJxCsnz4nLjCJ5SEry65vHeQF4R5ZHHJYbzIvrtqCDhK8Fv01zBgCkgeT2RSATRaNQUkM6DVEhSUlIUSi8vR8JayscpGAruAdmtk6wgH7ifORc8PSCFZnWRAsp4MIKnhHLTeV6RzjXFl0ymbLovmUoNDpnrwkgK31NGCmpTMBBENBJlm9lWtlN1GQ55z+jdh3xv5vGewIVY8x5GEqBvFvoCrhf0nMQ79+CmtJxHoiABbQJfgj6ZtE889/X1WdBvUww5dTTFNCRPD7neh3euo8rUNJy30EDngqeEPCXnwS1mkBLScyX3jCnFuuQG3fPi6Zs3ubT3FMiw9SFNQuEQPb4SlJWVobCw0Oql+2+m//J458D3No+1PPK4YiFhNlJ4OyEF5oVc5G6NQ/Fvf24FmRPEiq7dsfUp53iMSqe3Dz09PQy9duzlb12L9cWolBJISRnIQ9E/HnPzH+6PNWDEjNBnmZ5n4RSgU0hSBoJoIo/GFjcMaYe3uEFKyouT6w0lpJB41HSeLYzIxGUlLWRqMgj6rbgJKludF0YLUVFewWPUfrs8nIJz5ecV07sJNkuQGQd55PGORK5CGSmcDyPFGckrylU2Q8NguGu67NQBhX/m6Cug4O/n70zoT9GDSFCYMySoaKSQ0kkK+VjCjin+1jUFxR34jO5A3mf/6V0ee5+HCoj+jg34Aa/EVsHxGoMgGniejgS/5wmZEmDwlI6neHSU8lDI9YakFDU1Z9Nz/J3mkRlYkKjxgj626ONlBd1T+jiVbGdHB1qam6lw+1BSXIxShpBW4Cm+1T8vsN5toDEki4yMmO/bPPK4yJBqyPwvQU9Bnht0zQumF+W9yLvh+PR+6+jOPaF+9l9u2tw83CBXyMI8o8y5p3xylZCHofekbCywsKFKPPe3904SLw6k85SnhRwonuJImckz6u7qsmM486xMz5ByF3Uo5PHugC8ej5nVMpQp8sgjj0sL+2hdJuRCwjn36GHo7zeL4fJ1Xlz2+oDiyQS7llE4I9VDHpeWgDtvyk3n5YYhOnEA3nMpyaXu7m709vbY4oUAgxSnnmUFgwFa0Z6CzeOdDl9Kc7hiLjFGHnnkcdGhkZYbJKgVTDAPCWeNS+86D0ODl48958nEyw1OMeSEzBSXd/TSW36ZcgeUT8bzGRyyciP36J3bogUGL643rSdFY4GyZygG0mbixxMJKqMe9Pb12bScLVnnPU03ykvSakLt4JBXSO9s+PSOguaI8/OueeRxaeAJay94GPA0POGf+Z2LgTg56YShv0eDXAWUi7PzdorEnbs6DyiVnHPvt7uW4wFl2iKlpOdAyVTS4nr3PQyVQd59LU7QisFYLDbgLSnopd7iokJb6q53kLw0ebzzMOThkM7PFfLII4+LieGUz0jwBHKu8M31cs4VPDdKsW3FUuaoMwu8l62Lu59bnhevX14N4ym+W7RABaRZFgYpDU2vaWGDzr1VdYojhZSgt+PdU546CkMVoyBlpPhekGLq6uq2vPSyrymjzFLvPN55kJ/LgxhA4WwGyCOP9zo8K98TkN5x8DTV2eFCkTttNhoMVS4XIoRtnzodlY5HS5lRKBZ0T9fUVrbFi2PxvTiZeJaW8Sy/zLmCKSk7HewhiX6eRyQvSR6SKaSc6y5k6Wir83hvQKFRGfXo+VFPj63K05RdkB6S9x5UHu8sFPzn//y3/d///g/MutA8q2eVDA9jubNggyBzLhgT8Tj0+sWCDcARClJdLrZ+tTJUh0y7LweG+9DZpWj7uWgvXOw6nEtoX4h3cT54z1SsPRnk/h6W9jpm6uBGgvvfU2QXgoF8Mu0dWt5w8Dyd4eApkeHg7dgwEIbQ0WubF0/wjkOhEeG9YDv0OY7aYIotE0aCVw95V8pPUF5Koxd/I/KGgkG7E0/ELa7uWbrz8IBHzwvhFaW5kPhvJy532R5dhbelHuQNvW9W8Fd/9Vf93/zmN211ijrVK+RssMO0FHQEWAXFCsMkHznPtw6Va0EdlCnHVgESeqB5Mcv2oPI92PnIZHrboHax1QMDKRdem+148Zt/FoN6uBTlj1S28HYP2KG0Vv7DXbOtevTei3YqsBdFGcxXUI+9OUWUi1x+E86pcIa5pysarcN1juqv+nnTZZ5H4tFS7fXiCJ7hOhz9BVfK2XTylJJXP68Nw9VXebs6URFl6qFr7tm2241C2wIpbXdPrykjTdkNxdA65MLL10Nue4alIfPS9ZHafbFxucrO5YO3B65fC772ta/1P/TQQ/YgUAPm7Mbptwr1wtmwNJlkOh/acfab/3LjvVVYR/DPhrbyJoHk/qsNbrhn47xdZQ4HtclCphCVKQV4seHRWQyRTNKiGKHc4frj7YTXflnHeq9D9M+Q365fbNp7VrnKtfdKcpo6VLi83RDtVYZXD9Ff9dBUk8ZTb29vZvlxr73c6XY8eHMkMVoSrp+z/J0LxTGeyFzP/s7yhe64u1Igru72i0fvXG1y02DyQFw+uQLItXmwN+SdC8pLZeiKyveUllc3T4gNVUbCcErVU0J2ruk+wivPS6tnRGXl5SguKUZRcbF9jkL31Ce5+Q/F0Hw85LZH0H3VW+VrvEkJXq73mFQ3j9+Ec7Xv7YJXpofz0XXU8Dyi5ubm/s7OzgHCn39qTvF09IKD0sc5+MiStmmjCaRLCDGHgrcppIg0lJkuBlSGBmYimbByNQCES8EcghgiFneriVS2KeJM2V7730xdlPb/X9wZ7CQMBGF41AQCIcIBw5mbXDhhIol6xWcvD4ASwoUDKCcCJkIhOl+3AwspkJha/qS0u+3Ozm53/tlpYTlXjvPMPFn7zP3Ow9XPEGEcgGP3IA2dSLPkDQTBmDuM6I/VfQ5JuiXJ4oU5/Q4h0d7FYiGTyYcMh0Pp999lMBjIeDyW2WwWrZiACCSf0woyhnx9Uj5MoyObr5ev957ziYkf7B7JUc45E3MUIErjhJRwcTbROxsd3ybDHJLVy54JoB0buNpSmzgf/U1v5O3pGOt+zBFFevFoLj62fEAZxl+tVpP7RkOeXp6l1XqQu2o1Wij2FPw+MxjBG4yAIx20P2zSbvYGkuSkDeq3MYfjTbL1NJDUFuSbrReKha2t/b3dlENnt12psNRasFxCxu6PsrIGY4VZ5/WNW804a4ShzpJ0YFyi7s0GA/nRunUG6JFOVlit1nrPXTSQNZbfoZJNHIlljFCdC8TAum+j0UiCIJBuN5Be702m009hgsdjYqXcmNw4cgSKASeRroHzZpqHBpoUSRi2ebqz4z0HxocKVOlR2qRbXVvSxwGpUeF4LA9Q3qJQFxlxLY7IIp/dtcDlOJgWW/L2nJH1h98m5JBmTz9G74g82YA6KYfM23JZ6vW6PLbb0nntSLPZlEqlnLpNwHO53GW+obdeuwginz/tYP8L8/mXlErFlNsu8gti1QFL9BELnQAAAABJRU5ErkJggg==;" vertex="1" parent="1">
                    <mxGeometry x="630" y="40" width="207.04" height="154.04" as="geometry"/>
                </mxCell>
                <mxCell id="22" value="n = undefined (memory all. phase)&lt;br&gt;&lt;font color=&quot;#cc0000&quot;&gt;n = 2 (code exe. phase)&lt;/font&gt;" style="text;strokeColor=none;align=left;fillColor=none;html=1;verticalAlign=middle;whiteSpace=wrap;rounded=0;fontColor=#5BDCF0;" vertex="1" parent="1">
                    <mxGeometry x="82" y="80" width="210" height="50" as="geometry"/>
                </mxCell>
                <mxCell id="23" value="&lt;font color=&quot;#3af0d2&quot;&gt;squares{........}&lt;/font&gt;" style="text;strokeColor=none;align=left;fillColor=none;html=1;verticalAlign=middle;whiteSpace=wrap;rounded=0;fontColor=#CC0000;" vertex="1" parent="1">
                    <mxGeometry x="80" y="160" width="220" height="40" as="geometry"/>
                </mxCell>
                <mxCell id="24" value="squares2 : undefined (memory all. phase)&lt;br&gt;&lt;font color=&quot;#cc0000&quot;&gt;squares2 :&amp;nbsp; 4 (code exe. phase)&lt;/font&gt;" style="text;strokeColor=none;align=left;fillColor=none;html=1;verticalAlign=middle;whiteSpace=wrap;rounded=0;fontColor=#3AF0D2;" vertex="1" parent="1">
                    <mxGeometry x="80" y="210" width="230" height="30" as="geometry"/>
                </mxCell>
                <mxCell id="26" value="squares4 = undefined (memory all. phase)&lt;br&gt;&lt;font color=&quot;#cc0000&quot;&gt;squares4 = 16(code exe. phase)&lt;/font&gt;" style="text;strokeColor=none;align=left;fillColor=none;html=1;verticalAlign=middle;whiteSpace=wrap;rounded=0;fontColor=#5BDCF0;" vertex="1" parent="1">
                    <mxGeometry x="80" y="260" width="240" height="50" as="geometry"/>
                </mxCell>
                <mxCell id="38" value="" style="shape=table;startSize=0;container=1;collapsible=0;childLayout=tableLayout;rounded=1;fontColor=#CC0000;" vertex="1" parent="1">
                    <mxGeometry x="330" y="100" width="280" height="260" as="geometry"/>
                </mxCell>
                <mxCell id="39" value="" style="shape=tableRow;horizontal=0;startSize=0;swimlaneHead=0;swimlaneBody=0;top=0;left=0;bottom=0;right=0;collapsible=0;dropTarget=0;fillColor=none;points=[[0,0.5],[1,0.5]];portConstraint=eastwest;rounded=1;fontColor=#CC0000;" vertex="1" parent="38">
                    <mxGeometry width="280" height="46" as="geometry"/>
                </mxCell>
                <mxCell id="40" value="&lt;span style=&quot;background-color: rgb(51, 255, 51);&quot;&gt;Memory all Phase&lt;/span&gt;" style="shape=partialRectangle;html=1;whiteSpace=wrap;connectable=0;overflow=hidden;fillColor=none;top=0;left=0;bottom=0;right=0;pointerEvents=1;rounded=1;fontColor=#CC0000;labelBackgroundColor=#99FF33;" vertex="1" parent="39">
                    <mxGeometry width="150" height="46" as="geometry">
                        <mxRectangle width="150" height="46" as="alternateBounds"/>
                    </mxGeometry>
                </mxCell>
                <mxCell id="41" value="&lt;span style=&quot;background-color: rgb(204, 0, 0);&quot;&gt;&lt;font color=&quot;#ccc4c7&quot;&gt;Code exe.Phase&lt;/font&gt;&lt;/span&gt;" style="shape=partialRectangle;html=1;whiteSpace=wrap;connectable=0;overflow=hidden;fillColor=none;top=0;left=0;bottom=0;right=0;pointerEvents=1;rounded=1;fontColor=#CC0000;" vertex="1" parent="39">
                    <mxGeometry x="150" width="130" height="46" as="geometry">
                        <mxRectangle width="130" height="46" as="alternateBounds"/>
                    </mxGeometry>
                </mxCell>
                <mxCell id="42" value="" style="shape=tableRow;horizontal=0;startSize=0;swimlaneHead=0;swimlaneBody=0;top=0;left=0;bottom=0;right=0;collapsible=0;dropTarget=0;fillColor=none;points=[[0,0.5],[1,0.5]];portConstraint=eastwest;rounded=1;fontColor=#CC0000;" vertex="1" parent="38">
                    <mxGeometry y="46" width="280" height="214" as="geometry"/>
                </mxCell>
                <mxCell id="43" value="" style="shape=partialRectangle;html=1;whiteSpace=wrap;connectable=0;overflow=hidden;fillColor=none;top=0;left=0;bottom=0;right=0;pointerEvents=1;rounded=1;fontColor=#CC0000;" vertex="1" parent="42">
                    <mxGeometry width="150" height="214" as="geometry">
                        <mxRectangle width="150" height="214" as="alternateBounds"/>
                    </mxGeometry>
                </mxCell>
                <mxCell id="44" value="" style="shape=partialRectangle;html=1;whiteSpace=wrap;connectable=0;overflow=hidden;fillColor=none;top=0;left=0;bottom=0;right=0;pointerEvents=1;rounded=1;fontColor=#CCCCCC;" vertex="1" parent="42">
                    <mxGeometry x="150" width="130" height="214" as="geometry">
                        <mxRectangle width="130" height="214" as="alternateBounds"/>
                    </mxGeometry>
                </mxCell>
                <mxCell id="51" style="edgeStyle=none;html=1;exitX=0;exitY=0.25;exitDx=0;exitDy=0;entryX=0.783;entryY=0.667;entryDx=0;entryDy=0;entryPerimeter=0;fontColor=#CC0000;" edge="1" parent="1" source="45" target="24">
                    <mxGeometry relative="1" as="geometry"/>
                </mxCell>
                <mxCell id="45" value="&lt;span style=&quot;&quot;&gt;&lt;font color=&quot;#00ffff&quot;&gt;num = undefined(map)&lt;/font&gt;&lt;br&gt;&lt;font color=&quot;#cc0000&quot;&gt;num = 2 (code e phase)&lt;/font&gt;&lt;br&gt;&lt;/span&gt;" style="text;strokeColor=none;align=center;fillColor=none;html=1;verticalAlign=middle;whiteSpace=wrap;rounded=0;labelBackgroundColor=none;fontColor=#CCC4C7;" vertex="1" parent="1">
                    <mxGeometry x="330" y="150" width="140" height="60" as="geometry"/>
                </mxCell>
                <mxCell id="53" style="edgeStyle=none;html=1;exitX=0;exitY=0.75;exitDx=0;exitDy=0;entryX=0.75;entryY=0.8;entryDx=0;entryDy=0;entryPerimeter=0;fontColor=#CC0000;" edge="1" parent="1" source="46" target="26">
                    <mxGeometry relative="1" as="geometry"/>
                </mxCell>
                <mxCell id="46" value="&lt;font color=&quot;#00ffff&quot;&gt;ans = undefined (map)&lt;/font&gt;&lt;br&gt;&lt;font color=&quot;#cc0000&quot;&gt;ans = num * num (cep}&lt;/font&gt;" style="text;strokeColor=none;align=left;fillColor=none;html=1;verticalAlign=middle;whiteSpace=wrap;rounded=0;labelBackgroundColor=none;fontColor=#CCC4C7;" vertex="1" parent="1">
                    <mxGeometry x="340" y="230" width="150" height="70" as="geometry"/>
                </mxCell>
                <mxCell id="49" style="edgeStyle=none;html=1;exitX=0;exitY=1;exitDx=0;exitDy=0;fontColor=#CC0000;" edge="1" parent="1" source="48" target="46">
                    <mxGeometry relative="1" as="geometry">
                        <mxPoint x="460" y="260" as="targetPoint"/>
                        <Array as="points">
                            <mxPoint x="490" y="240"/>
                        </Array>
                    </mxGeometry>
                </mxCell>
                <mxCell id="48" value="return num * num" style="ellipse;whiteSpace=wrap;html=1;rounded=1;labelBackgroundColor=none;fontColor=#CC0000;" vertex="1" parent="1">
                    <mxGeometry x="490" y="160" width="120" height="80" as="geometry"/>
                </mxCell>
            </root>
        </mxGraphModel>
    </diagram>
</mxfile>